{"glyphs":{"0":{"ha":1346,"x_min":58,"x_max":1288,"o":"m 672 -22 q 999 41 860 -22 q 1213 219 1139 104 q 1288 486 1288 333 q 1213 753 1288 639 q 999 931 1139 868 q 672 994 860 994 q 346 931 485 994 q 133 753 207 868 q 58 486 58 638 q 133 219 58 335 q 346 41 207 104 q 672 -22 485 -22 m 672 181 q 397 260 497 181 q 297 486 297 340 q 397 712 297 632 q 672 792 496 792 q 949 712 849 792 q 1049 486 1049 632 q 949 260 1049 340 q 672 181 849 181 "},"1":{"ha":867,"x_min":35,"x_max":751,"o":"m 513 768 l 513 0 l 751 0 l 751 972 l 596 972 l 35 704 l 35 467 l 513 768 "},"2":{"ha":1175,"x_min":71,"x_max":1118,"o":"m 71 140 l 71 0 l 1086 0 l 1086 203 l 360 203 q 453 273 386 246 q 646 333 521 300 q 890 411 796 374 q 1051 521 983 449 q 1118 708 1118 593 q 1060 878 1118 815 q 890 967 1003 940 q 601 993 778 993 q 319 974 464 993 q 106 929 175 956 l 106 718 q 303 765 161 742 q 563 788 444 788 q 790 758 719 788 q 860 660 860 729 q 794 585 860 615 q 586 515 729 556 q 326 427 428 468 q 148 315 224 386 q 71 140 72 244 "},"3":{"ha":1138,"x_min":47,"x_max":1092,"o":"m 540 -22 q 950 40 808 -22 q 1092 254 1092 103 q 1028 399 1092 347 q 891 470 965 451 q 768 490 817 489 q 819 501 768 492 q 967 562 869 510 q 1064 729 1064 614 q 922 938 1064 879 q 518 996 779 996 q 268 976 407 996 q 47 924 129 957 l 47 710 q 260 767 119 742 q 504 793 401 793 q 744 767 650 793 q 838 685 838 740 q 794 629 838 650 q 631 595 751 608 q 272 572 511 582 l 272 403 q 627 385 499 399 q 810 344 756 371 q 865 274 865 318 q 506 181 865 181 q 258 206 399 181 q 47 263 117 231 l 47 50 q 266 -4 131 14 q 540 -22 401 -22 "},"4":{"ha":1203,"x_min":19,"x_max":1176,"o":"m 803 163 l 803 0 l 1042 0 l 1042 163 l 1176 163 l 1176 364 l 1042 364 l 1042 972 l 675 972 l 19 317 l 19 163 l 803 163 m 803 364 l 344 364 l 803 829 l 803 364 "},"5":{"ha":1125,"x_min":57,"x_max":1064,"o":"m 503 -22 q 800 17 674 -22 q 995 131 926 56 q 1064 310 1064 206 q 943 556 1064 482 q 626 631 822 631 q 427 617 521 631 q 269 578 333 603 l 303 769 l 1021 769 l 1021 972 l 125 972 l 68 474 l 174 374 q 350 430 253 408 q 532 451 447 451 q 754 419 683 451 q 825 317 825 386 q 741 216 825 250 q 507 182 657 182 q 256 207 383 182 q 57 268 128 232 l 57 49 q 259 -3 135 15 q 503 -22 383 -22 "},"6":{"ha":1194,"x_min":58,"x_max":1136,"o":"m 628 -17 q 902 24 788 -17 q 1076 137 1017 64 q 1136 308 1136 210 q 1025 549 1136 458 q 693 639 914 639 q 486 608 593 639 q 297 517 379 578 q 394 717 297 644 q 663 790 492 790 q 882 765 786 790 q 1061 692 978 739 l 1061 913 q 885 973 979 953 q 668 993 792 993 q 346 936 483 993 q 133 769 208 879 q 58 503 58 658 q 211 114 58 244 q 628 -17 364 -17 m 615 186 q 426 233 503 186 q 319 361 350 281 q 474 435 376 406 q 658 464 571 464 q 835 428 775 464 q 896 324 896 392 q 819 222 896 257 q 615 186 743 186 "},"7":{"ha":1144,"x_min":17,"x_max":1126,"o":"m 769 769 l 139 0 l 464 0 l 1126 869 l 1126 972 l 17 972 l 17 769 l 769 769 "},"8":{"ha":1193,"x_min":47,"x_max":1146,"o":"m 603 -28 q 887 4 764 -29 q 1078 101 1010 38 q 1146 254 1146 165 q 1053 410 1146 356 q 822 478 960 464 q 1033 560 947 499 q 1118 724 1118 621 q 1051 869 1118 810 q 865 960 983 929 q 596 990 747 990 q 214 921 353 990 q 75 724 75 851 q 160 560 75 621 q 369 478 244 500 q 140 410 232 464 q 47 254 47 356 q 115 101 47 165 q 307 4 182 38 q 603 -28 432 -29 m 596 578 q 374 608 432 578 q 315 688 315 638 q 394 770 315 743 q 596 797 474 797 q 799 770 719 797 q 878 688 878 743 q 816 608 878 638 q 596 578 754 578 m 596 167 q 365 194 443 167 q 288 272 288 221 q 356 352 288 325 q 596 379 424 379 q 838 352 769 379 q 906 272 906 325 q 827 194 906 221 q 596 167 749 167 "},"9":{"ha":1194,"x_min":58,"x_max":1136,"o":"m 567 992 q 292 951 407 992 q 118 838 178 911 q 58 667 58 765 q 169 426 58 517 q 501 336 281 336 q 708 367 601 336 q 897 458 815 397 q 799 258 897 331 q 531 185 701 185 q 312 210 407 185 q 133 283 217 236 l 133 63 q 309 2 215 22 q 526 -18 403 -18 q 849 39 711 -18 q 1061 206 986 96 q 1136 472 1136 317 q 983 861 1136 731 q 567 992 831 992 m 579 789 q 768 742 692 789 q 874 614 844 694 q 720 540 817 569 q 536 511 624 511 q 359 547 419 511 q 299 651 299 583 q 375 753 299 718 q 579 789 451 789 "}," ":{"ha":417,"x_min":0,"x_max":0,"o":""},"A":{"ha":1525,"x_min":40,"x_max":1485,"o":"m 628 972 l 40 0 l 319 0 l 425 185 l 1099 185 l 1204 0 l 1485 0 l 897 972 l 628 972 m 985 388 l 540 388 l 763 776 l 985 388 "},"Á":{"ha":1525,"x_min":40,"x_max":1485,"o":"m 628 972 l 40 0 l 319 0 l 425 185 l 1099 185 l 1204 0 l 1485 0 l 897 972 l 628 972 m 985 388 l 540 388 l 763 776 l 985 388 m 729 1179 l 729 1033 l 1128 1226 l 1128 1403 l 729 1179 "},"Ă":{"ha":1525,"x_min":40,"x_max":1485,"o":"m 628 972 l 40 0 l 319 0 l 425 185 l 1099 185 l 1204 0 l 1485 0 l 897 972 l 628 972 m 985 388 l 540 388 l 763 776 l 985 388 m 763 1043 q 980 1099 903 1043 q 1058 1250 1057 1154 l 915 1250 q 871 1166 911 1194 q 763 1138 831 1138 q 655 1166 696 1138 q 613 1250 614 1194 l 467 1250 q 506 1142 467 1189 q 611 1069 544 1094 q 763 1043 678 1043 "},"Â":{"ha":1525,"x_min":40,"x_max":1485,"o":"m 628 972 l 40 0 l 319 0 l 425 185 l 1099 185 l 1204 0 l 1485 0 l 897 972 l 628 972 m 985 388 l 540 388 l 763 776 l 985 388 m 1161 1160 l 763 1418 l 364 1160 l 364 1049 l 763 1276 l 1161 1049 l 1161 1160 "},"Ä":{"ha":1525,"x_min":40,"x_max":1485,"o":"m 628 972 l 40 0 l 319 0 l 425 185 l 1099 185 l 1204 0 l 1485 0 l 897 972 l 628 972 m 985 388 l 540 388 l 763 776 l 985 388 m 567 1025 q 668 1057 632 1025 q 704 1143 704 1089 q 668 1229 704 1197 q 567 1261 632 1261 q 467 1228 506 1261 q 429 1143 429 1196 q 467 1058 429 1090 q 567 1025 506 1025 m 969 1025 q 1071 1057 1035 1025 q 1107 1143 1107 1089 q 1071 1229 1107 1197 q 969 1261 1035 1261 q 870 1228 908 1261 q 832 1143 832 1196 q 870 1058 832 1090 q 969 1025 908 1025 "},"À":{"ha":1525,"x_min":40,"x_max":1485,"o":"m 628 972 l 40 0 l 319 0 l 425 185 l 1099 185 l 1204 0 l 1485 0 l 897 972 l 628 972 m 985 388 l 540 388 l 763 776 l 985 388 m 372 1226 l 771 1033 l 771 1179 l 372 1403 l 372 1226 "},"Ā":{"ha":1525,"x_min":40,"x_max":1485,"o":"m 628 972 l 40 0 l 319 0 l 425 185 l 1099 185 l 1204 0 l 1485 0 l 897 972 l 628 972 m 985 388 l 540 388 l 763 776 l 985 388 m 393 1250 l 393 1175 l 1132 1175 l 1132 1250 l 393 1250 "},"Ą":{"ha":1525,"x_min":40,"x_max":1543,"o":"m 1426 -175 q 1289 -149 1343 -175 q 1235 -78 1235 -122 q 1275 0 1235 -42 l 1485 0 l 897 972 l 628 972 l 40 0 l 319 0 l 425 185 l 1099 185 l 1175 50 l 1168 43 q 1076 -129 1076 -49 q 1119 -229 1076 -186 q 1231 -296 1161 -272 q 1383 -319 1301 -319 q 1539 -297 1467 -319 l 1543 -162 q 1426 -175 1482 -175 m 985 388 l 540 388 l 763 776 l 985 388 "},"Å":{"ha":1525,"x_min":40,"x_max":1485,"o":"m 628 972 l 40 0 l 319 0 l 425 185 l 1099 185 l 1204 0 l 1485 0 l 897 972 l 628 972 m 985 388 l 540 388 l 763 776 l 985 388 m 763 1025 q 945 1043 865 1025 q 1069 1093 1025 1061 q 1114 1168 1114 1125 q 1069 1243 1114 1211 q 945 1293 1025 1275 q 763 1311 865 1311 q 588 1293 668 1311 q 459 1242 507 1275 q 411 1168 411 1210 q 459 1094 411 1126 q 588 1043 507 1061 q 763 1025 668 1025 m 763 1096 q 673 1115 707 1096 q 639 1168 639 1133 q 673 1222 639 1203 q 763 1240 707 1240 q 855 1222 821 1240 q 889 1167 889 1203 q 853 1115 889 1133 q 763 1096 818 1096 "},"Ã":{"ha":1525,"x_min":40,"x_max":1485,"o":"m 628 972 l 40 0 l 319 0 l 425 185 l 1099 185 l 1204 0 l 1485 0 l 897 972 l 628 972 m 985 388 l 540 388 l 763 776 l 985 388 m 881 1072 q 1003 1122 956 1072 q 1051 1253 1050 1171 l 968 1253 q 944 1178 967 1203 q 881 1154 921 1154 q 843 1165 860 1154 q 800 1199 826 1175 q 748 1240 771 1226 q 693 1254 725 1254 q 571 1204 618 1254 q 522 1074 524 1154 l 607 1074 q 631 1147 608 1122 q 693 1172 654 1172 q 724 1163 710 1172 q 760 1133 739 1153 q 816 1088 789 1104 q 881 1072 843 1072 "},"Æ":{"ha":2006,"x_min":40,"x_max":1903,"o":"m 1246 775 l 1903 775 l 1903 972 l 875 972 l 40 0 l 368 0 l 517 185 l 1007 185 l 1007 0 l 1903 0 l 1903 197 l 1246 197 l 1246 401 l 1890 401 l 1890 586 l 1246 586 l 1246 775 m 1007 382 l 676 382 l 1007 793 l 1007 382 "},"B":{"ha":1286,"x_min":117,"x_max":1193,"o":"m 117 972 l 117 0 l 879 0 q 1044 32 972 0 q 1154 123 1115 64 q 1193 258 1193 182 q 1113 431 1193 369 q 892 494 1032 492 q 1090 556 1019 501 q 1161 715 1161 611 q 1078 901 1161 831 q 849 972 996 972 l 117 972 m 800 583 l 356 583 l 354 769 l 800 769 q 922 675 922 769 q 891 605 922 626 q 800 583 860 583 m 831 204 l 357 204 l 356 404 l 831 404 q 921 379 889 404 q 953 303 953 354 q 831 204 953 204 "},"C":{"ha":1297,"x_min":67,"x_max":1239,"o":"m 653 -22 q 960 33 826 -22 q 1166 190 1093 89 q 1239 424 1239 292 l 997 424 q 897 244 990 307 q 653 181 804 181 q 400 261 494 181 q 306 486 306 342 q 399 712 306 632 q 653 792 493 792 q 896 728 803 792 q 997 549 989 665 l 1239 549 q 1166 782 1239 681 q 960 939 1093 883 q 653 994 826 994 q 346 931 479 994 q 140 753 213 868 q 67 486 67 638 q 140 219 67 335 q 346 41 213 104 q 653 -22 479 -22 "},"Ć":{"ha":1297,"x_min":67,"x_max":1239,"o":"m 653 -22 q 960 33 826 -22 q 1166 190 1093 89 q 1239 424 1239 292 l 997 424 q 897 244 990 307 q 653 181 804 181 q 400 261 494 181 q 306 486 306 342 q 399 712 306 632 q 653 792 493 792 q 896 728 803 792 q 997 549 989 665 l 1239 549 q 1166 782 1239 681 q 960 939 1093 883 q 653 994 826 994 q 346 931 479 994 q 140 753 213 868 q 67 486 67 638 q 140 219 67 335 q 346 41 213 104 q 653 -22 479 -22 "},"Č":{"ha":1297,"x_min":67,"x_max":1239,"o":"m 653 -22 q 960 33 826 -22 q 1166 190 1093 89 q 1239 424 1239 292 l 997 424 q 897 244 990 307 q 653 181 804 181 q 400 261 494 181 q 306 486 306 342 q 399 712 306 632 q 653 792 493 792 q 896 728 803 792 q 997 549 989 665 l 1239 549 q 1166 782 1239 681 q 960 939 1093 883 q 653 994 826 994 q 346 931 479 994 q 140 753 213 868 q 67 486 67 638 q 140 219 67 335 q 346 41 213 104 q 653 -22 479 -22 m 1051 1418 l 653 1190 l 254 1418 l 254 1307 l 653 1049 l 1051 1307 l 1051 1418 "},"Ç":{"ha":1297,"x_min":67,"x_max":1239,"o":"m 653 181 q 400 261 494 181 q 306 486 306 342 q 399 712 306 632 q 653 792 493 792 q 896 728 803 792 q 997 549 989 665 l 1239 549 q 1166 782 1239 681 q 960 939 1093 883 q 653 994 826 994 q 346 931 479 994 q 140 753 213 868 q 67 486 67 638 q 127 242 67 350 q 299 67 188 133 q 557 -17 410 0 l 514 -92 l 514 -165 q 867 -246 867 -171 q 781 -301 867 -281 q 514 -322 696 -321 l 514 -399 q 823 -378 689 -399 q 1031 -324 957 -358 q 1106 -246 1106 -289 q 993 -147 1106 -186 q 682 -97 881 -108 l 722 -19 q 994 49 878 -10 q 1175 203 1111 107 q 1239 424 1239 300 l 997 424 q 897 244 990 307 q 653 181 804 181 "},"Ċ":{"ha":1297,"x_min":67,"x_max":1239,"o":"m 653 -22 q 960 33 826 -22 q 1166 190 1093 89 q 1239 424 1239 292 l 997 424 q 897 244 990 307 q 653 181 804 181 q 400 261 494 181 q 306 486 306 342 q 399 712 306 632 q 653 792 493 792 q 896 728 803 792 q 997 549 989 665 l 1239 549 q 1166 782 1239 681 q 960 939 1093 883 q 653 994 826 994 q 346 931 479 994 q 140 753 213 868 q 67 486 67 638 q 140 219 67 335 q 346 41 213 104 q 653 -22 479 -22 "},"D":{"ha":1204,"x_min":117,"x_max":1146,"o":"m 117 972 l 117 0 l 579 0 q 996 124 846 0 q 1146 486 1146 249 q 996 847 1146 722 q 579 972 846 972 l 117 972 m 579 203 l 356 203 l 356 769 l 579 769 q 823 698 739 769 q 907 486 907 626 q 824 275 907 347 q 579 203 740 203 "},"Ð":{"ha":1204,"x_min":28,"x_max":1146,"o":"m 579 972 l 117 972 l 117 586 l 28 586 l 28 388 l 117 388 l 117 0 l 579 0 q 996 124 846 0 q 1146 486 1146 249 q 996 847 1146 722 q 579 972 846 972 m 579 203 l 356 203 l 356 388 l 722 388 l 722 586 l 356 586 l 356 769 l 579 769 q 823 698 739 769 q 907 486 907 626 q 824 275 907 347 q 579 203 740 203 "},"Ď":{"ha":1204,"x_min":117,"x_max":1146,"o":"m 117 972 l 117 0 l 579 0 q 996 124 846 0 q 1146 486 1146 249 q 996 847 1146 722 q 579 972 846 972 l 117 972 m 579 203 l 356 203 l 356 769 l 579 769 q 823 698 739 769 q 907 486 907 626 q 824 275 907 347 q 579 203 740 203 m 1026 1418 l 628 1190 l 229 1418 l 229 1307 l 628 1049 l 1026 1307 l 1026 1418 "},"Đ":{"ha":1204,"x_min":28,"x_max":1146,"o":"m 579 972 l 117 972 l 117 586 l 28 586 l 28 388 l 117 388 l 117 0 l 579 0 q 996 124 846 0 q 1146 486 1146 249 q 996 847 1146 722 q 579 972 846 972 m 579 203 l 356 203 l 356 388 l 722 388 l 722 586 l 356 586 l 356 769 l 579 769 q 823 698 739 769 q 907 486 907 626 q 824 275 907 347 q 579 203 740 203 "},"E":{"ha":1167,"x_min":117,"x_max":1064,"o":"m 117 972 l 117 0 l 1064 0 l 1064 203 l 356 203 l 356 399 l 1051 399 l 1051 589 l 356 589 l 356 769 l 1064 769 l 1064 972 l 117 972 "},"É":{"ha":1167,"x_min":117,"x_max":1064,"o":"m 117 972 l 117 0 l 1064 0 l 1064 203 l 356 203 l 356 399 l 1051 399 l 1051 589 l 356 589 l 356 769 l 1064 769 l 1064 972 l 117 972 m 556 1179 l 556 1033 l 954 1226 l 954 1403 l 556 1179 "},"Ě":{"ha":1167,"x_min":117,"x_max":1064,"o":"m 117 972 l 117 0 l 1064 0 l 1064 203 l 356 203 l 356 399 l 1051 399 l 1051 589 l 356 589 l 356 769 l 1064 769 l 1064 972 l 117 972 m 988 1418 l 589 1190 l 190 1418 l 190 1307 l 589 1049 l 988 1307 l 988 1418 "},"Ê":{"ha":1167,"x_min":117,"x_max":1064,"o":"m 117 972 l 117 0 l 1064 0 l 1064 203 l 356 203 l 356 399 l 1051 399 l 1051 589 l 356 589 l 356 769 l 1064 769 l 1064 972 l 117 972 m 988 1160 l 589 1418 l 190 1160 l 190 1049 l 589 1276 l 988 1049 l 988 1160 "},"Ë":{"ha":1167,"x_min":117,"x_max":1064,"o":"m 117 972 l 117 0 l 1064 0 l 1064 203 l 356 203 l 356 399 l 1051 399 l 1051 589 l 356 589 l 356 769 l 1064 769 l 1064 972 l 117 972 m 393 1025 q 494 1057 458 1025 q 531 1143 531 1089 q 494 1229 531 1197 q 393 1261 458 1261 q 294 1228 332 1261 q 256 1143 256 1196 q 294 1058 256 1090 q 393 1025 332 1025 m 796 1025 q 897 1057 861 1025 q 933 1143 933 1089 q 897 1229 933 1197 q 796 1261 861 1261 q 697 1228 735 1261 q 658 1143 658 1196 q 697 1058 658 1090 q 796 1025 735 1025 "},"Ė":{"ha":1167,"x_min":117,"x_max":1064,"o":"m 117 972 l 117 0 l 1064 0 l 1064 203 l 356 203 l 356 399 l 1051 399 l 1051 589 l 356 589 l 356 769 l 1064 769 l 1064 972 l 117 972 "},"È":{"ha":1167,"x_min":117,"x_max":1064,"o":"m 117 972 l 117 0 l 1064 0 l 1064 203 l 356 203 l 356 399 l 1051 399 l 1051 589 l 356 589 l 356 769 l 1064 769 l 1064 972 l 117 972 m 199 1226 l 597 1033 l 597 1179 l 199 1403 l 199 1226 "},"Ē":{"ha":1167,"x_min":117,"x_max":1064,"o":"m 117 972 l 117 0 l 1064 0 l 1064 203 l 356 203 l 356 399 l 1051 399 l 1051 589 l 356 589 l 356 769 l 1064 769 l 1064 972 l 117 972 m 219 1250 l 219 1175 l 958 1175 l 958 1250 l 219 1250 "},"Ę":{"ha":1167,"x_min":117,"x_max":1064,"o":"m 356 769 l 1064 769 l 1064 972 l 117 972 l 117 0 l 496 0 q 443 -129 443 -69 q 485 -229 443 -186 q 598 -296 528 -272 q 750 -319 668 -319 q 906 -297 833 -319 l 910 -162 q 793 -175 850 -175 q 656 -149 710 -175 q 601 -78 601 -122 q 642 0 601 -42 l 1064 0 l 1064 203 l 356 203 l 356 399 l 1051 399 l 1051 589 l 356 589 l 356 769 "},"F":{"ha":1068,"x_min":117,"x_max":1007,"o":"m 117 972 l 117 0 l 356 0 l 356 399 l 994 399 l 994 589 l 356 589 l 356 769 l 1007 769 l 1007 972 l 117 972 "},"G":{"ha":1333,"x_min":72,"x_max":1253,"o":"m 658 -22 q 917 32 804 -22 q 1086 194 1029 86 l 1097 0 l 1253 0 l 1253 533 l 513 533 l 513 363 l 997 363 q 882 226 974 272 q 658 181 790 181 q 406 261 500 181 q 311 486 311 342 q 406 712 311 632 q 667 792 501 792 q 901 748 815 792 q 992 617 988 704 l 1238 617 q 1160 814 1235 728 q 954 947 1085 900 q 658 994 824 994 q 351 931 485 994 q 145 753 218 868 q 72 486 72 638 q 145 219 72 335 q 351 41 218 104 q 658 -22 485 -22 "},"Ğ":{"ha":1333,"x_min":72,"x_max":1253,"o":"m 658 -22 q 917 32 804 -22 q 1086 194 1029 86 l 1097 0 l 1253 0 l 1253 533 l 513 533 l 513 363 l 997 363 q 882 226 974 272 q 658 181 790 181 q 406 261 500 181 q 311 486 311 342 q 406 712 311 632 q 667 792 501 792 q 901 748 815 792 q 992 617 988 704 l 1238 617 q 1160 814 1235 728 q 954 947 1085 900 q 658 994 824 994 q 351 931 485 994 q 145 753 218 868 q 72 486 72 638 q 145 219 72 335 q 351 41 218 104 q 658 -22 485 -22 "},"Ģ":{"ha":1333,"x_min":72,"x_max":1253,"o":"m 658 -22 q 917 32 804 -22 q 1086 194 1029 86 l 1097 0 l 1253 0 l 1253 533 l 513 533 l 513 363 l 997 363 q 882 226 974 272 q 658 181 790 181 q 406 261 500 181 q 311 486 311 342 q 406 712 311 632 q 667 792 501 792 q 901 748 815 792 q 992 617 988 704 l 1238 617 q 1160 814 1235 728 q 954 947 1085 900 q 658 994 824 994 q 351 931 485 994 q 145 753 218 868 q 72 486 72 638 q 145 219 72 335 q 351 41 218 104 q 658 -22 485 -22 m 583 -111 l 496 -486 l 632 -486 l 789 -111 l 583 -111 "},"Ġ":{"ha":1333,"x_min":72,"x_max":1253,"o":"m 658 -22 q 917 32 804 -22 q 1086 194 1029 86 l 1097 0 l 1253 0 l 1253 533 l 513 533 l 513 363 l 997 363 q 882 226 974 272 q 658 181 790 181 q 406 261 500 181 q 311 486 311 342 q 406 712 311 632 q 667 792 501 792 q 901 748 815 792 q 992 617 988 704 l 1238 617 q 1160 814 1235 728 q 954 947 1085 900 q 658 994 824 994 q 351 931 485 994 q 145 753 218 868 q 72 486 72 638 q 145 219 72 335 q 351 41 218 104 q 658 -22 485 -22 "},"H":{"ha":1324,"x_min":117,"x_max":1207,"o":"m 117 972 l 117 0 l 356 0 l 356 404 l 968 404 l 968 0 l 1207 0 l 1207 972 l 968 972 l 968 607 l 356 607 l 356 972 l 117 972 "},"Ħ":{"ha":1324,"x_min":39,"x_max":1283,"o":"m 1283 728 l 1283 892 l 1207 892 l 1207 972 l 968 972 l 968 892 l 356 892 l 356 972 l 117 972 l 117 892 l 39 892 l 39 728 l 117 728 l 117 0 l 356 0 l 356 404 l 968 404 l 968 0 l 1207 0 l 1207 728 l 1283 728 m 968 728 l 968 607 l 356 607 l 356 728 l 968 728 "},"I":{"ha":472,"x_min":117,"x_max":356,"o":"m 117 972 l 117 0 l 356 0 l 356 972 l 117 972 "},"Í":{"ha":472,"x_min":117,"x_max":601,"o":"m 117 972 l 117 0 l 356 0 l 356 972 l 117 972 m 203 1179 l 203 1033 l 601 1226 l 601 1403 l 203 1179 "},"Î":{"ha":472,"x_min":-162,"x_max":635,"o":"m 117 972 l 117 0 l 356 0 l 356 972 l 117 972 m 635 1160 l 236 1418 l -162 1160 l -162 1049 l 236 1276 l 635 1049 l 635 1160 "},"Ï":{"ha":472,"x_min":-97,"x_max":581,"o":"m 117 972 l 117 0 l 356 0 l 356 972 l 117 972 m 40 1025 q 142 1057 106 1025 q 178 1143 178 1089 q 142 1229 178 1197 q 40 1261 106 1261 q -59 1228 -21 1261 q -97 1143 -97 1196 q -59 1058 -97 1090 q 40 1025 -21 1025 m 443 1025 q 544 1057 508 1025 q 581 1143 581 1089 q 544 1229 581 1197 q 443 1261 508 1261 q 344 1228 382 1261 q 306 1143 306 1196 q 344 1058 306 1090 q 443 1025 382 1025 "},"İ":{"ha":472,"x_min":103,"x_max":378,"o":"m 117 972 l 117 0 l 356 0 l 356 972 l 117 972 "},"Ì":{"ha":472,"x_min":-154,"x_max":356,"o":"m 117 972 l 117 0 l 356 0 l 356 972 l 117 972 m -154 1226 l 244 1033 l 244 1179 l -154 1403 l -154 1226 "},"Ī":{"ha":472,"x_min":-133,"x_max":606,"o":"m 117 972 l 117 0 l 356 0 l 356 972 l 117 972 m -133 1250 l -133 1175 l 606 1175 l 606 1250 l -133 1250 "},"Į":{"ha":472,"x_min":47,"x_max":513,"o":"m 396 -175 q 260 -149 314 -175 q 206 -78 206 -122 q 246 0 206 -42 l 356 0 l 356 972 l 117 972 l 117 19 q 47 -129 47 -58 q 90 -229 47 -186 q 202 -296 132 -272 q 354 -319 272 -319 q 508 -297 436 -319 l 513 -162 q 396 -175 454 -175 "},"J":{"ha":1143,"x_min":75,"x_max":1026,"o":"m 551 -22 q 1026 471 1026 -22 l 1026 972 l 204 972 l 204 769 l 788 769 l 788 471 q 728 249 788 317 q 551 181 669 181 q 374 249 433 181 q 315 471 315 317 l 75 471 q 551 -22 75 -22 "},"K":{"ha":1363,"x_min":117,"x_max":1306,"o":"m 117 972 l 117 0 l 356 0 l 356 204 l 646 442 l 982 0 l 1306 0 l 840 604 l 1265 972 l 917 972 l 356 482 l 356 972 l 117 972 "},"Ķ":{"ha":1363,"x_min":117,"x_max":1306,"o":"m 117 972 l 117 0 l 356 0 l 356 204 l 646 442 l 982 0 l 1306 0 l 840 604 l 1265 972 l 917 972 l 356 482 l 356 972 l 117 972 m 551 -111 l 464 -486 l 600 -486 l 757 -111 l 551 -111 "},"L":{"ha":1049,"x_min":117,"x_max":1001,"o":"m 117 972 l 117 0 l 1001 0 l 1001 203 l 356 203 l 356 972 l 117 972 "},"Ĺ":{"ha":1049,"x_min":117,"x_max":1001,"o":"m 117 972 l 117 0 l 1001 0 l 1001 203 l 356 203 l 356 972 l 117 972 "},"Ľ":{"ha":1049,"x_min":117,"x_max":1001,"o":"m 117 972 l 117 0 l 1001 0 l 1001 203 l 356 203 l 356 972 l 117 972 m 557 971 l 469 596 l 606 596 l 763 971 l 557 971 "},"Ļ":{"ha":1049,"x_min":117,"x_max":1001,"o":"m 117 972 l 117 0 l 1001 0 l 1001 203 l 356 203 l 356 972 l 117 972 m 454 -111 l 367 -486 l 503 -486 l 660 -111 l 454 -111 "},"Ł":{"ha":1049,"x_min":-57,"x_max":1001,"o":"m 1001 203 l 356 203 l 356 536 l 672 718 l 589 860 l 356 726 l 356 972 l 117 972 l 117 589 l -57 489 l 25 346 l 117 399 l 117 0 l 1001 0 l 1001 203 "},"M":{"ha":1458,"x_min":117,"x_max":1342,"o":"m 117 972 l 117 0 l 356 0 l 356 560 l 706 0 l 753 0 l 1103 561 l 1103 0 l 1342 0 l 1342 972 l 1128 972 l 729 342 l 329 972 l 117 972 "},"N":{"ha":1353,"x_min":117,"x_max":1238,"o":"m 117 972 l 117 0 l 356 0 l 356 618 l 1036 0 l 1238 0 l 1238 972 l 999 972 l 999 354 l 317 972 l 117 972 "},"Ń":{"ha":1353,"x_min":117,"x_max":1238,"o":"m 117 972 l 117 0 l 356 0 l 356 618 l 1036 0 l 1238 0 l 1238 972 l 999 972 l 999 354 l 317 972 l 117 972 "},"Ň":{"ha":1353,"x_min":117,"x_max":1238,"o":"m 117 972 l 117 0 l 356 0 l 356 618 l 1036 0 l 1238 0 l 1238 972 l 999 972 l 999 354 l 317 972 l 117 972 m 1078 1418 l 679 1190 l 281 1418 l 281 1307 l 679 1049 l 1078 1307 l 1078 1418 "},"Ņ":{"ha":1353,"x_min":117,"x_max":1238,"o":"m 117 972 l 117 0 l 356 0 l 356 618 l 1036 0 l 1238 0 l 1238 972 l 999 972 l 999 354 l 317 972 l 117 972 m 582 -111 l 494 -486 l 631 -486 l 788 -111 l 582 -111 "},"Ŋ":{"ha":1353,"x_min":117,"x_max":1238,"o":"m 1238 972 l 999 972 l 999 354 l 317 972 l 117 972 l 117 0 l 356 0 l 356 618 l 1036 0 q 1064 -53 1064 -31 q 956 -127 1064 -100 q 643 -154 847 -154 l 643 -278 q 1013 -254 888 -278 q 1188 -172 1138 -231 q 1238 0 1238 -114 l 1238 972 "},"Ñ":{"ha":1353,"x_min":117,"x_max":1238,"o":"m 117 972 l 117 0 l 356 0 l 356 618 l 1036 0 l 1238 0 l 1238 972 l 999 972 l 999 354 l 317 972 l 117 972 m 797 1072 q 919 1122 872 1072 q 968 1253 967 1171 l 885 1253 q 860 1178 883 1203 q 797 1154 838 1154 q 760 1165 776 1154 q 717 1199 743 1175 q 665 1240 688 1226 q 610 1254 642 1254 q 488 1204 535 1254 q 439 1074 440 1154 l 524 1074 q 548 1147 525 1122 q 610 1172 571 1172 q 641 1163 626 1172 q 676 1133 656 1153 q 733 1088 706 1104 q 797 1072 760 1072 "},"O":{"ha":1346,"x_min":58,"x_max":1288,"o":"m 672 -22 q 999 41 860 -22 q 1213 219 1139 104 q 1288 486 1288 333 q 1213 753 1288 639 q 999 931 1139 868 q 672 994 860 994 q 346 931 485 994 q 133 753 207 868 q 58 486 58 638 q 133 219 58 335 q 346 41 207 104 q 672 -22 485 -22 m 672 181 q 397 260 497 181 q 297 486 297 340 q 397 712 297 632 q 672 792 496 792 q 949 712 849 792 q 1049 486 1049 632 q 949 260 1049 340 q 672 181 849 181 "},"Ó":{"ha":1346,"x_min":58,"x_max":1288,"o":"m 672 -22 q 999 41 860 -22 q 1213 219 1139 104 q 1288 486 1288 333 q 1213 753 1288 639 q 999 931 1139 868 q 672 994 860 994 q 346 931 485 994 q 133 753 207 868 q 58 486 58 638 q 133 219 58 335 q 346 41 207 104 q 672 -22 485 -22 m 672 181 q 397 260 497 181 q 297 486 297 340 q 397 712 297 632 q 672 792 496 792 q 949 712 849 792 q 1049 486 1049 632 q 949 260 1049 340 q 672 181 849 181 m 640 1179 l 640 1033 l 1039 1226 l 1039 1403 l 640 1179 "},"Ô":{"ha":1346,"x_min":58,"x_max":1288,"o":"m 672 -22 q 999 41 860 -22 q 1213 219 1139 104 q 1288 486 1288 333 q 1213 753 1288 639 q 999 931 1139 868 q 672 994 860 994 q 346 931 485 994 q 133 753 207 868 q 58 486 58 638 q 133 219 58 335 q 346 41 207 104 q 672 -22 485 -22 m 672 181 q 397 260 497 181 q 297 486 297 340 q 397 712 297 632 q 672 792 496 792 q 949 712 849 792 q 1049 486 1049 632 q 949 260 1049 340 q 672 181 849 181 m 1072 1160 l 674 1418 l 275 1160 l 275 1049 l 674 1276 l 1072 1049 l 1072 1160 "},"Ö":{"ha":1346,"x_min":58,"x_max":1288,"o":"m 672 -22 q 999 41 860 -22 q 1213 219 1139 104 q 1288 486 1288 333 q 1213 753 1288 639 q 999 931 1139 868 q 672 994 860 994 q 346 931 485 994 q 133 753 207 868 q 58 486 58 638 q 133 219 58 335 q 346 41 207 104 q 672 -22 485 -22 m 672 181 q 397 260 497 181 q 297 486 297 340 q 397 712 297 632 q 672 792 496 792 q 949 712 849 792 q 1049 486 1049 632 q 949 260 1049 340 q 672 181 849 181 m 478 1025 q 579 1057 543 1025 q 615 1143 615 1089 q 579 1229 615 1197 q 478 1261 543 1261 q 378 1228 417 1261 q 340 1143 340 1196 q 378 1058 340 1090 q 478 1025 417 1025 m 881 1025 q 982 1057 946 1025 q 1018 1143 1018 1089 q 982 1229 1018 1197 q 881 1261 946 1261 q 781 1228 819 1261 q 743 1143 743 1196 q 781 1058 743 1090 q 881 1025 819 1025 "},"Ò":{"ha":1346,"x_min":58,"x_max":1288,"o":"m 672 -22 q 999 41 860 -22 q 1213 219 1139 104 q 1288 486 1288 333 q 1213 753 1288 639 q 999 931 1139 868 q 672 994 860 994 q 346 931 485 994 q 133 753 207 868 q 58 486 58 638 q 133 219 58 335 q 346 41 207 104 q 672 -22 485 -22 m 672 181 q 397 260 497 181 q 297 486 297 340 q 397 712 297 632 q 672 792 496 792 q 949 712 849 792 q 1049 486 1049 632 q 949 260 1049 340 q 672 181 849 181 m 283 1226 l 682 1033 l 682 1179 l 283 1403 l 283 1226 "},"Ő":{"ha":1346,"x_min":58,"x_max":1288,"o":"m 672 -22 q 999 41 860 -22 q 1213 219 1139 104 q 1288 486 1288 333 q 1213 753 1288 639 q 999 931 1139 868 q 672 994 860 994 q 346 931 485 994 q 133 753 207 868 q 58 486 58 638 q 133 219 58 335 q 346 41 207 104 q 672 -22 485 -22 m 672 181 q 397 260 497 181 q 297 486 297 340 q 397 712 297 632 q 672 792 496 792 q 949 712 849 792 q 1049 486 1049 632 q 949 260 1049 340 q 672 181 849 181 m 485 1144 l 485 1033 l 883 1261 l 883 1403 l 485 1144 m 832 1144 l 832 1033 l 1231 1261 l 1231 1403 l 832 1144 "},"Ō":{"ha":1346,"x_min":58,"x_max":1288,"o":"m 672 -22 q 999 41 860 -22 q 1213 219 1139 104 q 1288 486 1288 333 q 1213 753 1288 639 q 999 931 1139 868 q 672 994 860 994 q 346 931 485 994 q 133 753 207 868 q 58 486 58 638 q 133 219 58 335 q 346 41 207 104 q 672 -22 485 -22 m 672 181 q 397 260 497 181 q 297 486 297 340 q 397 712 297 632 q 672 792 496 792 q 949 712 849 792 q 1049 486 1049 632 q 949 260 1049 340 q 672 181 849 181 m 304 1250 l 304 1175 l 1043 1175 l 1043 1250 l 304 1250 "},"Ø":{"ha":1346,"x_min":-12,"x_max":1361,"o":"m 1169 811 l 1361 972 l 1144 972 l 1058 900 q 672 994 904 994 q 346 931 485 994 q 133 753 207 868 q 58 486 58 638 q 178 160 58 292 l -12 0 l 206 0 l 289 71 q 672 -22 444 -22 q 999 41 860 -22 q 1213 219 1139 104 q 1288 486 1288 333 q 1169 811 1288 678 m 297 486 q 397 712 297 632 q 672 792 496 792 q 883 753 793 792 l 353 307 q 297 486 297 379 m 1049 486 q 949 260 1049 340 q 672 181 849 181 q 465 219 549 181 l 994 664 q 1049 486 1049 593 "},"Õ":{"ha":1346,"x_min":58,"x_max":1288,"o":"m 672 -22 q 999 41 860 -22 q 1213 219 1139 104 q 1288 486 1288 333 q 1213 753 1288 639 q 999 931 1139 868 q 672 994 860 994 q 346 931 485 994 q 133 753 207 868 q 58 486 58 638 q 133 219 58 335 q 346 41 207 104 q 672 -22 485 -22 m 672 181 q 397 260 497 181 q 297 486 297 340 q 397 712 297 632 q 672 792 496 792 q 949 712 849 792 q 1049 486 1049 632 q 949 260 1049 340 q 672 181 849 181 m 792 1072 q 914 1122 867 1072 q 963 1253 961 1171 l 879 1253 q 855 1178 878 1203 q 792 1154 832 1154 q 754 1165 771 1154 q 711 1199 738 1175 q 659 1240 682 1226 q 604 1254 636 1254 q 482 1204 529 1254 q 433 1074 435 1154 l 518 1074 q 542 1147 519 1122 q 604 1172 565 1172 q 635 1163 621 1172 q 671 1133 650 1153 q 727 1088 700 1104 q 792 1072 754 1072 "},"Œ":{"ha":2122,"x_min":58,"x_max":2019,"o":"m 1311 769 l 2019 769 l 2019 972 l 1072 972 l 1072 892 q 672 994 914 994 q 346 931 485 994 q 133 753 207 868 q 58 486 58 638 q 133 219 58 335 q 346 41 207 104 q 672 -22 485 -22 q 1072 81 914 -22 l 1072 0 l 2019 0 l 2019 203 l 1311 203 l 1311 399 l 2007 399 l 2007 589 l 1311 589 l 1311 769 m 672 181 q 397 260 497 181 q 297 486 297 340 q 397 712 297 632 q 672 792 496 792 q 949 712 849 792 q 1049 486 1049 632 q 949 260 1049 340 q 672 181 849 181 "},"P":{"ha":1214,"x_min":117,"x_max":1147,"o":"m 117 972 l 117 0 l 356 0 l 356 379 l 821 379 q 1057 456 967 379 q 1147 675 1147 532 q 1107 825 1147 757 q 992 933 1067 893 q 821 972 918 972 l 117 972 m 786 574 l 354 574 l 354 779 l 786 779 q 878 754 849 779 q 908 675 908 729 q 879 597 908 621 q 786 574 850 574 "},"Þ":{"ha":1165,"x_min":117,"x_max":1138,"o":"m 811 694 l 360 694 l 360 972 l 117 972 l 117 0 l 361 0 l 361 101 l 811 101 q 1047 178 957 101 q 1138 397 1138 254 q 1097 547 1138 479 q 983 655 1057 615 q 811 694 908 694 m 776 290 l 361 290 l 360 506 l 776 506 q 866 477 833 506 q 899 397 899 449 q 866 319 899 347 q 776 290 833 290 "},"Q":{"ha":1374,"x_min":58,"x_max":1363,"o":"m 1243 -22 l 1363 168 l 1229 247 q 1288 486 1288 351 q 1213 753 1288 639 q 999 931 1139 868 q 672 994 860 994 q 346 931 485 994 q 133 753 207 868 q 58 486 58 638 q 133 219 58 335 q 346 41 207 104 q 672 -22 485 -22 q 1076 83 917 -22 l 1243 -22 m 672 181 q 397 260 497 181 q 297 486 297 340 q 397 712 297 632 q 672 792 496 792 q 949 712 849 792 q 1049 486 1049 632 q 1028 368 1049 421 l 769 522 l 663 346 l 869 215 q 672 181 788 181 "},"R":{"ha":1307,"x_min":117,"x_max":1283,"o":"m 117 972 l 117 0 l 356 0 l 354 403 l 607 403 q 741 370 689 403 q 844 262 793 338 q 997 0 894 186 l 1283 0 q 1129 269 1194 175 q 984 414 1064 364 q 790 471 904 464 l 890 471 q 1118 535 1033 471 q 1203 715 1203 600 q 1120 901 1203 831 q 890 972 1038 972 l 117 972 m 842 589 l 354 589 l 353 779 l 842 779 q 934 756 904 779 q 964 681 964 732 q 934 612 964 635 q 842 589 904 589 "},"Ŕ":{"ha":1307,"x_min":117,"x_max":1283,"o":"m 117 972 l 117 0 l 356 0 l 354 403 l 607 403 q 741 370 689 403 q 844 262 793 338 q 997 0 894 186 l 1283 0 q 1129 269 1194 175 q 984 414 1064 364 q 790 471 904 464 l 890 471 q 1118 535 1033 471 q 1203 715 1203 600 q 1120 901 1203 831 q 890 972 1038 972 l 117 972 m 842 589 l 354 589 l 353 779 l 842 779 q 934 756 904 779 q 964 681 964 732 q 934 612 964 635 q 842 589 904 589 "},"Ř":{"ha":1307,"x_min":117,"x_max":1283,"o":"m 117 972 l 117 0 l 356 0 l 354 403 l 607 403 q 741 370 689 403 q 844 262 793 338 q 997 0 894 186 l 1283 0 q 1129 269 1194 175 q 984 414 1064 364 q 790 471 904 464 l 890 471 q 1118 535 1033 471 q 1203 715 1203 600 q 1120 901 1203 831 q 890 972 1038 972 l 117 972 m 842 589 l 354 589 l 353 779 l 842 779 q 934 756 904 779 q 964 681 964 732 q 934 612 964 635 q 842 589 904 589 m 1026 1418 l 628 1190 l 229 1418 l 229 1307 l 628 1049 l 1026 1307 l 1026 1418 "},"Ŗ":{"ha":1307,"x_min":117,"x_max":1283,"o":"m 117 972 l 117 0 l 356 0 l 354 403 l 607 403 q 741 370 689 403 q 844 262 793 338 q 997 0 894 186 l 1283 0 q 1129 269 1194 175 q 984 414 1064 364 q 790 471 904 464 l 890 471 q 1118 535 1033 471 q 1203 715 1203 600 q 1120 901 1203 831 q 890 972 1038 972 l 117 972 m 842 589 l 354 589 l 353 779 l 842 779 q 934 756 904 779 q 964 681 964 732 q 934 612 964 635 q 842 589 904 589 m 533 -111 l 446 -486 l 582 -486 l 739 -111 l 533 -111 "},"S":{"ha":1221,"x_min":57,"x_max":1163,"o":"m 614 -22 q 901 17 778 -22 q 1094 128 1025 56 q 1163 299 1163 200 q 1086 475 1163 415 q 905 553 1010 535 q 635 582 800 572 q 467 597 528 589 q 367 625 407 604 q 328 686 328 646 q 404 765 328 738 q 619 792 481 792 q 815 755 743 792 q 885 656 886 718 l 1138 656 q 1069 834 1136 757 q 880 953 1001 911 q 600 994 758 994 q 331 956 447 994 q 151 844 215 917 q 88 675 88 772 q 165 492 88 553 q 347 415 242 432 q 618 389 453 397 q 785 378 726 385 q 883 351 844 371 q 922 290 922 331 q 837 208 922 236 q 593 181 751 181 q 386 217 463 181 q 311 317 310 254 l 58 317 q 125 139 57 215 q 319 20 193 63 q 614 -22 446 -22 "},"Ś":{"ha":1221,"x_min":57,"x_max":1163,"o":"m 614 -22 q 901 17 778 -22 q 1094 128 1025 56 q 1163 299 1163 200 q 1086 475 1163 415 q 905 553 1010 535 q 635 582 800 572 q 467 597 528 589 q 367 625 407 604 q 328 686 328 646 q 404 765 328 738 q 619 792 481 792 q 815 755 743 792 q 885 656 886 718 l 1138 656 q 1069 834 1136 757 q 880 953 1001 911 q 600 994 758 994 q 331 956 447 994 q 151 844 215 917 q 88 675 88 772 q 165 492 88 553 q 347 415 242 432 q 618 389 453 397 q 785 378 726 385 q 883 351 844 371 q 922 290 922 331 q 837 208 922 236 q 593 181 751 181 q 386 217 463 181 q 311 317 310 254 l 58 317 q 125 139 57 215 q 319 20 193 63 q 614 -22 446 -22 "},"Š":{"ha":1221,"x_min":57,"x_max":1163,"o":"m 614 -22 q 901 17 778 -22 q 1094 128 1025 56 q 1163 299 1163 200 q 1086 475 1163 415 q 905 553 1010 535 q 635 582 800 572 q 467 597 528 589 q 367 625 407 604 q 328 686 328 646 q 404 765 328 738 q 619 792 481 792 q 815 755 743 792 q 885 656 886 718 l 1138 656 q 1069 834 1136 757 q 880 953 1001 911 q 600 994 758 994 q 331 956 447 994 q 151 844 215 917 q 88 675 88 772 q 165 492 88 553 q 347 415 242 432 q 618 389 453 397 q 785 378 726 385 q 883 351 844 371 q 922 290 922 331 q 837 208 922 236 q 593 181 751 181 q 386 217 463 181 q 311 317 310 254 l 58 317 q 125 139 57 215 q 319 20 193 63 q 614 -22 446 -22 m 1007 1418 l 608 1190 l 210 1418 l 210 1307 l 608 1049 l 1007 1307 l 1007 1418 "},"Ş":{"ha":1221,"x_min":57,"x_max":1163,"o":"m 1163 299 q 1086 475 1163 415 q 905 553 1010 535 q 635 582 800 572 q 467 597 528 589 q 367 625 407 604 q 328 686 328 646 q 404 765 328 738 q 619 792 481 792 q 815 755 743 792 q 885 656 886 718 l 1138 656 q 1069 834 1136 757 q 880 953 1001 911 q 600 994 758 994 q 331 956 447 994 q 151 844 215 917 q 88 675 88 772 q 165 492 88 553 q 347 415 242 432 q 618 389 453 397 q 785 378 726 385 q 883 351 844 371 q 922 290 922 331 q 837 208 922 236 q 593 181 751 181 q 386 217 463 181 q 311 317 310 254 l 58 317 q 113 152 57 225 q 276 35 169 79 q 528 -19 383 -10 l 486 -92 l 486 -165 q 756 -189 671 -168 q 840 -246 840 -210 q 486 -322 840 -321 l 486 -399 q 795 -378 661 -399 q 1003 -324 929 -358 q 1078 -246 1078 -289 q 966 -147 1078 -186 q 656 -97 854 -108 l 696 -19 q 942 31 838 -10 q 1105 140 1047 71 q 1163 299 1163 208 "},"Ș":{"ha":1221,"x_min":57,"x_max":1163,"o":"m 614 -22 q 901 17 778 -22 q 1094 128 1025 56 q 1163 299 1163 200 q 1086 475 1163 415 q 905 553 1010 535 q 635 582 800 572 q 467 597 528 589 q 367 625 407 604 q 328 686 328 646 q 404 765 328 738 q 619 792 481 792 q 815 755 743 792 q 885 656 886 718 l 1138 656 q 1069 834 1136 757 q 880 953 1001 911 q 600 994 758 994 q 331 956 447 994 q 151 844 215 917 q 88 675 88 772 q 165 492 88 553 q 347 415 242 432 q 618 389 453 397 q 785 378 726 385 q 883 351 844 371 q 922 290 922 331 q 837 208 922 236 q 593 181 751 181 q 386 217 463 181 q 311 317 310 254 l 58 317 q 125 139 57 215 q 319 20 193 63 q 614 -22 446 -22 m 536 -111 l 449 -486 l 585 -486 l 742 -111 l 536 -111 "},"T":{"ha":1224,"x_min":40,"x_max":1183,"o":"m 492 769 l 492 0 l 731 0 l 731 769 l 1183 769 l 1183 972 l 40 972 l 40 769 l 492 769 "},"Ŧ":{"ha":1224,"x_min":40,"x_max":1183,"o":"m 731 769 l 1183 769 l 1183 972 l 40 972 l 40 769 l 492 769 l 492 558 l 265 558 l 265 360 l 492 360 l 492 0 l 731 0 l 731 360 l 960 360 l 960 558 l 731 558 l 731 769 "},"Ť":{"ha":1224,"x_min":40,"x_max":1183,"o":"m 492 769 l 492 0 l 731 0 l 731 769 l 1183 769 l 1183 972 l 40 972 l 40 769 l 492 769 m 1011 1418 l 613 1190 l 214 1418 l 214 1307 l 613 1049 l 1011 1307 l 1011 1418 "},"Ţ":{"ha":1224,"x_min":40,"x_max":1183,"o":"m 656 0 l 731 0 l 731 769 l 1183 769 l 1183 972 l 40 972 l 40 769 l 492 769 l 492 6 l 436 -92 l 436 -165 q 789 -246 789 -171 q 703 -301 789 -281 q 436 -322 618 -321 l 436 -399 q 745 -378 611 -399 q 953 -324 879 -358 q 1028 -246 1028 -289 q 916 -147 1028 -186 q 606 -97 804 -108 l 656 0 "},"Ț":{"ha":1224,"x_min":40,"x_max":1183,"o":"m 492 769 l 492 0 l 731 0 l 731 769 l 1183 769 l 1183 972 l 40 972 l 40 769 l 492 769 m 506 -111 l 418 -486 l 554 -486 l 711 -111 l 506 -111 "},"U":{"ha":1274,"x_min":117,"x_max":1157,"o":"m 636 -22 q 918 26 804 -22 q 1094 193 1032 75 q 1157 511 1157 311 l 1157 972 l 918 972 l 918 469 q 847 258 918 329 q 636 188 775 188 q 426 258 497 188 q 356 469 356 329 l 356 972 l 117 972 l 117 511 q 178 192 117 310 q 354 26 240 75 q 636 -22 468 -22 "},"Ú":{"ha":1274,"x_min":117,"x_max":1157,"o":"m 636 -22 q 918 26 804 -22 q 1094 193 1032 75 q 1157 511 1157 311 l 1157 972 l 918 972 l 918 469 q 847 258 918 329 q 636 188 775 188 q 426 258 497 188 q 356 469 356 329 l 356 972 l 117 972 l 117 511 q 178 192 117 310 q 354 26 240 75 q 636 -22 468 -22 m 603 1179 l 603 1033 l 1001 1226 l 1001 1403 l 603 1179 "},"Û":{"ha":1274,"x_min":117,"x_max":1157,"o":"m 636 -22 q 918 26 804 -22 q 1094 193 1032 75 q 1157 511 1157 311 l 1157 972 l 918 972 l 918 469 q 847 258 918 329 q 636 188 775 188 q 426 258 497 188 q 356 469 356 329 l 356 972 l 117 972 l 117 511 q 178 192 117 310 q 354 26 240 75 q 636 -22 468 -22 m 1035 1160 l 636 1418 l 238 1160 l 238 1049 l 636 1276 l 1035 1049 l 1035 1160 "},"Ü":{"ha":1274,"x_min":117,"x_max":1157,"o":"m 636 -22 q 918 26 804 -22 q 1094 193 1032 75 q 1157 511 1157 311 l 1157 972 l 918 972 l 918 469 q 847 258 918 329 q 636 188 775 188 q 426 258 497 188 q 356 469 356 329 l 356 972 l 117 972 l 117 511 q 178 192 117 310 q 354 26 240 75 q 636 -22 468 -22 m 440 1025 q 542 1057 506 1025 q 578 1143 578 1089 q 542 1229 578 1197 q 440 1261 506 1261 q 341 1228 379 1261 q 303 1143 303 1196 q 341 1058 303 1090 q 440 1025 379 1025 m 843 1025 q 944 1057 908 1025 q 981 1143 981 1089 q 944 1229 981 1197 q 843 1261 908 1261 q 744 1228 782 1261 q 706 1143 706 1196 q 744 1058 706 1090 q 843 1025 782 1025 "},"Ù":{"ha":1274,"x_min":117,"x_max":1157,"o":"m 636 -22 q 918 26 804 -22 q 1094 193 1032 75 q 1157 511 1157 311 l 1157 972 l 918 972 l 918 469 q 847 258 918 329 q 636 188 775 188 q 426 258 497 188 q 356 469 356 329 l 356 972 l 117 972 l 117 511 q 178 192 117 310 q 354 26 240 75 q 636 -22 468 -22 m 246 1226 l 644 1033 l 644 1179 l 246 1403 l 246 1226 "},"Ű":{"ha":1274,"x_min":117,"x_max":1193,"o":"m 636 -22 q 918 26 804 -22 q 1094 193 1032 75 q 1157 511 1157 311 l 1157 972 l 918 972 l 918 469 q 847 258 918 329 q 636 188 775 188 q 426 258 497 188 q 356 469 356 329 l 356 972 l 117 972 l 117 511 q 178 192 117 310 q 354 26 240 75 q 636 -22 468 -22 m 447 1144 l 447 1033 l 846 1261 l 846 1403 l 447 1144 m 794 1144 l 794 1033 l 1193 1261 l 1193 1403 l 794 1144 "},"Ū":{"ha":1274,"x_min":117,"x_max":1157,"o":"m 636 -22 q 918 26 804 -22 q 1094 193 1032 75 q 1157 511 1157 311 l 1157 972 l 918 972 l 918 469 q 847 258 918 329 q 636 188 775 188 q 426 258 497 188 q 356 469 356 329 l 356 972 l 117 972 l 117 511 q 178 192 117 310 q 354 26 240 75 q 636 -22 468 -22 m 267 1250 l 267 1175 l 1006 1175 l 1006 1250 l 267 1250 "},"Ų":{"ha":1274,"x_min":117,"x_max":1157,"o":"m 1157 972 l 918 972 l 918 469 q 847 258 918 329 q 636 188 775 188 q 426 258 497 188 q 356 469 356 329 l 356 972 l 117 972 l 117 511 q 233 114 117 235 q 574 -21 349 -7 q 535 -129 535 -78 q 577 -229 535 -186 q 690 -296 619 -272 q 842 -319 760 -319 q 996 -297 924 -319 l 1000 -162 q 883 -175 942 -175 q 747 -149 801 -175 q 693 -78 693 -122 q 717 -19 693 -51 q 1045 119 933 -3 q 1157 511 1157 240 l 1157 972 "},"Ů":{"ha":1274,"x_min":117,"x_max":1157,"o":"m 636 -22 q 918 26 804 -22 q 1094 193 1032 75 q 1157 511 1157 311 l 1157 972 l 918 972 l 918 469 q 847 258 918 329 q 636 188 775 188 q 426 258 497 188 q 356 469 356 329 l 356 972 l 117 972 l 117 511 q 178 192 117 310 q 354 26 240 75 q 636 -22 468 -22 "},"V":{"ha":1479,"x_min":40,"x_max":1439,"o":"m 1439 972 l 1154 972 l 740 174 l 325 972 l 40 972 l 568 0 l 911 0 l 1439 972 "},"W":{"ha":1769,"x_min":50,"x_max":1718,"o":"m 50 972 l 410 0 l 689 0 l 885 585 l 1081 0 l 1358 0 l 1718 972 l 1453 972 l 1222 325 l 1013 972 l 757 972 l 547 325 l 317 972 l 50 972 "},"Ẃ":{"ha":1769,"x_min":50,"x_max":1718,"o":"m 50 972 l 410 0 l 689 0 l 885 585 l 1081 0 l 1358 0 l 1718 972 l 1453 972 l 1222 325 l 1013 972 l 757 972 l 547 325 l 317 972 l 50 972 m 851 1179 l 851 1033 l 1250 1226 l 1250 1403 l 851 1179 "},"Ŵ":{"ha":1769,"x_min":50,"x_max":1718,"o":"m 50 972 l 410 0 l 689 0 l 885 585 l 1081 0 l 1358 0 l 1718 972 l 1453 972 l 1222 325 l 1013 972 l 757 972 l 547 325 l 317 972 l 50 972 m 1283 1160 l 885 1418 l 486 1160 l 486 1049 l 885 1276 l 1283 1049 l 1283 1160 "},"Ẅ":{"ha":1769,"x_min":50,"x_max":1718,"o":"m 50 972 l 410 0 l 689 0 l 885 585 l 1081 0 l 1358 0 l 1718 972 l 1453 972 l 1222 325 l 1013 972 l 757 972 l 547 325 l 317 972 l 50 972 m 689 1025 q 790 1057 754 1025 q 826 1143 826 1089 q 790 1229 826 1197 q 689 1261 754 1261 q 590 1228 628 1261 q 551 1143 551 1196 q 590 1058 551 1090 q 689 1025 628 1025 m 1092 1025 q 1193 1057 1157 1025 q 1229 1143 1229 1089 q 1193 1229 1229 1197 q 1092 1261 1157 1261 q 992 1228 1031 1261 q 954 1143 954 1196 q 992 1058 954 1090 q 1092 1025 1031 1025 "},"Ẁ":{"ha":1769,"x_min":50,"x_max":1718,"o":"m 50 972 l 410 0 l 689 0 l 885 585 l 1081 0 l 1358 0 l 1718 972 l 1453 972 l 1222 325 l 1013 972 l 757 972 l 547 325 l 317 972 l 50 972 m 494 1226 l 893 1033 l 893 1179 l 494 1403 l 494 1226 "},"X":{"ha":1310,"x_min":53,"x_max":1257,"o":"m 490 490 l 53 0 l 371 0 l 650 310 l 929 0 l 1247 0 l 818 482 l 1257 972 l 935 972 l 657 664 l 379 972 l 57 972 l 490 490 "},"Y":{"ha":1393,"x_min":35,"x_max":1358,"o":"m 576 314 l 576 0 l 815 0 l 815 315 l 1358 972 l 1064 972 l 696 514 l 329 972 l 35 972 l 576 314 "},"Ý":{"ha":1393,"x_min":35,"x_max":1358,"o":"m 576 314 l 576 0 l 815 0 l 815 315 l 1358 972 l 1064 972 l 696 514 l 329 972 l 35 972 l 576 314 m 663 1179 l 663 1033 l 1061 1226 l 1061 1403 l 663 1179 "},"Ŷ":{"ha":1393,"x_min":35,"x_max":1358,"o":"m 576 314 l 576 0 l 815 0 l 815 315 l 1358 972 l 1064 972 l 696 514 l 329 972 l 35 972 l 576 314 m 1094 1160 l 696 1418 l 297 1160 l 297 1049 l 696 1276 l 1094 1049 l 1094 1160 "},"Ÿ":{"ha":1393,"x_min":35,"x_max":1358,"o":"m 576 314 l 576 0 l 815 0 l 815 315 l 1358 972 l 1064 972 l 696 514 l 329 972 l 35 972 l 576 314 m 500 1025 q 601 1057 565 1025 q 638 1143 638 1089 q 601 1229 638 1197 q 500 1261 565 1261 q 401 1228 439 1261 q 363 1143 363 1196 q 401 1058 363 1090 q 500 1025 439 1025 m 903 1025 q 1004 1057 968 1025 q 1040 1143 1040 1089 q 1004 1229 1040 1197 q 903 1261 968 1261 q 803 1228 842 1261 q 765 1143 765 1196 q 803 1058 765 1090 q 903 1025 842 1025 "},"Ỳ":{"ha":1393,"x_min":35,"x_max":1358,"o":"m 576 314 l 576 0 l 815 0 l 815 315 l 1358 972 l 1064 972 l 696 514 l 329 972 l 35 972 l 576 314 m 306 1226 l 704 1033 l 704 1179 l 306 1403 l 306 1226 "},"Z":{"ha":1253,"x_min":54,"x_max":1199,"o":"m 54 153 l 54 0 l 1199 0 l 1199 203 l 454 203 l 1185 824 l 1185 972 l 65 972 l 65 769 l 788 769 l 54 153 "},"Ź":{"ha":1253,"x_min":54,"x_max":1199,"o":"m 54 153 l 54 0 l 1199 0 l 1199 203 l 454 203 l 1185 824 l 1185 972 l 65 972 l 65 769 l 788 769 l 54 153 "},"Ž":{"ha":1253,"x_min":54,"x_max":1199,"o":"m 54 153 l 54 0 l 1199 0 l 1199 203 l 454 203 l 1185 824 l 1185 972 l 65 972 l 65 769 l 788 769 l 54 153 m 1003 1418 l 604 1190 l 206 1418 l 206 1307 l 604 1049 l 1003 1307 l 1003 1418 "},"Ż":{"ha":1253,"x_min":54,"x_max":1199,"o":"m 54 153 l 54 0 l 1199 0 l 1199 203 l 454 203 l 1185 824 l 1185 972 l 65 972 l 65 769 l 788 769 l 54 153 "},"a":{"ha":954,"x_min":58,"x_max":886,"o":"m 317 -22 q 558 39 474 -22 q 675 235 642 100 l 688 235 l 657 0 l 886 0 l 886 392 q 539 717 886 717 q 343 696 450 717 q 146 642 236 675 l 146 443 q 313 496 219 475 q 483 517 406 517 q 606 491 565 517 q 647 410 647 465 q 217 337 376 390 q 58 161 58 283 q 135 16 58 54 q 317 -22 213 -22 m 422 142 q 338 158 369 142 q 306 204 306 175 q 394 275 306 256 q 646 306 483 294 q 580 184 647 226 q 422 142 513 142 "},"á":{"ha":954,"x_min":58,"x_max":889,"o":"m 317 -22 q 558 39 474 -22 q 675 235 642 100 l 688 235 l 657 0 l 886 0 l 886 392 q 539 717 886 717 q 343 696 450 717 q 146 642 236 675 l 146 443 q 313 496 219 475 q 483 517 406 517 q 606 491 565 517 q 647 410 647 465 q 217 337 376 390 q 58 161 58 283 q 135 16 58 54 q 317 -22 213 -22 m 422 142 q 338 158 369 142 q 306 204 306 175 q 394 275 306 256 q 646 306 483 294 q 580 184 647 226 q 422 142 513 142 m 490 901 l 490 756 l 889 949 l 889 1125 l 490 901 "},"ă":{"ha":954,"x_min":58,"x_max":886,"o":"m 317 -22 q 558 39 474 -22 q 675 235 642 100 l 688 235 l 657 0 l 886 0 l 886 392 q 539 717 886 717 q 343 696 450 717 q 146 642 236 675 l 146 443 q 313 496 219 475 q 483 517 406 517 q 606 491 565 517 q 647 410 647 465 q 217 337 376 390 q 58 161 58 283 q 135 16 58 54 q 317 -22 213 -22 m 422 142 q 338 158 369 142 q 306 204 306 175 q 394 275 306 256 q 646 306 483 294 q 580 184 647 226 q 422 142 513 142 m 524 765 q 741 821 664 765 q 819 972 818 876 l 676 972 q 632 888 672 917 q 524 860 592 860 q 416 888 457 860 q 374 972 375 917 l 228 972 q 267 864 228 911 q 372 791 306 817 q 524 765 439 765 "},"â":{"ha":954,"x_min":58,"x_max":922,"o":"m 317 -22 q 558 39 474 -22 q 675 235 642 100 l 688 235 l 657 0 l 886 0 l 886 392 q 539 717 886 717 q 343 696 450 717 q 146 642 236 675 l 146 443 q 313 496 219 475 q 483 517 406 517 q 606 491 565 517 q 647 410 647 465 q 217 337 376 390 q 58 161 58 283 q 135 16 58 54 q 317 -22 213 -22 m 422 142 q 338 158 369 142 q 306 204 306 175 q 394 275 306 256 q 646 306 483 294 q 580 184 647 226 q 422 142 513 142 m 922 882 l 524 1140 l 125 882 l 125 771 l 524 999 l 922 771 l 922 882 "},"ä":{"ha":954,"x_min":58,"x_max":886,"o":"m 317 -22 q 558 39 474 -22 q 675 235 642 100 l 688 235 l 657 0 l 886 0 l 886 392 q 539 717 886 717 q 343 696 450 717 q 146 642 236 675 l 146 443 q 313 496 219 475 q 483 517 406 517 q 606 491 565 517 q 647 410 647 465 q 217 337 376 390 q 58 161 58 283 q 135 16 58 54 q 317 -22 213 -22 m 422 142 q 338 158 369 142 q 306 204 306 175 q 394 275 306 256 q 646 306 483 294 q 580 184 647 226 q 422 142 513 142 m 328 747 q 429 779 393 747 q 465 865 465 811 q 429 951 465 919 q 328 983 393 983 q 228 951 267 983 q 190 865 190 918 q 228 780 190 813 q 328 747 267 747 m 731 747 q 832 779 796 747 q 868 865 868 811 q 832 951 868 919 q 731 983 796 983 q 631 951 669 983 q 593 865 593 918 q 631 780 593 813 q 731 747 669 747 "},"à":{"ha":954,"x_min":58,"x_max":886,"o":"m 317 -22 q 558 39 474 -22 q 675 235 642 100 l 688 235 l 657 0 l 886 0 l 886 392 q 539 717 886 717 q 343 696 450 717 q 146 642 236 675 l 146 443 q 313 496 219 475 q 483 517 406 517 q 606 491 565 517 q 647 410 647 465 q 217 337 376 390 q 58 161 58 283 q 135 16 58 54 q 317 -22 213 -22 m 422 142 q 338 158 369 142 q 306 204 306 175 q 394 275 306 256 q 646 306 483 294 q 580 184 647 226 q 422 142 513 142 m 133 949 l 532 756 l 532 901 l 133 1125 l 133 949 "},"ā":{"ha":954,"x_min":58,"x_max":893,"o":"m 317 -22 q 558 39 474 -22 q 675 235 642 100 l 688 235 l 657 0 l 886 0 l 886 392 q 539 717 886 717 q 343 696 450 717 q 146 642 236 675 l 146 443 q 313 496 219 475 q 483 517 406 517 q 606 491 565 517 q 647 410 647 465 q 217 337 376 390 q 58 161 58 283 q 135 16 58 54 q 317 -22 213 -22 m 422 142 q 338 158 369 142 q 306 204 306 175 q 394 275 306 256 q 646 306 483 294 q 580 184 647 226 q 422 142 513 142 m 154 972 l 154 897 l 893 897 l 893 972 l 154 972 "},"ą":{"ha":954,"x_min":58,"x_max":1044,"o":"m 928 -175 q 791 -149 846 -175 q 736 -78 736 -122 q 778 0 736 -42 l 886 0 l 886 392 q 539 717 886 717 q 343 696 450 717 q 146 642 236 675 l 146 443 q 313 496 219 475 q 483 517 406 517 q 606 491 565 517 q 647 410 647 465 q 217 337 376 390 q 58 161 58 283 q 135 16 58 54 q 317 -22 213 -22 q 558 39 474 -22 q 675 235 642 100 l 688 235 l 661 35 q 579 -129 579 -51 q 622 -229 579 -186 q 734 -296 664 -272 q 886 -319 804 -319 q 1040 -297 968 -319 l 1044 -162 q 928 -175 986 -175 m 422 142 q 338 158 369 142 q 306 204 306 175 q 394 275 306 256 q 646 306 483 294 q 580 184 647 226 q 422 142 513 142 "},"å":{"ha":954,"x_min":58,"x_max":886,"o":"m 317 -22 q 558 39 474 -22 q 675 235 642 100 l 688 235 l 657 0 l 886 0 l 886 392 q 539 717 886 717 q 343 696 450 717 q 146 642 236 675 l 146 443 q 313 496 219 475 q 483 517 406 517 q 606 491 565 517 q 647 410 647 465 q 217 337 376 390 q 58 161 58 283 q 135 16 58 54 q 317 -22 213 -22 m 422 142 q 338 158 369 142 q 306 204 306 175 q 394 275 306 256 q 646 306 483 294 q 580 184 647 226 q 422 142 513 142 m 524 747 q 706 765 626 747 q 831 815 786 783 q 875 890 875 847 q 831 965 875 933 q 706 1015 786 997 q 524 1033 626 1033 q 349 1015 429 1033 q 220 965 268 997 q 172 890 172 932 q 220 816 172 849 q 349 765 268 783 q 524 747 429 747 m 524 818 q 434 837 468 818 q 400 890 400 856 q 434 944 400 925 q 524 963 468 963 q 616 944 582 963 q 650 889 650 925 q 615 837 650 856 q 524 818 579 818 "},"ã":{"ha":954,"x_min":58,"x_max":886,"o":"m 317 -22 q 558 39 474 -22 q 675 235 642 100 l 688 235 l 657 0 l 886 0 l 886 392 q 539 717 886 717 q 343 696 450 717 q 146 642 236 675 l 146 443 q 313 496 219 475 q 483 517 406 517 q 606 491 565 517 q 647 410 647 465 q 217 337 376 390 q 58 161 58 283 q 135 16 58 54 q 317 -22 213 -22 m 422 142 q 338 158 369 142 q 306 204 306 175 q 394 275 306 256 q 646 306 483 294 q 580 184 647 226 q 422 142 513 142 m 642 794 q 764 844 717 794 q 813 975 811 893 l 729 975 q 705 901 728 925 q 642 876 682 876 q 604 887 621 876 q 561 921 588 897 q 509 963 532 949 q 454 976 486 976 q 332 926 379 976 q 283 796 285 876 l 368 796 q 392 869 369 844 q 454 894 415 894 q 485 885 471 894 q 521 856 500 875 q 577 810 550 826 q 642 794 604 794 "},"æ":{"ha":1547,"x_min":58,"x_max":1489,"o":"m 317 -22 q 558 41 467 -22 q 672 226 650 104 q 815 44 710 110 q 1071 -22 921 -22 q 1281 -7 1201 -22 q 1458 46 1360 8 l 1458 236 l 1426 222 q 1298 176 1358 192 q 1140 160 1238 160 q 966 191 1028 160 q 886 288 904 222 l 1489 288 l 1489 401 q 1435 566 1488 494 q 1288 677 1382 638 q 1071 717 1194 717 q 789 631 899 717 q 539 717 711 717 q 343 696 450 717 q 146 642 236 675 l 146 444 q 311 496 218 475 q 483 517 404 517 q 610 492 571 517 q 650 394 649 468 q 388 376 511 390 q 162 311 265 363 q 58 161 58 260 q 135 16 58 54 q 317 -22 213 -22 m 1260 393 l 881 385 q 938 494 890 460 q 1071 528 986 528 q 1208 496 1160 528 q 1260 393 1256 464 m 422 140 q 338 158 371 140 q 306 204 306 175 q 358 263 306 243 q 472 289 410 283 q 643 299 533 294 q 575 183 640 224 q 422 140 510 142 "},"b":{"ha":1094,"x_min":90,"x_max":1036,"o":"m 667 -22 q 859 24 775 -22 q 990 156 943 71 q 1036 353 1036 242 q 990 542 1036 460 q 863 671 944 625 q 679 717 782 717 q 454 651 550 717 q 335 469 358 585 l 329 469 l 329 972 l 90 972 l 90 0 l 335 0 l 304 226 l 321 226 q 440 47 344 115 q 667 -22 536 -22 m 586 167 q 428 215 493 167 q 363 350 363 264 q 428 481 363 435 q 586 528 493 528 q 743 482 681 528 q 806 350 806 436 q 742 215 806 263 q 586 167 679 167 "},"c":{"ha":885,"x_min":58,"x_max":826,"o":"m 500 -22 q 667 -6 597 -22 q 826 51 736 11 l 826 250 q 690 188 761 208 q 526 167 618 167 q 352 216 415 167 q 289 347 289 265 q 349 478 289 429 q 517 528 408 528 q 680 506 606 528 q 826 442 754 483 l 826 644 q 667 700 740 683 q 501 717 593 717 q 269 671 369 717 q 113 542 168 625 q 58 347 58 458 q 115 153 58 238 q 273 24 172 69 q 500 -22 374 -22 "},"ć":{"ha":885,"x_min":58,"x_max":867,"o":"m 500 -22 q 667 -6 597 -22 q 826 51 736 11 l 826 250 q 690 188 761 208 q 526 167 618 167 q 352 216 415 167 q 289 347 289 265 q 349 478 289 429 q 517 528 408 528 q 680 506 606 528 q 826 442 754 483 l 826 644 q 667 700 740 683 q 501 717 593 717 q 269 671 369 717 q 113 542 168 625 q 58 347 58 458 q 115 153 58 238 q 273 24 172 69 q 500 -22 374 -22 "},"č":{"ha":885,"x_min":58,"x_max":900,"o":"m 500 -22 q 667 -6 597 -22 q 826 51 736 11 l 826 250 q 690 188 761 208 q 526 167 618 167 q 352 216 415 167 q 289 347 289 265 q 349 478 289 429 q 517 528 408 528 q 680 506 606 528 q 826 442 754 483 l 826 644 q 667 700 740 683 q 501 717 593 717 q 269 671 369 717 q 113 542 168 625 q 58 347 58 458 q 115 153 58 238 q 273 24 172 69 q 500 -22 374 -22 m 900 1140 l 501 913 l 103 1140 l 103 1029 l 501 771 l 900 1029 l 900 1140 "},"ç":{"ha":885,"x_min":58,"x_max":933,"o":"m 511 -97 l 550 -21 q 686 0 626 -17 q 826 51 746 17 l 826 250 q 690 188 761 208 q 526 167 618 167 q 352 216 415 167 q 289 347 289 265 q 349 478 289 429 q 517 528 408 528 q 680 506 606 528 q 826 442 754 483 l 826 644 q 667 700 740 683 q 501 717 593 717 q 269 671 369 717 q 113 542 168 625 q 58 347 58 458 q 149 113 58 208 q 388 -12 239 17 l 342 -92 l 342 -165 q 611 -189 526 -168 q 696 -246 696 -210 q 342 -322 696 -321 l 342 -399 q 651 -378 517 -399 q 859 -324 785 -358 q 933 -246 933 -289 q 822 -147 933 -186 q 511 -97 710 -108 "},"ċ":{"ha":885,"x_min":58,"x_max":826,"o":"m 500 -22 q 667 -6 597 -22 q 826 51 736 11 l 826 250 q 690 188 761 208 q 526 167 618 167 q 352 216 415 167 q 289 347 289 265 q 349 478 289 429 q 517 528 408 528 q 680 506 606 528 q 826 442 754 483 l 826 644 q 667 700 740 683 q 501 717 593 717 q 269 671 369 717 q 113 542 168 625 q 58 347 58 458 q 115 153 58 238 q 273 24 172 69 q 500 -22 374 -22 "},"d":{"ha":1094,"x_min":58,"x_max":1004,"o":"m 428 -22 q 654 47 558 -22 q 774 226 750 115 l 790 226 l 760 0 l 1004 0 l 1004 972 l 765 972 l 765 469 l 760 469 q 640 651 736 585 q 415 717 544 717 q 231 671 313 717 q 104 542 150 625 q 58 353 58 460 q 105 156 58 242 q 235 24 151 71 q 428 -22 319 -22 m 508 167 q 352 215 415 167 q 289 350 289 263 q 351 482 289 436 q 508 528 414 528 q 667 481 601 528 q 732 350 732 435 q 667 215 732 264 q 508 167 601 167 "},"ð":{"ha":1153,"x_min":42,"x_max":1121,"o":"m 994 831 l 1121 867 l 1081 992 l 879 933 q 695 1019 799 989 q 476 1049 592 1049 l 471 943 q 675 874 588 938 l 471 815 l 510 689 l 781 768 q 848 635 825 706 q 871 503 871 564 q 869 460 871 474 q 711 588 807 536 q 485 639 615 639 q 153 549 264 639 q 42 308 42 458 q 101 137 42 210 q 276 24 161 64 q 550 -17 390 -17 q 961 114 813 -17 q 1110 503 1110 244 q 1080 679 1110 596 q 994 831 1050 763 m 563 181 q 360 220 438 181 q 282 329 282 260 q 345 439 282 399 q 519 479 408 479 q 701 447 608 479 q 853 368 794 415 q 751 229 824 278 q 563 181 679 181 "},"ď":{"ha":1388,"x_min":58,"x_max":1346,"o":"m 428 -22 q 654 47 558 -22 q 774 226 750 115 l 790 226 l 760 0 l 1004 0 l 1004 972 l 765 972 l 765 469 l 760 469 q 640 651 736 585 q 415 717 544 717 q 231 671 313 717 q 104 542 150 625 q 58 353 58 460 q 105 156 58 242 q 235 24 151 71 q 428 -22 319 -22 m 508 167 q 352 215 415 167 q 289 350 289 263 q 351 482 289 436 q 508 528 414 528 q 667 481 601 528 q 732 350 732 435 q 667 215 732 264 q 508 167 601 167 m 1140 971 l 1053 596 l 1189 596 l 1346 971 l 1140 971 "},"đ":{"ha":1097,"x_min":58,"x_max":1069,"o":"m 1069 744 l 1069 888 l 1004 888 l 1004 972 l 765 972 l 765 888 l 433 888 l 433 744 l 765 744 l 765 469 l 760 469 q 640 651 736 585 q 415 717 544 717 q 231 671 313 717 q 104 542 150 625 q 58 353 58 460 q 105 156 58 242 q 235 24 151 71 q 428 -22 319 -22 q 654 47 558 -22 q 774 226 750 115 l 790 226 l 760 0 l 1004 0 l 1004 744 l 1069 744 m 508 167 q 352 215 415 167 q 289 350 289 263 q 351 482 289 436 q 508 528 414 528 q 667 481 601 528 q 732 350 732 435 q 667 215 732 264 q 508 167 601 167 "},"e":{"ha":953,"x_min":58,"x_max":894,"o":"m 476 -22 q 686 -7 607 -22 q 864 46 765 8 l 864 236 l 832 222 q 703 176 764 192 q 546 160 643 160 q 373 191 433 160 q 296 288 313 222 l 894 288 l 894 401 q 840 566 893 494 q 694 677 788 638 q 476 717 600 717 q 257 671 351 717 q 110 541 163 625 q 58 347 58 457 q 110 153 58 238 q 257 24 163 69 q 476 -22 351 -22 m 665 393 l 290 385 q 351 490 300 451 q 476 528 401 528 q 610 492 558 528 q 665 393 661 457 "},"é":{"ha":953,"x_min":58,"x_max":894,"o":"m 476 -22 q 686 -7 607 -22 q 864 46 765 8 l 864 236 l 832 222 q 703 176 764 192 q 546 160 643 160 q 373 191 433 160 q 296 288 313 222 l 894 288 l 894 401 q 840 566 893 494 q 694 677 788 638 q 476 717 600 717 q 257 671 351 717 q 110 541 163 625 q 58 347 58 457 q 110 153 58 238 q 257 24 163 69 q 476 -22 351 -22 m 665 393 l 290 385 q 351 490 300 451 q 476 528 401 528 q 610 492 558 528 q 665 393 661 457 m 443 901 l 443 756 l 842 949 l 842 1125 l 443 901 "},"ě":{"ha":953,"x_min":58,"x_max":894,"o":"m 476 -22 q 686 -7 607 -22 q 864 46 765 8 l 864 236 l 832 222 q 703 176 764 192 q 546 160 643 160 q 373 191 433 160 q 296 288 313 222 l 894 288 l 894 401 q 840 566 893 494 q 694 677 788 638 q 476 717 600 717 q 257 671 351 717 q 110 541 163 625 q 58 347 58 457 q 110 153 58 238 q 257 24 163 69 q 476 -22 351 -22 m 665 393 l 290 385 q 351 490 300 451 q 476 528 401 528 q 610 492 558 528 q 665 393 661 457 m 875 1140 l 476 913 l 78 1140 l 78 1029 l 476 771 l 875 1029 l 875 1140 "},"ê":{"ha":953,"x_min":58,"x_max":894,"o":"m 476 -22 q 686 -7 607 -22 q 864 46 765 8 l 864 236 l 832 222 q 703 176 764 192 q 546 160 643 160 q 373 191 433 160 q 296 288 313 222 l 894 288 l 894 401 q 840 566 893 494 q 694 677 788 638 q 476 717 600 717 q 257 671 351 717 q 110 541 163 625 q 58 347 58 457 q 110 153 58 238 q 257 24 163 69 q 476 -22 351 -22 m 665 393 l 290 385 q 351 490 300 451 q 476 528 401 528 q 610 492 558 528 q 665 393 661 457 m 875 882 l 476 1140 l 78 882 l 78 771 l 476 999 l 875 771 l 875 882 "},"ë":{"ha":953,"x_min":58,"x_max":894,"o":"m 476 -22 q 686 -7 607 -22 q 864 46 765 8 l 864 236 l 832 222 q 703 176 764 192 q 546 160 643 160 q 373 191 433 160 q 296 288 313 222 l 894 288 l 894 401 q 840 566 893 494 q 694 677 788 638 q 476 717 600 717 q 257 671 351 717 q 110 541 163 625 q 58 347 58 457 q 110 153 58 238 q 257 24 163 69 q 476 -22 351 -22 m 665 393 l 290 385 q 351 490 300 451 q 476 528 401 528 q 610 492 558 528 q 665 393 661 457 m 281 747 q 382 779 346 747 q 418 865 418 811 q 382 951 418 919 q 281 983 346 983 q 181 951 219 983 q 143 865 143 918 q 181 780 143 813 q 281 747 219 747 m 683 747 q 785 779 749 747 q 821 865 821 811 q 785 951 821 919 q 683 983 749 983 q 584 951 622 983 q 546 865 546 918 q 584 780 546 813 q 683 747 622 747 "},"ė":{"ha":953,"x_min":58,"x_max":894,"o":"m 476 -22 q 686 -7 607 -22 q 864 46 765 8 l 864 236 l 832 222 q 703 176 764 192 q 546 160 643 160 q 373 191 433 160 q 296 288 313 222 l 894 288 l 894 401 q 840 566 893 494 q 694 677 788 638 q 476 717 600 717 q 257 671 351 717 q 110 541 163 625 q 58 347 58 457 q 110 153 58 238 q 257 24 163 69 q 476 -22 351 -22 m 665 393 l 290 385 q 351 490 300 451 q 476 528 401 528 q 610 492 558 528 q 665 393 661 457 "},"è":{"ha":953,"x_min":58,"x_max":894,"o":"m 476 -22 q 686 -7 607 -22 q 864 46 765 8 l 864 236 l 832 222 q 703 176 764 192 q 546 160 643 160 q 373 191 433 160 q 296 288 313 222 l 894 288 l 894 401 q 840 566 893 494 q 694 677 788 638 q 476 717 600 717 q 257 671 351 717 q 110 541 163 625 q 58 347 58 457 q 110 153 58 238 q 257 24 163 69 q 476 -22 351 -22 m 665 393 l 290 385 q 351 490 300 451 q 476 528 401 528 q 610 492 558 528 q 665 393 661 457 m 108 949 l 507 756 l 507 901 l 108 1125 l 108 949 "},"ē":{"ha":953,"x_min":58,"x_max":894,"o":"m 476 -22 q 686 -7 607 -22 q 864 46 765 8 l 864 236 l 832 222 q 703 176 764 192 q 546 160 643 160 q 373 191 433 160 q 296 288 313 222 l 894 288 l 894 401 q 840 566 893 494 q 694 677 788 638 q 476 717 600 717 q 257 671 351 717 q 110 541 163 625 q 58 347 58 457 q 110 153 58 238 q 257 24 163 69 q 476 -22 351 -22 m 665 393 l 290 385 q 351 490 300 451 q 476 528 401 528 q 610 492 558 528 q 665 393 661 457 m 107 972 l 107 897 l 846 897 l 846 972 l 107 972 "},"ę":{"ha":953,"x_min":58,"x_max":894,"o":"m 894 288 l 894 401 q 840 566 893 494 q 694 677 788 638 q 476 717 600 717 q 257 671 351 717 q 110 541 163 625 q 58 347 58 457 q 151 101 58 199 q 400 -18 243 3 q 360 -129 360 -76 q 402 -229 360 -186 q 515 -296 444 -272 q 667 -319 585 -319 q 821 -297 749 -319 l 825 -162 q 708 -175 767 -175 q 572 -149 626 -175 q 518 -78 518 -122 q 540 -21 518 -51 q 708 -3 640 -18 q 864 46 776 13 l 864 236 l 832 222 q 703 176 764 192 q 546 160 643 160 q 373 191 433 160 q 296 288 313 222 l 894 288 m 665 393 l 290 385 q 351 490 300 451 q 476 528 401 528 q 610 492 558 528 q 665 393 661 457 "},"f":{"ha":589,"x_min":53,"x_max":539,"o":"m 136 521 l 136 0 l 375 0 l 375 529 l 539 529 l 539 694 l 375 694 q 382 777 375 751 q 413 814 389 803 q 492 825 438 825 l 539 824 l 539 963 q 433 980 474 975 q 353 985 393 985 q 220 959 267 985 q 155 877 174 933 q 136 722 136 821 l 136 694 l 53 694 l 53 521 l 136 521 "},"g":{"ha":1090,"x_min":72,"x_max":1011,"o":"m 549 -278 q 887 -188 763 -278 q 1011 83 1011 -99 l 1011 694 l 775 694 l 796 469 l 774 469 q 654 651 750 585 q 429 717 558 717 q 245 671 326 717 q 118 542 164 625 q 72 353 72 460 q 119 161 72 242 q 249 38 165 81 q 442 -6 332 -6 q 662 49 569 -6 q 782 206 754 104 l 781 154 q 749 11 775 64 q 666 -65 724 -42 q 508 -89 608 -89 q 312 -70 404 -89 q 175 -25 219 -51 l 175 -228 q 549 -278 353 -278 m 522 167 q 366 215 429 167 q 303 350 303 263 q 365 482 303 436 q 522 528 428 528 q 681 481 615 528 q 746 350 746 435 q 680 215 746 264 q 522 167 614 167 "},"ğ":{"ha":1090,"x_min":72,"x_max":1011,"o":"m 549 -278 q 887 -188 763 -278 q 1011 83 1011 -99 l 1011 694 l 775 694 l 796 469 l 774 469 q 654 651 750 585 q 429 717 558 717 q 245 671 326 717 q 118 542 164 625 q 72 353 72 460 q 119 161 72 242 q 249 38 165 81 q 442 -6 332 -6 q 662 49 569 -6 q 782 206 754 104 l 781 154 q 749 11 775 64 q 666 -65 724 -42 q 508 -89 608 -89 q 312 -70 404 -89 q 175 -25 219 -51 l 175 -228 q 549 -278 353 -278 m 522 167 q 366 215 429 167 q 303 350 303 263 q 365 482 303 436 q 522 528 428 528 q 681 481 615 528 q 746 350 746 435 q 680 215 746 264 q 522 167 614 167 "},"ģ":{"ha":1090,"x_min":72,"x_max":1011,"o":"m 549 -278 q 887 -188 763 -278 q 1011 83 1011 -99 l 1011 694 l 775 694 l 796 469 l 774 469 q 654 651 750 585 q 429 717 558 717 q 245 671 326 717 q 118 542 164 625 q 72 353 72 460 q 119 161 72 242 q 249 38 165 81 q 442 -6 332 -6 q 662 49 569 -6 q 782 206 754 104 l 781 154 q 749 11 775 64 q 666 -65 724 -42 q 508 -89 608 -89 q 312 -70 404 -89 q 175 -25 219 -51 l 175 -228 q 549 -278 353 -278 m 522 167 q 366 215 429 167 q 303 350 303 263 q 365 482 303 436 q 522 528 428 528 q 681 481 615 528 q 746 350 746 435 q 680 215 746 264 q 522 167 614 167 m 429 -364 l 342 -739 l 478 -739 l 635 -364 l 429 -364 "},"ġ":{"ha":1090,"x_min":72,"x_max":1011,"o":"m 549 -278 q 887 -188 763 -278 q 1011 83 1011 -99 l 1011 694 l 775 694 l 796 469 l 774 469 q 654 651 750 585 q 429 717 558 717 q 245 671 326 717 q 118 542 164 625 q 72 353 72 460 q 119 161 72 242 q 249 38 165 81 q 442 -6 332 -6 q 662 49 569 -6 q 782 206 754 104 l 781 154 q 749 11 775 64 q 666 -65 724 -42 q 508 -89 608 -89 q 312 -70 404 -89 q 175 -25 219 -51 l 175 -228 q 549 -278 353 -278 m 522 167 q 366 215 429 167 q 303 350 303 263 q 365 482 303 436 q 522 528 428 528 q 681 481 615 528 q 746 350 746 435 q 680 215 746 264 q 522 167 614 167 "},"h":{"ha":1019,"x_min":81,"x_max":953,"o":"m 81 972 l 81 0 l 319 0 l 319 213 q 347 381 319 307 q 424 497 374 456 q 538 538 474 538 q 640 513 601 538 q 696 433 678 489 q 714 278 714 376 l 714 0 l 953 0 l 953 301 q 923 551 953 461 q 832 678 893 640 q 668 717 771 715 q 429 641 511 717 q 322 408 347 565 l 311 408 l 339 972 l 81 972 "},"ħ":{"ha":1019,"x_min":21,"x_max":953,"o":"m 668 717 q 429 641 511 717 q 322 408 347 565 l 311 408 l 328 744 l 657 744 l 657 888 l 335 888 l 339 972 l 81 972 l 81 888 l 21 888 l 21 744 l 81 744 l 81 0 l 319 0 l 319 213 q 347 381 319 307 q 424 497 374 456 q 538 538 474 538 q 640 513 601 538 q 696 433 678 489 q 714 278 714 376 l 714 0 l 953 0 l 953 301 q 923 551 953 461 q 832 678 893 640 q 668 717 771 715 "},"i":{"ha":411,"x_min":63,"x_max":349,"o":"m 204 783 q 313 813 276 783 q 349 910 349 843 q 204 1038 349 1038 q 63 910 63 1038 q 99 814 63 844 q 204 783 135 783 m 88 694 l 88 0 l 326 0 l 326 694 l 88 694 "},"ı":{"ha":347,"x_min":54,"x_max":293,"o":"m 54 694 l 54 0 l 293 0 l 293 694 l 54 694 "},"í":{"ha":347,"x_min":54,"x_max":540,"o":"m 54 694 l 54 0 l 293 0 l 293 694 l 54 694 m 142 901 l 142 756 l 540 949 l 540 1125 l 142 901 "},"î":{"ha":347,"x_min":-224,"x_max":574,"o":"m 54 694 l 54 0 l 293 0 l 293 694 l 54 694 "},"ï":{"ha":347,"x_min":-158,"x_max":519,"o":"m 54 694 l 54 0 l 293 0 l 293 694 l 54 694 "},"ì":{"ha":347,"x_min":-215,"x_max":293,"o":"m 54 694 l 54 0 l 293 0 l 293 694 l 54 694 "},"ī":{"ha":347,"x_min":-194,"x_max":544,"o":"m 54 694 l 54 0 l 293 0 l 293 694 l 54 694 "},"į":{"ha":411,"x_min":13,"x_max":479,"o":"m 204 783 q 313 813 276 783 q 349 910 349 843 q 204 1038 349 1038 q 63 910 63 1038 q 99 814 63 844 q 204 783 135 783 m 363 -175 q 225 -149 279 -175 q 171 -78 171 -122 q 211 0 171 -42 l 326 0 l 326 694 l 88 694 l 88 25 q 13 -129 13 -58 q 55 -229 13 -186 q 167 -296 97 -272 q 319 -319 238 -319 q 475 -297 403 -319 l 479 -162 q 363 -175 421 -175 "},"j":{"ha":433,"x_min":-44,"x_max":357,"o":"m 213 783 q 321 813 285 783 q 357 910 357 843 q 213 1038 357 1038 q 71 910 71 1038 q 107 814 71 844 q 213 783 143 783 m -44 -140 l -44 -278 q 231 -208 129 -278 q 333 -14 333 -137 l 333 694 l 94 694 l 94 -25 q 58 -108 94 -76 q -44 -140 22 -140 "},"k":{"ha":1008,"x_min":81,"x_max":965,"o":"m 81 972 l 81 0 l 319 0 l 319 161 l 493 306 l 669 0 l 965 0 l 675 463 l 947 694 l 614 694 l 319 425 l 319 972 l 81 972 "},"ķ":{"ha":1008,"x_min":81,"x_max":965,"o":"m 81 972 l 81 0 l 319 0 l 319 161 l 493 306 l 669 0 l 965 0 l 675 463 l 947 694 l 614 694 l 319 425 l 319 972 l 81 972 m 386 -111 l 299 -486 l 435 -486 l 592 -111 l 386 -111 "},"l":{"ha":419,"x_min":90,"x_max":329,"o":"m 90 972 l 90 0 l 329 0 l 329 972 l 90 972 "},"ĺ":{"ha":419,"x_min":90,"x_max":576,"o":"m 90 972 l 90 0 l 329 0 l 329 972 l 90 972 m 178 1179 l 178 1033 l 576 1226 l 576 1403 l 178 1179 "},"ľ":{"ha":675,"x_min":90,"x_max":646,"o":"m 90 972 l 90 0 l 329 0 l 329 972 l 90 972 m 440 971 l 353 596 l 489 596 l 646 971 l 440 971 "},"ļ":{"ha":399,"x_min":10,"x_max":329,"o":"m 90 972 l 90 0 l 329 0 l 329 972 l 90 972 m 97 -111 l 10 -486 l 146 -486 l 303 -111 l 97 -111 "},"ł":{"ha":746,"x_min":11,"x_max":735,"o":"m 496 586 l 735 724 l 657 860 l 496 767 l 496 972 l 257 972 l 257 631 l 11 489 l 88 351 l 257 449 l 257 0 l 496 0 l 496 586 "},"m":{"ha":1653,"x_min":81,"x_max":1586,"o":"m 81 694 l 81 0 l 319 0 l 319 213 q 347 381 319 307 q 424 497 374 456 q 538 538 474 538 q 640 513 601 538 q 696 433 678 489 q 714 278 714 376 l 714 0 l 953 0 l 953 213 q 980 381 953 307 q 1057 497 1007 456 q 1171 538 1107 538 q 1273 513 1235 538 q 1329 433 1311 489 q 1347 278 1347 376 l 1347 0 l 1586 0 l 1586 301 q 1556 551 1586 461 q 1465 678 1526 640 q 1301 717 1404 715 q 1063 641 1144 717 q 956 408 981 565 l 944 408 q 903 592 935 525 q 814 687 871 658 q 668 717 757 715 q 429 641 511 717 q 322 408 347 565 l 311 408 l 339 694 l 81 694 "},"n":{"ha":1019,"x_min":81,"x_max":953,"o":"m 81 694 l 81 0 l 319 0 l 319 213 q 347 381 319 307 q 424 497 374 456 q 538 538 474 538 q 640 513 601 538 q 696 433 678 489 q 714 278 714 376 l 714 0 l 953 0 l 953 301 q 923 551 953 461 q 832 678 893 640 q 668 717 771 715 q 429 641 511 717 q 322 408 347 565 l 311 408 l 339 694 l 81 694 "},"ń":{"ha":1019,"x_min":81,"x_max":953,"o":"m 81 694 l 81 0 l 319 0 l 319 213 q 347 381 319 307 q 424 497 374 456 q 538 538 474 538 q 640 513 601 538 q 696 433 678 489 q 714 278 714 376 l 714 0 l 953 0 l 953 301 q 923 551 953 461 q 832 678 893 640 q 668 717 771 715 q 429 641 511 717 q 322 408 347 565 l 311 408 l 339 694 l 81 694 "},"ň":{"ha":1019,"x_min":81,"x_max":953,"o":"m 81 694 l 81 0 l 319 0 l 319 213 q 347 381 319 307 q 424 497 374 456 q 538 538 474 538 q 640 513 601 538 q 696 433 678 489 q 714 278 714 376 l 714 0 l 953 0 l 953 301 q 923 551 953 461 q 832 678 893 640 q 668 717 771 715 q 429 641 511 717 q 322 408 347 565 l 311 408 l 339 694 l 81 694 m 942 1140 l 543 913 l 144 1140 l 144 1029 l 543 771 l 942 1029 l 942 1140 "},"ņ":{"ha":1019,"x_min":81,"x_max":953,"o":"m 81 694 l 81 0 l 319 0 l 319 213 q 347 381 319 307 q 424 497 374 456 q 538 538 474 538 q 640 513 601 538 q 696 433 678 489 q 714 278 714 376 l 714 0 l 953 0 l 953 301 q 923 551 953 461 q 832 678 893 640 q 668 717 771 715 q 429 641 511 717 q 322 408 347 565 l 311 408 l 339 694 l 81 694 m 410 -111 l 322 -486 l 458 -486 l 615 -111 l 410 -111 "},"ŋ":{"ha":1019,"x_min":81,"x_max":953,"o":"m 668 717 q 429 641 511 717 q 322 408 347 565 l 311 408 l 339 694 l 81 694 l 81 0 l 319 0 l 319 213 q 347 381 319 307 q 424 497 374 456 q 538 538 474 538 q 640 513 601 538 q 696 433 678 489 q 714 278 714 376 l 714 0 l 714 -44 q 677 -117 714 -93 q 566 -147 640 -140 q 346 -154 492 -154 l 346 -278 q 749 -258 626 -278 q 911 -182 871 -237 q 953 0 951 -126 l 953 301 q 923 551 953 461 q 832 678 893 640 q 668 717 771 715 "},"ñ":{"ha":1019,"x_min":81,"x_max":953,"o":"m 81 694 l 81 0 l 319 0 l 319 213 q 347 381 319 307 q 424 497 374 456 q 538 538 474 538 q 640 513 601 538 q 696 433 678 489 q 714 278 714 376 l 714 0 l 953 0 l 953 301 q 923 551 953 461 q 832 678 893 640 q 668 717 771 715 q 429 641 511 717 q 322 408 347 565 l 311 408 l 339 694 l 81 694 m 661 794 q 783 844 736 794 q 832 975 831 893 l 749 975 q 724 901 747 925 q 661 876 701 876 q 624 887 640 876 q 581 921 607 897 q 528 963 551 949 q 474 976 506 976 q 351 926 399 976 q 303 796 304 876 l 388 796 q 412 869 389 844 q 474 894 435 894 q 505 885 490 894 q 540 856 519 875 q 597 810 569 826 q 661 794 624 794 "},"o":{"ha":997,"x_min":58,"x_max":939,"o":"m 499 -22 q 730 24 631 -22 q 884 153 829 69 q 939 347 939 238 q 884 541 939 457 q 730 671 829 625 q 499 717 631 717 q 267 671 367 717 q 113 541 168 625 q 58 347 58 457 q 113 153 58 238 q 267 24 168 69 q 499 -22 367 -22 m 499 167 q 342 217 401 167 q 283 347 283 267 q 342 478 283 429 q 499 528 401 528 q 655 478 596 528 q 714 347 714 429 q 655 217 714 267 q 499 167 596 167 "},"ó":{"ha":997,"x_min":58,"x_max":939,"o":"m 499 -22 q 730 24 631 -22 q 884 153 829 69 q 939 347 939 238 q 884 541 939 457 q 730 671 829 625 q 499 717 631 717 q 267 671 367 717 q 113 541 168 625 q 58 347 58 457 q 113 153 58 238 q 267 24 168 69 q 499 -22 367 -22 m 499 167 q 342 217 401 167 q 283 347 283 267 q 342 478 283 429 q 499 528 401 528 q 655 478 596 528 q 714 347 714 429 q 655 217 714 267 q 499 167 596 167 m 467 901 l 467 756 l 865 949 l 865 1125 l 467 901 "},"ô":{"ha":997,"x_min":58,"x_max":939,"o":"m 499 -22 q 730 24 631 -22 q 884 153 829 69 q 939 347 939 238 q 884 541 939 457 q 730 671 829 625 q 499 717 631 717 q 267 671 367 717 q 113 541 168 625 q 58 347 58 457 q 113 153 58 238 q 267 24 168 69 q 499 -22 367 -22 m 499 167 q 342 217 401 167 q 283 347 283 267 q 342 478 283 429 q 499 528 401 528 q 655 478 596 528 q 714 347 714 429 q 655 217 714 267 q 499 167 596 167 m 899 882 l 500 1140 l 101 882 l 101 771 l 500 999 l 899 771 l 899 882 "},"ö":{"ha":997,"x_min":58,"x_max":939,"o":"m 499 -22 q 730 24 631 -22 q 884 153 829 69 q 939 347 939 238 q 884 541 939 457 q 730 671 829 625 q 499 717 631 717 q 267 671 367 717 q 113 541 168 625 q 58 347 58 457 q 113 153 58 238 q 267 24 168 69 q 499 -22 367 -22 m 499 167 q 342 217 401 167 q 283 347 283 267 q 342 478 283 429 q 499 528 401 528 q 655 478 596 528 q 714 347 714 429 q 655 217 714 267 q 499 167 596 167 m 304 747 q 406 779 369 747 q 442 865 442 811 q 406 951 442 919 q 304 983 369 983 q 205 951 243 983 q 167 865 167 918 q 205 780 167 813 q 304 747 243 747 m 707 747 q 808 779 772 747 q 844 865 844 811 q 808 951 844 919 q 707 983 772 983 q 608 951 646 983 q 569 865 569 918 q 608 780 569 813 q 707 747 646 747 "},"ò":{"ha":997,"x_min":58,"x_max":939,"o":"m 499 -22 q 730 24 631 -22 q 884 153 829 69 q 939 347 939 238 q 884 541 939 457 q 730 671 829 625 q 499 717 631 717 q 267 671 367 717 q 113 541 168 625 q 58 347 58 457 q 113 153 58 238 q 267 24 168 69 q 499 -22 367 -22 m 499 167 q 342 217 401 167 q 283 347 283 267 q 342 478 283 429 q 499 528 401 528 q 655 478 596 528 q 714 347 714 429 q 655 217 714 267 q 499 167 596 167 m 110 949 l 508 756 l 508 901 l 110 1125 l 110 949 "},"ő":{"ha":997,"x_min":58,"x_max":1057,"o":"m 499 -22 q 730 24 631 -22 q 884 153 829 69 q 939 347 939 238 q 884 541 939 457 q 730 671 829 625 q 499 717 631 717 q 267 671 367 717 q 113 541 168 625 q 58 347 58 457 q 113 153 58 238 q 267 24 168 69 q 499 -22 367 -22 m 499 167 q 342 217 401 167 q 283 347 283 267 q 342 478 283 429 q 499 528 401 528 q 655 478 596 528 q 714 347 714 429 q 655 217 714 267 q 499 167 596 167 m 311 867 l 311 756 l 710 983 l 710 1125 l 311 867 m 658 867 l 658 756 l 1057 983 l 1057 1125 l 658 867 "},"ō":{"ha":997,"x_min":58,"x_max":939,"o":"m 499 -22 q 730 24 631 -22 q 884 153 829 69 q 939 347 939 238 q 884 541 939 457 q 730 671 829 625 q 499 717 631 717 q 267 671 367 717 q 113 541 168 625 q 58 347 58 457 q 113 153 58 238 q 267 24 168 69 q 499 -22 367 -22 m 499 167 q 342 217 401 167 q 283 347 283 267 q 342 478 283 429 q 499 528 401 528 q 655 478 596 528 q 714 347 714 429 q 655 217 714 267 q 499 167 596 167 m 143 972 l 143 897 l 882 897 l 882 972 l 143 972 "},"ø":{"ha":997,"x_min":-19,"x_max":1024,"o":"m 868 564 l 1024 694 l 807 694 l 760 656 q 499 717 650 717 q 267 671 367 717 q 113 541 168 625 q 58 347 58 457 q 132 128 58 218 l -19 0 l 199 0 l 242 36 q 499 -22 350 -22 q 730 24 631 -22 q 884 153 829 69 q 939 347 939 238 q 868 564 939 472 m 283 347 q 342 478 283 429 q 499 528 401 528 q 592 514 546 528 l 301 269 q 283 347 283 301 m 714 347 q 655 217 714 267 q 499 167 596 167 q 411 179 450 167 l 699 421 q 714 347 714 386 "},"õ":{"ha":997,"x_min":58,"x_max":939,"o":"m 499 -22 q 730 24 631 -22 q 884 153 829 69 q 939 347 939 238 q 884 541 939 457 q 730 671 829 625 q 499 717 631 717 q 267 671 367 717 q 113 541 168 625 q 58 347 58 457 q 113 153 58 238 q 267 24 168 69 q 499 -22 367 -22 m 499 167 q 342 217 401 167 q 283 347 283 267 q 342 478 283 429 q 499 528 401 528 q 655 478 596 528 q 714 347 714 429 q 655 217 714 267 q 499 167 596 167 m 618 794 q 740 844 693 794 q 789 975 788 893 l 706 975 q 681 901 704 925 q 618 876 658 876 q 581 887 597 876 q 538 921 564 897 q 485 963 508 949 q 431 976 463 976 q 308 926 356 976 q 260 796 261 876 l 344 796 q 369 869 346 844 q 431 894 392 894 q 462 885 447 894 q 497 856 476 875 q 553 810 526 826 q 618 794 581 794 "},"œ":{"ha":1613,"x_min":58,"x_max":1556,"o":"m 1556 288 l 1556 401 q 1501 566 1554 494 q 1355 677 1449 638 q 1138 717 1261 717 q 961 689 1040 717 q 826 608 882 661 q 685 689 768 661 q 499 717 601 717 q 267 671 367 717 q 113 541 168 625 q 58 347 58 457 q 113 153 58 238 q 267 24 168 69 q 499 -22 367 -22 q 685 6 601 -22 q 826 86 768 33 q 961 6 882 33 q 1138 -22 1040 -22 q 1346 -7 1267 -22 q 1525 46 1425 8 l 1525 236 l 1493 222 q 1365 176 1425 192 q 1207 160 1304 160 q 1034 191 1094 160 q 956 288 974 222 l 1556 288 m 499 167 q 342 217 401 167 q 283 347 283 267 q 342 478 283 429 q 499 528 401 528 q 655 478 596 528 q 714 347 714 429 q 655 217 714 267 q 499 167 596 167 m 1326 393 l 950 385 q 1011 490 960 453 q 1138 528 1063 528 q 1270 492 1218 528 q 1326 393 1322 457 "},"p":{"ha":1094,"x_min":90,"x_max":1036,"o":"m 667 717 q 440 648 536 717 q 321 468 344 579 l 304 468 l 335 694 l 90 694 l 90 -278 l 329 -278 l 329 225 l 335 225 q 454 44 358 110 q 679 -22 550 -22 q 863 24 782 -22 q 990 152 944 69 q 1036 342 1036 235 q 990 538 1036 453 q 859 670 943 624 q 667 717 775 717 m 586 528 q 742 480 679 528 q 806 344 806 432 q 742 213 806 260 q 586 167 679 167 q 428 213 493 167 q 363 344 363 260 q 428 479 363 431 q 586 528 493 528 "},"þ":{"ha":1083,"x_min":81,"x_max":1026,"o":"m 672 717 q 435 650 536 717 q 311 468 333 583 l 294 468 l 325 972 l 81 972 l 81 -278 l 319 -278 l 319 225 l 325 225 q 444 44 349 110 q 669 -22 539 -22 q 852 24 771 -22 q 980 152 933 69 q 1026 342 1026 235 q 981 538 1026 453 q 854 669 935 622 q 672 717 774 717 m 575 528 q 733 480 669 528 q 796 344 796 432 q 733 213 796 260 q 575 167 669 167 q 417 214 483 167 q 351 344 351 261 q 417 479 351 431 q 575 528 483 528 "},"q":{"ha":1094,"x_min":58,"x_max":1004,"o":"m 428 717 q 235 670 319 717 q 105 538 151 624 q 58 342 58 453 q 104 152 58 235 q 231 24 150 69 q 415 -22 313 -22 q 640 44 544 -22 q 760 225 736 110 l 765 225 l 765 -278 l 1004 -278 l 1004 694 l 760 694 l 790 468 l 774 468 q 654 648 750 579 q 428 717 558 717 m 508 528 q 667 479 601 528 q 732 344 732 431 q 667 213 732 260 q 508 167 601 167 q 352 213 415 167 q 289 344 289 260 q 352 480 289 432 q 508 528 415 528 "},"r":{"ha":746,"x_min":81,"x_max":707,"o":"m 81 694 l 81 0 l 319 0 l 319 233 q 359 405 319 344 q 482 490 399 465 q 707 514 565 514 l 707 717 q 440 651 528 717 q 325 436 353 586 l 311 436 l 339 694 l 81 694 "},"ŕ":{"ha":746,"x_min":81,"x_max":769,"o":"m 81 694 l 81 0 l 319 0 l 319 233 q 359 405 319 344 q 482 490 399 465 q 707 514 565 514 l 707 717 q 440 651 528 717 q 325 436 353 586 l 311 436 l 339 694 l 81 694 "},"ř":{"ha":746,"x_min":6,"x_max":803,"o":"m 81 694 l 81 0 l 319 0 l 319 233 q 359 405 319 344 q 482 490 399 465 q 707 514 565 514 l 707 717 q 440 651 528 717 q 325 436 353 586 l 311 436 l 339 694 l 81 694 m 803 1140 l 404 913 l 6 1140 l 6 1029 l 404 771 l 803 1029 l 803 1140 "},"ŗ":{"ha":746,"x_min":6,"x_max":707,"o":"m 81 694 l 81 0 l 319 0 l 319 233 q 359 405 319 344 q 482 490 399 465 q 707 514 565 514 l 707 717 q 440 651 528 717 q 325 436 353 586 l 311 436 l 339 694 l 81 694 m 93 -111 l 6 -486 l 142 -486 l 299 -111 l 93 -111 "},"s":{"ha":938,"x_min":64,"x_max":875,"o":"m 467 -22 q 767 35 658 -22 q 875 211 875 92 q 814 346 875 300 q 670 406 753 392 q 467 425 588 419 q 333 438 374 431 q 293 469 293 446 q 344 508 293 496 q 503 521 394 521 q 819 482 635 521 l 819 678 q 633 706 731 696 q 472 717 536 717 q 173 657 282 717 q 64 481 64 597 q 122 353 64 396 q 260 296 181 310 q 457 276 339 282 q 599 261 554 271 q 644 224 644 251 q 594 181 644 193 q 429 169 544 169 q 260 184 338 169 q 94 232 182 199 l 94 32 q 282 -8 179 7 q 467 -22 385 -22 "},"ś":{"ha":938,"x_min":64,"x_max":875,"o":"m 467 -22 q 767 35 658 -22 q 875 211 875 92 q 814 346 875 300 q 670 406 753 392 q 467 425 588 419 q 333 438 374 431 q 293 469 293 446 q 344 508 293 496 q 503 521 394 521 q 819 482 635 521 l 819 678 q 633 706 731 696 q 472 717 536 717 q 173 657 282 717 q 64 481 64 597 q 122 353 64 396 q 260 296 181 310 q 457 276 339 282 q 599 261 554 271 q 644 224 644 251 q 594 181 644 193 q 429 169 544 169 q 260 184 338 169 q 94 232 182 199 l 94 32 q 282 -8 179 7 q 467 -22 385 -22 "},"š":{"ha":938,"x_min":64,"x_max":875,"o":"m 467 -22 q 767 35 658 -22 q 875 211 875 92 q 814 346 875 300 q 670 406 753 392 q 467 425 588 419 q 333 438 374 431 q 293 469 293 446 q 344 508 293 496 q 503 521 394 521 q 819 482 635 521 l 819 678 q 633 706 731 696 q 472 717 536 717 q 173 657 282 717 q 64 481 64 597 q 122 353 64 396 q 260 296 181 310 q 457 276 339 282 q 599 261 554 271 q 644 224 644 251 q 594 181 644 193 q 429 169 544 169 q 260 184 338 169 q 94 232 182 199 l 94 32 q 282 -8 179 7 q 467 -22 385 -22 m 868 1140 l 469 913 l 71 1140 l 71 1029 l 469 771 l 868 1029 l 868 1140 "},"ş":{"ha":938,"x_min":64,"x_max":925,"o":"m 501 -97 l 542 -19 q 788 47 700 -10 q 875 211 875 104 q 814 346 875 300 q 670 406 753 392 q 467 425 588 419 q 333 438 374 431 q 293 469 293 446 q 344 508 293 496 q 503 521 394 521 q 819 482 635 521 l 819 678 q 633 706 731 696 q 472 717 536 717 q 173 657 282 717 q 64 481 64 597 q 122 353 64 396 q 260 296 181 310 q 457 276 339 282 q 599 261 554 271 q 644 224 644 251 q 594 181 644 193 q 429 169 544 169 q 260 184 338 169 q 94 232 182 199 l 94 32 q 375 -18 225 -7 l 333 -92 l 333 -165 q 686 -246 686 -171 q 601 -301 686 -281 q 333 -322 515 -321 l 333 -399 q 642 -378 508 -399 q 851 -324 776 -358 q 925 -246 925 -289 q 813 -147 925 -186 q 501 -97 700 -108 "},"ș":{"ha":938,"x_min":64,"x_max":875,"o":"m 467 -22 q 767 35 658 -22 q 875 211 875 92 q 814 346 875 300 q 670 406 753 392 q 467 425 588 419 q 333 438 374 431 q 293 469 293 446 q 344 508 293 496 q 503 521 394 521 q 819 482 635 521 l 819 678 q 633 706 731 696 q 472 717 536 717 q 173 657 282 717 q 64 481 64 597 q 122 353 64 396 q 260 296 181 310 q 457 276 339 282 q 599 261 554 271 q 644 224 644 251 q 594 181 644 193 q 429 169 544 169 q 260 184 338 169 q 94 232 182 199 l 94 32 q 282 -8 179 7 q 467 -22 385 -22 "},"ß":{"ha":1228,"x_min":96,"x_max":1169,"o":"m 683 483 l 683 496 q 1033 551 924 496 q 1142 729 1142 607 q 1072 892 1142 839 q 890 958 1001 944 q 596 972 779 972 l 96 972 l 96 0 l 335 0 l 335 785 l 582 785 q 831 763 746 785 q 915 682 915 742 q 883 624 915 646 q 752 588 850 603 q 457 560 654 572 l 457 414 q 762 385 658 401 q 904 345 865 369 q 943 281 943 321 q 857 202 943 224 q 583 181 771 181 q 457 185 524 181 l 457 -17 q 624 -22 568 -22 q 917 1 799 -22 q 1103 87 1036 25 q 1169 260 1169 149 q 1053 422 1169 368 q 683 483 938 475 "},"t":{"ha":592,"x_min":47,"x_max":544,"o":"m 344 -14 q 544 14 451 -14 l 544 150 q 479 147 494 147 q 406 159 428 147 q 380 198 385 171 q 375 292 375 225 l 375 521 l 544 521 l 544 694 l 375 694 l 375 889 l 156 861 l 156 694 l 47 694 l 47 521 l 136 521 l 136 250 q 151 89 136 143 q 210 10 167 35 q 344 -14 254 -14 "},"ŧ":{"ha":592,"x_min":47,"x_max":546,"o":"m 546 268 l 546 440 l 375 440 l 375 521 l 544 521 l 544 694 l 375 694 l 375 889 l 156 861 l 156 694 l 47 694 l 47 521 l 136 521 l 136 440 l 47 440 l 47 268 l 136 268 l 136 250 q 151 89 136 143 q 210 10 167 35 q 344 -14 254 -14 q 544 14 451 -14 l 544 150 q 479 147 494 147 q 409 158 431 147 q 381 192 388 168 q 375 268 375 215 l 546 268 "},"ť":{"ha":879,"x_min":47,"x_max":854,"o":"m 344 -14 q 544 14 451 -14 l 544 150 q 479 147 494 147 q 406 159 428 147 q 380 198 385 171 q 375 292 375 225 l 375 521 l 544 521 l 544 694 l 375 694 l 375 889 l 156 861 l 156 694 l 47 694 l 47 521 l 136 521 l 136 250 q 151 89 136 143 q 210 10 167 35 q 344 -14 254 -14 m 649 971 l 561 596 l 697 596 l 854 971 l 649 971 "},"ţ":{"ha":592,"x_min":47,"x_max":747,"o":"m 325 -97 l 368 -14 q 544 14 454 -12 l 544 150 q 479 147 494 147 q 406 159 428 147 q 380 198 385 171 q 375 292 375 225 l 375 521 l 544 521 l 544 694 l 375 694 l 375 889 l 156 861 l 156 694 l 47 694 l 47 521 l 136 521 l 136 250 q 152 87 136 142 q 214 8 168 32 l 156 -92 l 156 -165 q 425 -189 340 -168 q 510 -246 510 -210 q 156 -322 510 -321 l 156 -399 q 465 -378 331 -399 q 673 -324 599 -358 q 747 -246 747 -289 q 635 -147 747 -186 q 325 -97 524 -108 "},"ț":{"ha":592,"x_min":47,"x_max":544,"o":"m 344 -14 q 544 14 451 -14 l 544 150 q 479 147 494 147 q 406 159 428 147 q 380 198 385 171 q 375 292 375 225 l 375 521 l 544 521 l 544 694 l 375 694 l 375 889 l 156 861 l 156 694 l 47 694 l 47 521 l 136 521 l 136 250 q 151 89 136 143 q 210 10 167 35 q 344 -14 254 -14 "},"u":{"ha":1019,"x_min":67,"x_max":939,"o":"m 939 0 l 939 694 l 700 694 l 700 482 q 673 314 700 388 q 596 199 646 240 q 481 158 546 158 q 379 183 417 158 q 324 263 342 207 q 306 417 306 319 l 306 694 l 67 694 l 67 393 q 97 144 67 233 q 188 17 126 54 q 351 -22 249 -21 q 590 53 508 -22 q 696 286 671 129 l 708 286 l 681 0 l 939 0 "},"ú":{"ha":1019,"x_min":67,"x_max":939,"o":"m 939 0 l 939 694 l 700 694 l 700 482 q 673 314 700 388 q 596 199 646 240 q 481 158 546 158 q 379 183 417 158 q 324 263 342 207 q 306 417 306 319 l 306 694 l 67 694 l 67 393 q 97 144 67 233 q 188 17 126 54 q 351 -22 249 -21 q 590 53 508 -22 q 696 286 671 129 l 708 286 l 681 0 l 939 0 m 450 901 l 450 756 l 849 949 l 849 1125 l 450 901 "},"û":{"ha":1019,"x_min":67,"x_max":939,"o":"m 939 0 l 939 694 l 700 694 l 700 482 q 673 314 700 388 q 596 199 646 240 q 481 158 546 158 q 379 183 417 158 q 324 263 342 207 q 306 417 306 319 l 306 694 l 67 694 l 67 393 q 97 144 67 233 q 188 17 126 54 q 351 -22 249 -21 q 590 53 508 -22 q 696 286 671 129 l 708 286 l 681 0 l 939 0 m 882 882 l 483 1140 l 85 882 l 85 771 l 483 999 l 882 771 l 882 882 "},"ü":{"ha":1019,"x_min":67,"x_max":939,"o":"m 939 0 l 939 694 l 700 694 l 700 482 q 673 314 700 388 q 596 199 646 240 q 481 158 546 158 q 379 183 417 158 q 324 263 342 207 q 306 417 306 319 l 306 694 l 67 694 l 67 393 q 97 144 67 233 q 188 17 126 54 q 351 -22 249 -21 q 590 53 508 -22 q 696 286 671 129 l 708 286 l 681 0 l 939 0 m 288 747 q 389 779 353 747 q 425 865 425 811 q 389 951 425 919 q 288 983 353 983 q 188 951 226 983 q 150 865 150 918 q 188 780 150 813 q 288 747 226 747 m 690 747 q 792 779 756 747 q 828 865 828 811 q 792 951 828 919 q 690 983 756 983 q 591 951 629 983 q 553 865 553 918 q 591 780 553 813 q 690 747 629 747 "},"ù":{"ha":1019,"x_min":67,"x_max":939,"o":"m 939 0 l 939 694 l 700 694 l 700 482 q 673 314 700 388 q 596 199 646 240 q 481 158 546 158 q 379 183 417 158 q 324 263 342 207 q 306 417 306 319 l 306 694 l 67 694 l 67 393 q 97 144 67 233 q 188 17 126 54 q 351 -22 249 -21 q 590 53 508 -22 q 696 286 671 129 l 708 286 l 681 0 l 939 0 m 93 949 l 492 756 l 492 901 l 93 1125 l 93 949 "},"ű":{"ha":1019,"x_min":67,"x_max":1040,"o":"m 939 0 l 939 694 l 700 694 l 700 482 q 673 314 700 388 q 596 199 646 240 q 481 158 546 158 q 379 183 417 158 q 324 263 342 207 q 306 417 306 319 l 306 694 l 67 694 l 67 393 q 97 144 67 233 q 188 17 126 54 q 351 -22 249 -21 q 590 53 508 -22 q 696 286 671 129 l 708 286 l 681 0 l 939 0 m 294 867 l 294 756 l 693 983 l 693 1125 l 294 867 m 642 867 l 642 756 l 1040 983 l 1040 1125 l 642 867 "},"ū":{"ha":1019,"x_min":67,"x_max":939,"o":"m 939 0 l 939 694 l 700 694 l 700 482 q 673 314 700 388 q 596 199 646 240 q 481 158 546 158 q 379 183 417 158 q 324 263 342 207 q 306 417 306 319 l 306 694 l 67 694 l 67 393 q 97 144 67 233 q 188 17 126 54 q 351 -22 249 -21 q 590 53 508 -22 q 696 286 671 129 l 708 286 l 681 0 l 939 0 m 142 972 l 142 897 l 881 897 l 881 972 l 142 972 "},"ų":{"ha":1019,"x_min":67,"x_max":1075,"o":"m 958 -175 q 821 -149 875 -175 q 767 -78 767 -122 q 807 0 767 -42 l 939 0 l 939 694 l 700 694 l 700 482 q 673 314 700 388 q 596 199 646 240 q 481 158 546 158 q 379 183 417 158 q 324 263 342 207 q 306 417 306 319 l 306 694 l 67 694 l 67 393 q 97 144 67 233 q 188 17 126 54 q 351 -22 249 -21 q 590 53 508 -22 q 696 286 671 129 l 708 286 l 683 25 q 610 -129 610 -57 q 652 -229 610 -186 q 765 -296 694 -272 q 917 -319 835 -319 q 1071 -297 999 -319 l 1075 -162 q 958 -175 1017 -175 "},"ů":{"ha":1019,"x_min":67,"x_max":939,"o":"m 939 0 l 939 694 l 700 694 l 700 482 q 673 314 700 388 q 596 199 646 240 q 481 158 546 158 q 379 183 417 158 q 324 263 342 207 q 306 417 306 319 l 306 694 l 67 694 l 67 393 q 97 144 67 233 q 188 17 126 54 q 351 -22 249 -21 q 590 53 508 -22 q 696 286 671 129 l 708 286 l 681 0 l 939 0 "},"v":{"ha":1118,"x_min":40,"x_max":1078,"o":"m 40 694 l 407 0 l 711 0 l 1078 694 l 821 694 l 560 197 l 297 694 l 40 694 "},"w":{"ha":1526,"x_min":35,"x_max":1492,"o":"m 35 694 l 332 0 l 614 0 l 758 374 l 911 0 l 1194 0 l 1492 694 l 1247 694 l 1056 239 l 863 694 l 649 694 l 469 244 l 278 694 l 35 694 "},"ẃ":{"ha":1526,"x_min":35,"x_max":1492,"o":"m 35 694 l 332 0 l 614 0 l 758 374 l 911 0 l 1194 0 l 1492 694 l 1247 694 l 1056 239 l 863 694 l 649 694 l 469 244 l 278 694 l 35 694 m 722 901 l 722 756 l 1121 949 l 1121 1125 l 722 901 "},"ŵ":{"ha":1526,"x_min":35,"x_max":1492,"o":"m 35 694 l 332 0 l 614 0 l 758 374 l 911 0 l 1194 0 l 1492 694 l 1247 694 l 1056 239 l 863 694 l 649 694 l 469 244 l 278 694 l 35 694 m 1154 882 l 756 1140 l 357 882 l 357 771 l 756 999 l 1154 771 l 1154 882 "},"ẅ":{"ha":1526,"x_min":35,"x_max":1492,"o":"m 35 694 l 332 0 l 614 0 l 758 374 l 911 0 l 1194 0 l 1492 694 l 1247 694 l 1056 239 l 863 694 l 649 694 l 469 244 l 278 694 l 35 694 m 550 747 q 651 779 615 747 q 688 865 688 811 q 651 951 688 919 q 550 983 615 983 q 451 951 489 983 q 413 865 413 918 q 451 780 413 813 q 550 747 489 747 m 953 747 q 1054 779 1018 747 q 1090 865 1090 811 q 1054 951 1090 919 q 953 983 1018 983 q 853 951 892 983 q 815 865 815 918 q 853 780 815 813 q 953 747 892 747 "},"ẁ":{"ha":1526,"x_min":35,"x_max":1492,"o":"m 35 694 l 332 0 l 614 0 l 758 374 l 911 0 l 1194 0 l 1492 694 l 1247 694 l 1056 239 l 863 694 l 649 694 l 469 244 l 278 694 l 35 694 m 365 949 l 764 756 l 764 901 l 365 1125 l 365 949 "},"x":{"ha":1131,"x_min":35,"x_max":1096,"o":"m 403 349 l 35 0 l 338 0 l 554 204 l 771 0 l 1074 0 l 717 338 l 1096 694 l 792 694 l 565 482 l 340 694 l 36 694 l 403 349 "},"y":{"ha":1096,"x_min":35,"x_max":1061,"o":"m 431 8 l 276 -278 l 539 -278 l 1061 694 l 799 694 l 553 244 l 306 694 l 35 694 l 431 8 "},"ý":{"ha":1096,"x_min":35,"x_max":1061,"o":"m 431 8 l 276 -278 l 539 -278 l 1061 694 l 799 694 l 553 244 l 306 694 l 35 694 l 431 8 m 531 901 l 531 756 l 929 949 l 929 1125 l 531 901 "},"ŷ":{"ha":1096,"x_min":35,"x_max":1061,"o":"m 431 8 l 276 -278 l 539 -278 l 1061 694 l 799 694 l 553 244 l 306 694 l 35 694 l 431 8 m 963 882 l 564 1140 l 165 882 l 165 771 l 564 999 l 963 771 l 963 882 "},"ÿ":{"ha":1096,"x_min":35,"x_max":1061,"o":"m 431 8 l 276 -278 l 539 -278 l 1061 694 l 799 694 l 553 244 l 306 694 l 35 694 l 431 8 m 368 747 q 469 779 433 747 q 506 865 506 811 q 469 951 506 919 q 368 983 433 983 q 269 951 307 983 q 231 865 231 918 q 269 780 231 813 q 368 747 307 747 m 771 747 q 872 779 836 747 q 908 865 908 811 q 872 951 908 919 q 771 983 836 983 q 672 951 710 983 q 633 865 633 918 q 672 780 633 813 q 771 747 710 747 "},"ỳ":{"ha":1096,"x_min":35,"x_max":1061,"o":"m 431 8 l 276 -278 l 539 -278 l 1061 694 l 799 694 l 553 244 l 306 694 l 35 694 l 431 8 m 174 949 l 572 756 l 572 901 l 174 1125 l 174 949 "},"z":{"ha":999,"x_min":42,"x_max":957,"o":"m 42 119 l 42 0 l 943 0 l 943 181 l 460 181 l 957 578 l 957 694 l 53 694 l 53 515 l 542 515 l 42 119 "},"ź":{"ha":999,"x_min":42,"x_max":957,"o":"m 42 119 l 42 0 l 943 0 l 943 181 l 460 181 l 957 578 l 957 694 l 53 694 l 53 515 l 542 515 l 42 119 "},"ž":{"ha":999,"x_min":42,"x_max":957,"o":"m 42 119 l 42 0 l 943 0 l 943 181 l 460 181 l 957 578 l 957 694 l 53 694 l 53 515 l 542 515 l 42 119 m 917 1140 l 518 913 l 119 1140 l 119 1029 l 518 771 l 917 1029 l 917 1140 "},"ż":{"ha":999,"x_min":42,"x_max":957,"o":"m 42 119 l 42 0 l 943 0 l 943 181 l 460 181 l 957 578 l 957 694 l 53 694 l 53 515 l 542 515 l 42 119 "},"А":{"ha":1525,"x_min":40,"x_max":1485,"o":"m 628 972 l 40 0 l 319 0 l 425 185 l 1099 185 l 1204 0 l 1485 0 l 897 972 l 628 972 m 985 388 l 540 388 l 763 776 l 985 388 "},"Б":{"ha":1214,"x_min":117,"x_max":1147,"o":"m 821 593 l 356 593 l 356 769 l 1018 769 l 1018 972 l 117 972 l 117 0 l 821 0 q 992 40 918 0 q 1107 147 1067 79 q 1147 297 1147 215 q 1057 517 1147 440 q 821 593 967 593 m 786 194 l 354 194 l 354 400 l 786 400 q 878 376 849 400 q 908 297 908 351 q 878 219 908 243 q 786 194 849 194 "},"В":{"ha":1286,"x_min":117,"x_max":1193,"o":"m 117 972 l 117 0 l 879 0 q 1044 32 972 0 q 1154 123 1115 64 q 1193 258 1193 182 q 1113 431 1193 369 q 892 494 1032 492 q 1090 556 1019 501 q 1161 715 1161 611 q 1078 901 1161 831 q 849 972 996 972 l 117 972 m 800 583 l 356 583 l 354 769 l 800 769 q 922 675 922 769 q 891 605 922 626 q 800 583 860 583 m 831 204 l 357 204 l 356 404 l 831 404 q 921 379 889 404 q 953 303 953 354 q 831 204 953 204 "},"Г":{"ha":1024,"x_min":117,"x_max":1010,"o":"m 117 972 l 117 0 l 356 0 l 356 769 l 1010 769 l 1010 972 l 117 972 "},"Д":{"ha":1288,"x_min":17,"x_max":1260,"o":"m 17 142 l 17 -143 l 256 -143 l 256 0 l 1021 0 l 1021 -143 l 1260 -143 l 1260 142 l 1108 142 l 1108 972 l 235 972 l 171 254 q 126 170 167 199 q 17 142 86 142 m 869 203 l 393 203 q 413 267 408 226 l 457 769 l 869 769 l 869 203 "},"Е":{"ha":1167,"x_min":117,"x_max":1064,"o":"m 117 972 l 117 0 l 1064 0 l 1064 203 l 356 203 l 356 399 l 1051 399 l 1051 589 l 356 589 l 356 769 l 1064 769 l 1064 972 l 117 972 "},"Ё":{"ha":1167,"x_min":117,"x_max":1064,"o":"m 117 972 l 117 0 l 1064 0 l 1064 203 l 356 203 l 356 399 l 1051 399 l 1051 589 l 356 589 l 356 769 l 1064 769 l 1064 972 l 117 972 "},"Ж":{"ha":1960,"x_min":14,"x_max":1946,"o":"m 614 490 l 14 0 l 360 0 l 860 438 l 860 0 l 1099 0 l 1099 438 l 1600 0 l 1946 0 l 1344 490 l 1936 972 l 1600 972 l 1099 535 l 1099 972 l 860 972 l 860 535 l 360 972 l 22 972 l 614 490 "},"З":{"ha":1119,"x_min":47,"x_max":1092,"o":"m 540 -22 q 950 40 808 -22 q 1092 254 1092 103 q 1028 399 1092 347 q 891 470 965 451 q 768 490 817 489 q 819 501 768 492 q 967 562 869 510 q 1064 729 1064 614 q 922 938 1064 879 q 518 996 779 996 q 268 976 407 996 q 47 924 129 957 l 47 710 q 260 767 119 742 q 504 793 401 793 q 744 767 650 793 q 838 685 838 740 q 794 629 838 650 q 631 595 751 608 q 272 572 511 582 l 272 403 q 627 385 499 399 q 810 344 756 371 q 865 274 865 318 q 506 181 865 181 q 258 206 399 181 q 47 263 117 231 l 47 50 q 266 -4 131 14 q 540 -22 401 -22 "},"И":{"ha":1353,"x_min":117,"x_max":1238,"o":"m 999 0 l 1238 0 l 1238 972 l 1038 972 l 356 354 l 356 972 l 117 972 l 117 0 l 318 0 l 999 618 l 999 0 "},"Й":{"ha":1353,"x_min":117,"x_max":1238,"o":"m 674 1043 q 891 1099 814 1043 q 969 1250 968 1154 l 826 1250 q 782 1166 822 1194 q 674 1138 742 1138 q 566 1166 607 1138 q 524 1250 525 1194 l 378 1250 q 417 1142 378 1189 q 522 1069 456 1094 q 674 1043 589 1043 m 999 0 l 1238 0 l 1238 972 l 1038 972 l 356 354 l 356 972 l 117 972 l 117 0 l 318 0 l 999 618 l 999 0 "},"К":{"ha":1221,"x_min":117,"x_max":1201,"o":"m 117 972 l 117 0 l 356 0 l 356 436 l 856 0 l 1201 0 l 601 490 l 1193 972 l 856 972 l 356 536 l 356 972 l 117 972 "},"Л":{"ha":1233,"x_min":14,"x_max":1108,"o":"m 65 -22 q 310 40 217 -22 q 413 215 403 103 l 458 769 l 869 769 l 869 0 l 1108 0 l 1108 972 l 236 972 l 171 203 q 134 119 167 150 q 44 89 101 89 l 24 90 l 14 -21 q 65 -22 32 -22 "},"М":{"ha":1458,"x_min":117,"x_max":1342,"o":"m 117 972 l 117 0 l 356 0 l 356 560 l 706 0 l 753 0 l 1103 561 l 1103 0 l 1342 0 l 1342 972 l 1128 972 l 729 342 l 329 972 l 117 972 "},"Н":{"ha":1324,"x_min":117,"x_max":1207,"o":"m 117 972 l 117 0 l 356 0 l 356 404 l 968 404 l 968 0 l 1207 0 l 1207 972 l 968 972 l 968 607 l 356 607 l 356 972 l 117 972 "},"О":{"ha":1346,"x_min":58,"x_max":1288,"o":"m 672 -22 q 999 41 860 -22 q 1213 219 1139 104 q 1288 486 1288 333 q 1213 753 1288 639 q 999 931 1139 868 q 672 994 860 994 q 346 931 485 994 q 133 753 207 868 q 58 486 58 638 q 133 219 58 335 q 346 41 207 104 q 672 -22 485 -22 m 672 181 q 397 260 497 181 q 297 486 297 340 q 397 712 297 632 q 672 792 496 792 q 949 712 849 792 q 1049 486 1049 632 q 949 260 1049 340 q 672 181 849 181 "},"П":{"ha":1146,"x_min":117,"x_max":1029,"o":"m 117 972 l 117 0 l 356 0 l 356 769 l 790 769 l 790 0 l 1029 0 l 1029 972 l 117 972 "},"Р":{"ha":1214,"x_min":117,"x_max":1147,"o":"m 117 972 l 117 0 l 356 0 l 356 379 l 821 379 q 1057 456 967 379 q 1147 675 1147 532 q 1107 825 1147 757 q 992 933 1067 893 q 821 972 918 972 l 117 972 m 786 574 l 354 574 l 354 779 l 786 779 q 878 754 849 779 q 908 675 908 729 q 879 597 908 621 q 786 574 850 574 "},"С":{"ha":1297,"x_min":67,"x_max":1239,"o":"m 653 -22 q 960 33 826 -22 q 1166 190 1093 89 q 1239 424 1239 292 l 997 424 q 897 244 990 307 q 653 181 804 181 q 400 261 494 181 q 306 486 306 342 q 399 712 306 632 q 653 792 493 792 q 896 728 803 792 q 997 549 989 665 l 1239 549 q 1166 782 1239 681 q 960 939 1093 883 q 653 994 826 994 q 346 931 479 994 q 140 753 213 868 q 67 486 67 638 q 140 219 67 335 q 346 41 213 104 q 653 -22 479 -22 "},"Т":{"ha":1224,"x_min":40,"x_max":1183,"o":"m 492 769 l 492 0 l 731 0 l 731 769 l 1183 769 l 1183 972 l 40 972 l 40 769 l 492 769 "},"У":{"ha":1096,"x_min":35,"x_max":1061,"o":"m 431 285 l 276 -1 l 539 -1 l 1061 971 l 799 971 l 553 521 l 306 971 l 35 971 l 431 285 "},"Ф":{"ha":997,"x_min":58,"x_max":939,"o":"m 939 493 q 842 738 939 640 q 583 857 746 836 l 583 972 l 414 972 l 414 857 q 155 738 251 836 q 58 493 58 640 q 155 248 58 346 q 414 129 251 150 l 414 0 l 583 0 l 583 129 q 842 248 746 150 q 939 493 939 346 m 283 493 q 318 599 283 554 q 414 661 353 643 l 414 325 q 318 388 353 343 q 283 493 283 432 m 583 325 l 583 661 q 679 599 644 643 q 714 493 714 554 q 679 388 714 432 q 583 325 644 343 "},"Х":{"ha":1310,"x_min":53,"x_max":1257,"o":"m 490 490 l 53 0 l 371 0 l 650 310 l 929 0 l 1247 0 l 818 482 l 1257 972 l 935 972 l 657 664 l 379 972 l 57 972 l 490 490 "},"Ч":{"ha":1019,"x_min":67,"x_max":939,"o":"m 939 0 l 939 972 l 700 972 l 700 760 q 673 592 700 665 q 596 477 646 518 q 481 436 546 436 q 379 460 417 436 q 324 541 342 485 q 306 694 306 597 l 306 972 l 67 972 l 67 671 q 97 422 67 511 q 188 294 126 332 q 351 256 249 257 q 590 331 508 256 q 696 564 671 407 l 708 564 l 681 0 l 939 0 "},"Ц":{"ha":1143,"x_min":125,"x_max":1121,"o":"m 882 0 l 882 -143 l 1121 -143 l 1121 203 l 951 203 l 951 972 l 713 972 l 713 203 l 364 203 l 364 972 l 125 972 l 125 0 l 882 0 "},"Ш":{"ha":1585,"x_min":117,"x_max":1468,"o":"m 117 972 l 117 0 l 1468 0 l 1468 972 l 1229 972 l 1229 203 l 911 203 l 911 972 l 672 972 l 672 203 l 356 203 l 356 972 l 117 972 "},"Щ":{"ha":1668,"x_min":125,"x_max":1646,"o":"m 1407 0 l 1407 -143 l 1646 -143 l 1646 203 l 1476 203 l 1476 972 l 1238 972 l 1238 203 l 921 203 l 921 972 l 682 972 l 682 203 l 364 203 l 364 972 l 125 972 l 125 0 l 1407 0 "},"Ь":{"ha":1214,"x_min":117,"x_max":1147,"o":"m 356 972 l 117 972 l 117 0 l 821 0 q 992 40 918 0 q 1107 147 1067 79 q 1147 297 1147 215 q 1057 517 1147 440 q 821 593 967 593 l 356 593 l 356 972 m 354 194 l 354 400 l 786 400 q 878 376 849 400 q 908 297 908 351 q 878 219 908 243 q 786 194 849 194 l 354 194 "},"Ъ":{"ha":1214,"x_min":-40,"x_max":1147,"o":"m 821 593 l 356 593 l 356 972 l -40 972 l -40 831 l 117 831 l 117 0 l 821 0 q 992 40 918 0 q 1107 147 1067 79 q 1147 297 1147 215 q 1057 517 1147 440 q 821 593 967 593 m 786 194 l 354 194 l 354 400 l 786 400 q 878 376 849 400 q 908 297 908 351 q 878 219 908 243 q 786 194 849 194 "},"Ы":{"ha":1693,"x_min":117,"x_max":1576,"o":"m 356 972 l 117 972 l 117 0 l 821 0 q 992 40 918 0 q 1107 147 1067 79 q 1147 297 1147 215 q 1057 517 1147 440 q 821 593 967 593 l 356 593 l 356 972 m 1338 972 l 1338 0 l 1576 0 l 1576 972 l 1338 972 m 354 194 l 354 400 l 786 400 q 878 376 849 400 q 908 297 908 351 q 878 219 908 243 q 786 194 849 194 l 354 194 "},"Э":{"ha":1289,"x_min":50,"x_max":1222,"o":"m 636 994 q 329 939 463 994 q 123 782 196 883 q 50 549 50 681 l 292 549 q 393 728 300 665 q 636 792 486 792 q 851 738 764 792 q 969 586 939 685 l 529 586 l 529 383 l 968 383 q 850 233 938 286 q 636 181 763 181 q 392 244 485 181 q 292 424 299 307 l 50 424 q 123 190 50 292 q 329 33 196 89 q 636 -22 463 -22 q 943 41 810 -22 q 1149 219 1076 104 q 1222 486 1222 335 q 1149 753 1222 638 q 943 931 1076 868 q 636 994 810 994 "},"Ю":{"ha":1867,"x_min":125,"x_max":1808,"o":"m 1193 994 q 899 944 1028 994 q 691 803 771 894 q 588 586 611 711 l 364 586 l 364 972 l 125 972 l 125 0 l 364 0 l 364 383 l 589 383 q 692 168 613 260 q 900 27 772 76 q 1193 -22 1028 -22 q 1520 41 1381 -22 q 1734 219 1660 104 q 1808 486 1808 333 q 1734 753 1808 639 q 1520 931 1660 868 q 1193 994 1381 994 m 1193 181 q 918 260 1018 181 q 818 486 818 340 q 917 712 818 632 q 1193 792 1017 792 q 1469 712 1369 792 q 1569 486 1569 632 q 1469 260 1569 340 q 1193 181 1369 181 "},"Я":{"ha":1307,"x_min":25,"x_max":1190,"o":"m 951 0 l 1190 0 l 1190 972 l 417 972 q 187 901 269 972 q 104 715 104 831 q 189 535 104 600 q 417 471 274 471 l 518 471 q 323 414 403 464 q 178 269 243 364 q 25 0 113 174 l 310 0 q 465 262 414 186 q 567 370 515 338 q 701 403 619 403 l 953 403 l 951 0 m 954 779 l 953 589 l 465 589 q 373 612 403 589 q 343 681 343 635 q 373 756 343 732 q 465 779 403 779 l 954 779 "},"а":{"ha":954,"x_min":58,"x_max":886,"o":"m 317 -22 q 558 39 474 -22 q 675 235 642 100 l 688 235 l 657 0 l 886 0 l 886 392 q 539 717 886 717 q 343 696 450 717 q 146 642 236 675 l 146 443 q 313 496 219 475 q 483 517 406 517 q 606 491 565 517 q 647 410 647 465 q 217 337 376 390 q 58 161 58 283 q 135 16 58 54 q 317 -22 213 -22 m 422 142 q 338 158 369 142 q 306 204 306 175 q 394 275 306 256 q 646 306 483 294 q 580 184 647 226 q 422 142 513 142 "},"б":{"ha":1194,"x_min":58,"x_max":1136,"o":"m 628 -17 q 902 24 788 -17 q 1076 137 1017 64 q 1136 308 1136 210 q 1025 549 1136 458 q 693 639 914 639 q 468 594 569 639 q 297 485 367 550 q 392 711 297 632 q 663 790 488 790 q 808 785 714 790 q 863 782 831 783 q 933 781 894 781 q 1061 794 1014 781 l 1061 1015 q 930 997 997 1001 q 728 993 863 993 l 668 993 q 349 937 486 993 q 135 771 211 881 q 58 503 58 661 q 211 114 58 244 q 628 -17 364 -17 m 615 186 q 319 361 382 186 q 474 435 376 406 q 658 464 571 464 q 835 428 775 464 q 896 324 896 392 q 822 219 896 253 q 615 186 749 186 "},"в":{"ha":1107,"x_min":125,"x_max":1060,"o":"m 125 694 l 125 0 l 746 0 q 985 45 910 0 q 1060 189 1060 90 q 991 313 1060 274 q 772 356 922 353 q 967 397 906 361 q 1028 507 1028 433 q 954 650 1028 606 q 715 694 881 694 l 125 694 m 597 410 l 364 410 l 363 553 l 597 553 q 744 535 699 553 q 789 478 789 517 q 744 426 789 442 q 597 410 699 410 m 628 143 l 365 143 l 364 300 l 628 300 q 819 225 819 300 q 774 163 819 182 q 628 143 729 143 "},"г":{"ha":819,"x_min":125,"x_max":782,"o":"m 125 694 l 125 0 l 364 0 l 364 492 l 782 492 l 782 694 l 125 694 "},"д":{"ha":1204,"x_min":17,"x_max":1176,"o":"m 17 142 l 17 -143 l 256 -143 l 256 0 l 938 0 l 938 -143 l 1176 -143 l 1176 142 l 1025 142 l 1025 713 l 211 713 l 171 254 q 126 170 165 199 q 17 142 86 142 m 786 203 l 393 203 q 413 267 408 226 l 433 510 l 786 510 l 786 203 "},"е":{"ha":953,"x_min":58,"x_max":894,"o":"m 476 -22 q 686 -7 607 -22 q 864 46 765 8 l 864 236 l 832 222 q 703 176 764 192 q 546 160 643 160 q 373 191 433 160 q 296 288 313 222 l 894 288 l 894 401 q 840 566 893 494 q 694 677 788 638 q 476 717 600 717 q 257 671 351 717 q 110 541 163 625 q 58 347 58 457 q 110 153 58 238 q 257 24 163 69 q 476 -22 351 -22 m 665 393 l 290 385 q 351 490 300 451 q 476 528 401 528 q 610 492 558 528 q 665 393 661 457 "},"ё":{"ha":953,"x_min":58,"x_max":894,"o":"m 476 -22 q 686 -7 607 -22 q 864 46 765 8 l 864 236 l 832 222 q 703 176 764 192 q 546 160 643 160 q 373 191 433 160 q 296 288 313 222 l 894 288 l 894 401 q 840 566 893 494 q 694 677 788 638 q 476 717 600 717 q 257 671 351 717 q 110 541 163 625 q 58 347 58 457 q 110 153 58 238 q 257 24 163 69 q 476 -22 351 -22 m 665 393 l 290 385 q 351 490 300 451 q 476 528 401 528 q 610 492 558 528 q 665 393 661 457 "},"ж":{"ha":1710,"x_min":14,"x_max":1696,"o":"m 565 349 l 14 0 l 353 0 l 735 258 l 735 0 l 974 0 l 974 258 l 1357 0 l 1696 0 l 1143 349 l 1682 694 l 1357 694 l 974 436 l 974 694 l 735 694 l 735 436 l 353 694 l 28 694 l 565 349 "},"з":{"ha":1136,"x_min":56,"x_max":1081,"o":"m 535 -21 q 937 26 793 -21 q 1081 178 1081 72 q 1001 290 1081 253 q 830 335 922 326 q 628 346 738 344 l 594 346 l 594 358 q 895 390 738 358 q 1053 536 1053 421 q 906 676 1053 638 q 507 715 760 715 q 267 699 396 715 q 56 653 138 683 l 56 450 q 253 495 124 478 q 493 513 383 513 q 731 501 663 513 q 800 461 800 489 q 742 426 800 439 q 542 405 685 414 q 108 385 400 396 l 108 315 q 560 291 413 301 q 768 267 708 281 q 828 232 828 254 q 753 194 828 206 q 494 182 678 182 q 251 199 379 182 q 56 243 122 215 l 56 40 q 267 -6 140 8 q 535 -21 393 -21 "},"и":{"ha":1247,"x_min":125,"x_max":1122,"o":"m 125 694 l 125 0 l 326 0 l 883 433 l 883 0 l 1122 0 l 1122 694 l 922 694 l 364 264 l 364 694 l 125 694 "},"й":{"ha":1247,"x_min":125,"x_max":1122,"o":"m 631 765 q 848 821 771 765 q 926 972 925 876 l 783 972 q 739 888 779 917 q 631 860 699 860 q 523 888 564 860 q 481 972 482 917 l 335 972 q 374 864 335 911 q 479 791 413 817 q 631 765 546 765 m 125 694 l 125 0 l 326 0 l 883 433 l 883 0 l 1122 0 l 1122 694 l 922 694 l 364 264 l 364 694 l 125 694 "},"к":{"ha":1074,"x_min":117,"x_max":1076,"o":"m 117 694 l 117 0 l 356 0 l 356 258 l 738 0 l 1076 0 l 525 349 l 1063 694 l 738 694 l 356 436 l 356 694 l 117 694 "},"л":{"ha":1039,"x_min":19,"x_max":951,"o":"m 74 -18 q 310 44 222 -18 q 408 219 399 106 l 431 492 l 713 492 l 713 0 l 951 0 l 951 694 l 208 694 l 167 207 q 19 94 158 94 l 24 -17 q 74 -18 42 -18 "},"м":{"ha":1406,"x_min":125,"x_max":1281,"o":"m 125 694 l 125 0 l 364 0 l 364 375 l 688 0 l 718 0 l 1042 374 l 1042 0 l 1281 0 l 1281 694 l 1050 694 l 703 279 l 356 694 l 125 694 "},"н":{"ha":1188,"x_min":125,"x_max":1063,"o":"m 125 694 l 125 0 l 364 0 l 364 261 l 824 261 l 824 0 l 1063 0 l 1063 694 l 824 694 l 824 464 l 364 464 l 364 694 l 125 694 "},"о":{"ha":997,"x_min":58,"x_max":939,"o":"m 499 -22 q 730 24 631 -22 q 884 153 829 69 q 939 347 939 238 q 884 541 939 457 q 730 671 829 625 q 499 717 631 717 q 267 671 367 717 q 113 541 168 625 q 58 347 58 457 q 113 153 58 238 q 267 24 168 69 q 499 -22 367 -22 m 499 167 q 342 217 401 167 q 283 347 283 267 q 342 478 283 429 q 499 528 401 528 q 655 478 596 528 q 714 347 714 429 q 655 217 714 267 q 499 167 596 167 "},"п":{"ha":1088,"x_min":117,"x_max":971,"o":"m 117 694 l 117 0 l 356 0 l 356 483 l 732 483 l 732 0 l 971 0 l 971 694 l 117 694 "},"р":{"ha":1094,"x_min":90,"x_max":1036,"o":"m 667 717 q 440 648 536 717 q 321 468 344 579 l 304 468 l 335 694 l 90 694 l 90 -278 l 329 -278 l 329 225 l 335 225 q 454 44 358 110 q 679 -22 550 -22 q 863 24 782 -22 q 990 152 944 69 q 1036 342 1036 235 q 990 538 1036 453 q 859 670 943 624 q 667 717 775 717 m 586 528 q 742 480 679 528 q 806 344 806 432 q 742 213 806 260 q 586 167 679 167 q 428 213 493 167 q 363 344 363 260 q 428 479 363 431 q 586 528 493 528 "},"с":{"ha":885,"x_min":58,"x_max":826,"o":"m 500 -22 q 667 -6 597 -22 q 826 51 736 11 l 826 250 q 690 188 761 208 q 526 167 618 167 q 352 216 415 167 q 289 347 289 265 q 349 478 289 429 q 517 528 408 528 q 680 506 606 528 q 826 442 754 483 l 826 644 q 667 700 740 683 q 501 717 593 717 q 269 671 369 717 q 113 542 168 625 q 58 347 58 458 q 115 153 58 238 q 273 24 172 69 q 500 -22 374 -22 "},"т":{"ha":1001,"x_min":40,"x_max":961,"o":"m 382 492 l 382 0 l 621 0 l 621 492 l 961 492 l 961 694 l 40 694 l 40 492 l 382 492 "},"у":{"ha":1096,"x_min":35,"x_max":1061,"o":"m 431 8 l 276 -278 l 539 -278 l 1061 694 l 799 694 l 553 244 l 306 694 l 35 694 l 431 8 "},"ф":{"ha":997,"x_min":58,"x_max":939,"o":"m 939 347 q 842 592 939 494 q 583 711 746 690 l 583 839 l 414 839 l 414 711 q 155 592 251 690 q 58 347 58 494 q 155 102 58 200 q 414 -17 251 4 l 414 -133 l 583 -133 l 583 -17 q 842 102 746 4 q 939 347 939 200 m 283 347 q 318 453 283 408 q 414 515 353 497 l 414 179 q 318 242 353 197 q 283 347 283 286 m 583 179 l 583 515 q 679 453 644 497 q 714 347 714 408 q 679 242 714 286 q 583 179 644 197 "},"х":{"ha":1131,"x_min":35,"x_max":1096,"o":"m 403 349 l 35 0 l 338 0 l 554 204 l 771 0 l 1074 0 l 717 338 l 1096 694 l 792 694 l 565 482 l 340 694 l 36 694 l 403 349 "},"ч":{"ha":1010,"x_min":58,"x_max":931,"o":"m 694 451 l 672 0 l 931 0 l 931 694 l 692 694 l 692 647 q 665 478 692 553 q 588 363 638 404 q 472 322 538 322 q 371 347 408 322 q 315 428 333 371 q 297 582 297 485 l 297 694 l 58 694 l 58 558 q 88 309 58 399 q 179 182 118 219 q 343 143 240 144 q 581 218 500 143 q 688 451 663 293 l 694 451 "},"ц":{"ha":1106,"x_min":125,"x_max":1083,"o":"m 844 0 l 844 -143 l 1083 -143 l 1083 203 l 914 203 l 914 694 l 675 694 l 675 203 l 364 203 l 364 694 l 125 694 l 125 0 l 844 0 "},"ш":{"ha":1557,"x_min":125,"x_max":1432,"o":"m 125 694 l 125 0 l 1432 0 l 1432 694 l 1193 694 l 1193 203 l 897 203 l 897 694 l 658 694 l 658 203 l 364 203 l 364 694 l 125 694 "},"щ":{"ha":1624,"x_min":125,"x_max":1601,"o":"m 1363 0 l 1363 -143 l 1601 -143 l 1601 203 l 1432 203 l 1432 694 l 1193 694 l 1193 203 l 897 203 l 897 694 l 658 694 l 658 203 l 364 203 l 364 694 l 125 694 l 125 0 l 1363 0 "},"ь":{"ha":1167,"x_min":117,"x_max":1092,"o":"m 117 972 l 117 0 l 765 0 q 937 40 863 0 q 1051 147 1011 79 q 1092 297 1092 215 q 1001 517 1092 440 q 765 593 911 593 l 356 593 l 356 972 l 117 972 m 731 194 l 356 194 l 356 400 l 731 400 q 823 376 793 400 q 853 297 853 351 q 823 219 853 243 q 731 194 793 194 "},"ъ":{"ha":1167,"x_min":-42,"x_max":1092,"o":"m 117 769 l 117 0 l 765 0 q 937 40 863 0 q 1051 147 1011 79 q 1092 297 1092 215 q 1001 517 1092 440 q 765 593 911 593 l 356 593 l 356 972 l -42 972 l -42 769 l 117 769 m 731 194 l 356 194 l 356 400 l 731 400 q 823 376 793 400 q 853 297 853 351 q 823 219 853 243 q 731 194 793 194 "},"ы":{"ha":1654,"x_min":125,"x_max":1529,"o":"m 125 972 l 125 0 l 775 0 q 947 40 872 0 q 1061 147 1021 79 q 1101 297 1101 215 q 1011 517 1101 440 q 775 593 921 593 l 364 593 l 364 972 l 125 972 m 1290 972 l 1290 0 l 1529 0 l 1529 972 l 1290 972 m 740 194 l 364 194 l 364 400 l 740 400 q 833 376 803 400 q 863 297 863 351 q 833 219 863 243 q 740 194 803 194 "},"э":{"ha":857,"x_min":31,"x_max":799,"o":"m 354 717 q 190 700 263 717 q 31 644 117 683 l 31 442 q 176 506 101 483 q 339 528 250 528 q 476 499 421 528 q 554 418 532 469 l 239 418 l 239 276 l 553 276 q 472 196 529 225 q 329 167 414 167 q 167 188 239 167 q 31 250 96 208 l 31 51 q 190 -6 122 11 q 356 -22 258 -22 q 584 24 483 -22 q 742 153 685 69 q 799 347 799 238 q 744 542 799 458 q 588 671 689 625 q 354 717 488 717 "},"ю":{"ha":1382,"x_min":90,"x_max":1300,"o":"m 860 717 q 581 644 694 717 q 433 449 467 572 l 329 449 l 329 694 l 90 694 l 90 0 l 329 0 l 329 246 l 433 246 q 581 50 467 122 q 860 -22 694 -22 q 1091 24 992 -22 q 1245 153 1190 69 q 1300 347 1300 238 q 1245 541 1300 457 q 1091 671 1190 625 q 860 717 992 717 m 860 167 q 703 217 763 167 q 644 347 644 267 q 703 478 644 429 q 860 528 763 528 q 1016 478 957 528 q 1075 347 1075 428 q 1016 217 1075 267 q 860 167 957 167 "},"я":{"ha":1126,"x_min":42,"x_max":1001,"o":"m 42 0 l 321 0 q 463 152 410 106 q 557 212 517 199 q 660 225 597 225 l 764 225 l 763 0 l 1001 0 l 1001 685 l 425 685 q 186 639 260 685 q 113 488 113 593 q 186 326 113 375 q 425 276 260 276 l 504 276 q 326 245 399 271 q 190 163 254 219 q 42 0 126 107 m 764 386 l 543 386 q 430 392 469 386 q 371 413 390 397 q 351 461 351 429 q 371 503 351 489 q 430 521 390 517 q 543 525 469 525 l 765 525 l 764 386 "},"⁄":{"ha":1483,"x_min":56,"x_max":1428,"o":"m 1211 1111 l 56 -139 l 272 -139 l 1428 1111 l 1211 1111 "},"½":{"ha":2408,"x_min":69,"x_max":2344,"o":"m 1538 1003 l 582 -31 l 761 -31 l 1717 1003 l 1538 1003 m 396 749 l 396 224 l 558 224 l 558 888 l 453 888 l 69 704 l 69 542 l 396 749 m 1631 181 l 1631 85 l 2324 85 l 2324 224 l 1828 224 q 1892 272 1846 253 q 2024 313 1939 290 q 2188 365 2124 339 q 2299 440 2253 390 q 2344 568 2344 489 q 2260 719 2344 676 q 1993 763 2175 763 q 1799 750 1897 763 q 1654 719 1700 738 l 1654 575 q 1788 607 1690 592 q 1967 622 1885 622 q 2122 603 2074 622 q 2169 536 2169 583 q 2125 486 2169 507 q 1982 436 2081 465 q 1804 376 1874 404 q 1683 299 1735 347 q 1631 181 1632 251 "},"¼":{"ha":2226,"x_min":69,"x_max":2126,"o":"m 1539 1003 l 583 -31 l 763 -31 l 1718 1003 l 1539 1003 m 396 749 l 396 224 l 558 224 l 558 888 l 453 888 l 69 704 l 69 542 l 396 749 m 1872 196 l 1872 85 l 2035 85 l 2035 196 l 2126 196 l 2126 333 l 2035 333 l 2035 749 l 1785 749 l 1336 301 l 1336 196 l 1872 196 m 1872 333 l 1558 333 l 1872 650 l 1872 333 "},"¾":{"ha":2236,"x_min":60,"x_max":2136,"o":"m 1549 1003 l 593 -31 l 772 -31 l 1728 1003 l 1549 1003 m 400 208 q 676 251 581 208 q 772 397 772 294 q 729 496 772 460 q 637 544 686 532 q 553 558 588 557 q 588 565 553 558 q 688 608 622 572 q 754 722 754 643 q 657 865 754 825 q 381 904 560 904 q 210 891 304 904 q 60 854 115 878 l 60 708 q 205 748 108 731 q 372 765 301 765 q 535 747 471 765 q 600 692 600 729 q 571 653 600 667 q 460 630 542 639 q 214 614 378 621 l 214 499 q 456 486 368 496 q 581 458 543 476 q 618 410 618 440 q 372 347 618 347 q 203 364 299 347 q 60 403 107 381 l 60 257 q 212 221 118 233 q 400 208 306 208 m 1882 192 l 1882 81 l 2044 81 l 2044 192 l 2136 192 l 2136 329 l 2044 329 l 2044 744 l 1794 744 l 1346 297 l 1346 192 l 1882 192 m 1882 329 l 1568 329 l 1882 646 l 1882 329 "},"⅛":{"ha":2367,"x_min":69,"x_max":2300,"o":"m 1539 1003 l 583 -31 l 763 -31 l 1718 1003 l 1539 1003 m 396 749 l 396 224 l 558 224 l 558 888 l 453 888 l 69 704 l 69 542 l 396 749 m 1936 65 q 2200 117 2100 65 q 2300 258 2300 169 q 2237 365 2300 328 q 2081 411 2174 401 q 2224 467 2165 425 q 2282 579 2282 510 q 2183 714 2282 667 q 1925 761 2083 761 q 1665 713 1760 761 q 1569 579 1569 665 q 1628 467 1569 510 q 1771 411 1686 425 q 1614 365 1678 401 q 1550 258 1550 328 q 1653 115 1550 165 q 1936 65 1756 65 m 1925 479 q 1774 499 1814 479 q 1733 554 1733 519 q 1787 611 1733 593 q 1925 629 1840 629 q 2063 611 2010 629 q 2117 554 2117 593 q 2075 499 2117 519 q 1925 479 2033 479 m 1925 199 q 1714 271 1714 199 q 1760 326 1714 307 q 1925 344 1807 344 q 2090 326 2043 344 q 2136 271 2136 307 q 2083 217 2136 235 q 1925 199 2029 199 "},"⅜":{"ha":2376,"x_min":60,"x_max":2310,"o":"m 1533 1003 l 578 -31 l 757 -31 l 1713 1003 l 1533 1003 m 400 208 q 676 251 581 208 q 772 397 772 294 q 729 496 772 460 q 637 544 686 532 q 553 558 588 557 q 588 565 553 558 q 688 608 622 572 q 754 722 754 643 q 657 865 754 825 q 381 904 560 904 q 210 891 304 904 q 60 854 115 878 l 60 708 q 205 748 108 731 q 372 765 301 765 q 535 747 471 765 q 600 692 600 729 q 571 653 600 667 q 460 630 542 639 q 214 614 378 621 l 214 499 q 456 486 368 496 q 581 458 543 476 q 618 410 618 440 q 372 347 618 347 q 203 364 299 347 q 60 403 107 381 l 60 257 q 212 221 118 233 q 400 208 306 208 m 1946 61 q 2210 113 2110 61 q 2310 254 2310 165 q 2247 360 2310 324 q 2090 407 2183 397 q 2233 463 2175 421 q 2292 575 2292 506 q 2192 710 2292 663 q 1935 757 2093 757 q 1674 709 1769 757 q 1579 575 1579 661 q 1638 463 1579 506 q 1781 407 1696 421 q 1624 360 1688 397 q 1560 254 1560 324 q 1663 111 1560 161 q 1946 61 1765 61 m 1935 475 q 1783 495 1824 475 q 1743 550 1743 515 q 1797 607 1743 589 q 1935 625 1850 625 q 2073 607 2019 625 q 2126 550 2126 589 q 2085 495 2126 515 q 1935 475 2043 475 m 1935 194 q 1724 267 1724 194 q 1770 322 1724 303 q 1935 340 1817 340 q 2099 322 2053 340 q 2146 267 2146 303 q 2092 213 2146 231 q 1935 194 2039 194 "},"⅝":{"ha":2432,"x_min":67,"x_max":2365,"o":"m 1594 1003 l 639 -31 l 818 -31 l 1774 1003 l 1594 1003 m 371 204 q 651 264 547 204 q 754 432 754 324 q 672 599 754 549 q 456 650 589 650 q 320 641 385 650 q 211 614 256 632 l 235 746 l 725 746 l 725 883 l 114 883 l 74 543 l 147 475 q 267 513 201 499 q 390 528 332 528 q 542 506 493 528 q 592 436 592 483 q 534 367 592 390 q 374 343 476 343 q 203 360 290 343 q 67 403 115 378 l 67 253 q 204 217 119 229 q 371 204 289 204 m 2001 61 q 2265 113 2165 61 q 2365 254 2365 165 q 2302 360 2365 324 q 2146 407 2239 397 q 2289 463 2231 421 q 2347 575 2347 506 q 2248 710 2347 663 q 1990 757 2149 757 q 1730 709 1825 757 q 1635 575 1635 661 q 1693 463 1635 506 q 1836 407 1751 421 q 1679 360 1743 397 q 1615 254 1615 324 q 1718 111 1615 161 q 2001 61 1821 61 m 1990 475 q 1839 495 1879 475 q 1799 550 1799 515 q 1852 607 1799 589 q 1990 625 1906 625 q 2128 607 2075 625 q 2182 550 2182 589 q 2140 495 2182 515 q 1990 475 2099 475 m 1990 194 q 1779 267 1779 194 q 1826 322 1779 303 q 1990 340 1872 340 q 2155 322 2108 340 q 2201 267 2201 303 q 2148 213 2201 231 q 1990 194 2094 194 "},"⅞":{"ha":2247,"x_min":39,"x_max":2181,"o":"m 1392 1003 l 436 -31 l 615 -31 l 1571 1003 l 1392 1003 m 553 746 l 124 219 l 344 219 l 797 814 l 797 883 l 39 883 l 39 746 l 553 746 m 1817 61 q 2081 113 1981 61 q 2181 254 2181 165 q 2117 360 2181 324 q 1961 407 2054 397 q 2104 463 2046 421 q 2163 575 2163 506 q 2063 710 2163 663 q 1806 757 1964 757 q 1545 709 1640 757 q 1450 575 1450 661 q 1508 463 1450 506 q 1651 407 1567 421 q 1494 360 1558 397 q 1431 254 1431 324 q 1533 111 1431 161 q 1817 61 1636 61 m 1806 475 q 1654 495 1694 475 q 1614 550 1614 515 q 1667 607 1614 589 q 1806 625 1721 625 q 1944 607 1890 625 q 1997 550 1997 589 q 1956 495 1997 515 q 1806 475 1914 475 m 1806 194 q 1594 267 1594 194 q 1641 322 1594 303 q 1806 340 1688 340 q 1970 322 1924 340 q 2017 267 2017 303 q 1963 213 2017 231 q 1806 194 1910 194 "},".":{"ha":375,"x_min":53,"x_max":324,"o":"m 188 -18 q 287 17 250 -18 q 324 111 324 51 q 285 204 324 169 q 188 239 247 239 q 90 204 126 239 q 53 111 53 169 q 90 17 53 51 q 188 -18 126 -18 "},",":{"ha":376,"x_min":42,"x_max":335,"o":"m 129 140 l 42 -235 l 178 -235 l 335 140 l 129 140 "},":":{"ha":424,"x_min":53,"x_max":324,"o":"m 188 407 q 287 442 250 407 q 324 536 324 476 q 285 629 324 594 q 188 664 247 664 q 90 629 126 664 q 53 536 53 594 q 90 442 53 476 q 188 407 126 407 m 188 -18 q 287 17 250 -18 q 324 111 324 51 q 285 204 324 169 q 188 239 247 239 q 90 204 126 239 q 53 111 53 169 q 90 17 53 51 q 188 -18 126 -18 "},";":{"ha":407,"x_min":42,"x_max":354,"o":"m 129 140 l 42 -235 l 178 -235 l 335 140 l 129 140 m 218 407 q 317 442 281 407 q 354 536 354 476 q 316 629 354 594 q 218 664 278 664 q 120 629 157 664 q 83 536 83 594 q 120 442 83 476 q 218 407 157 407 "},"…":{"ha":1257,"x_min":53,"x_max":1157,"o":"m 188 -18 q 287 17 250 -18 q 324 111 324 51 q 285 204 324 169 q 188 239 247 239 q 90 204 126 239 q 53 111 53 169 q 90 17 53 51 q 188 -18 126 -18 m 604 -18 q 703 17 667 -18 q 740 111 740 51 q 702 204 740 169 q 604 239 664 239 q 506 204 543 239 q 469 111 469 169 q 506 17 469 51 q 604 -18 543 -18 m 1021 -18 q 1120 17 1083 -18 q 1157 111 1157 51 q 1119 204 1157 169 q 1021 239 1081 239 q 923 204 960 239 q 886 111 886 169 q 923 17 886 51 q 1021 -18 960 -18 "},"!":{"ha":421,"x_min":67,"x_max":338,"o":"m 86 972 l 100 408 l 322 408 l 336 972 l 86 972 m 201 -18 q 301 17 264 -18 q 338 111 338 51 q 299 204 338 169 q 201 239 261 239 q 103 204 140 239 q 67 111 67 169 q 103 17 67 51 q 201 -18 140 -18 "},"¡":{"ha":403,"x_min":67,"x_max":338,"o":"m 201 722 q 103 688 140 722 q 67 593 67 653 q 103 500 67 535 q 201 465 140 465 q 299 500 261 465 q 338 593 338 535 q 301 688 338 653 q 201 722 264 722 m 322 296 l 100 296 l 86 -268 l 336 -268 l 322 296 "},"?":{"ha":1072,"x_min":25,"x_max":1017,"o":"m 396 313 l 626 313 q 665 364 633 344 q 763 408 697 383 q 892 468 840 439 q 980 554 943 497 q 1017 701 1017 611 q 886 917 1017 840 q 532 993 756 993 q 309 961 424 993 q 110 844 194 929 q 25 610 25 758 l 279 610 q 341 742 279 697 q 525 788 403 788 q 714 758 649 788 q 779 657 779 728 q 740 583 779 608 q 619 531 700 557 q 503 483 547 506 q 427 419 458 461 q 396 313 396 378 m 507 -18 q 607 17 571 -18 q 643 111 643 51 q 606 204 643 169 q 507 239 568 239 q 410 204 447 239 q 372 111 372 169 q 410 17 372 53 q 507 -18 447 -18 "},"¿":{"ha":1031,"x_min":-28,"x_max":965,"o":"m 482 722 q 382 688 418 722 q 346 593 346 653 q 383 500 346 535 q 482 465 421 465 q 579 500 542 465 q 617 593 617 535 q 579 687 617 651 q 482 722 542 722 m 593 393 l 363 393 q 323 341 356 361 q 226 296 290 321 q 97 236 149 265 q 9 150 46 207 q -28 3 -28 93 q 103 -212 -28 -136 q 457 -289 233 -289 q 680 -257 565 -289 q 880 -140 794 -225 q 965 94 965 -54 l 710 94 q 648 -38 710 7 q 465 -83 586 -83 q 276 -53 342 -83 q 210 47 210 -24 q 249 122 210 96 q 369 174 289 147 q 486 221 442 199 q 562 285 531 243 q 593 393 593 326 "},"·":{"ha":375,"x_min":53,"x_max":324,"o":"m 188 324 q 287 358 250 324 q 324 453 324 393 q 285 546 324 511 q 188 581 247 581 q 90 546 126 581 q 53 453 53 511 q 90 358 53 393 q 188 324 126 324 "},"•":{"ha":844,"x_min":68,"x_max":775,"o":"m 419 94 q 679 185 583 94 q 775 429 775 275 q 730 606 775 531 q 604 723 685 682 q 419 764 524 764 q 236 723 315 764 q 113 606 157 682 q 68 429 68 531 q 113 252 68 328 q 236 135 157 176 q 419 94 315 94 "},"*":{"ha":854,"x_min":42,"x_max":813,"o":"m 390 540 l 344 269 l 508 269 l 464 540 l 642 321 l 757 425 l 514 588 l 813 546 l 813 696 l 514 654 l 757 817 l 642 922 l 464 701 l 508 972 l 344 972 l 390 701 l 213 922 l 97 817 l 339 654 l 42 696 l 42 546 l 339 588 l 97 425 l 213 321 l 390 540 "},"#":{"ha":1401,"x_min":42,"x_max":1360,"o":"m 1124 539 l 1335 539 l 1360 694 l 1157 694 l 1217 972 l 1000 972 l 940 694 l 583 694 l 643 972 l 426 972 l 367 694 l 111 694 l 86 539 l 333 539 l 306 410 l 67 410 l 42 254 l 271 254 l 217 0 l 433 0 l 488 254 l 844 254 l 790 0 l 1007 0 l 1061 254 l 1290 254 l 1315 410 l 1096 410 l 1124 539 m 907 539 l 879 410 l 522 410 l 550 539 l 907 539 "},"/":{"ha":1456,"x_min":42,"x_max":1414,"o":"m 1197 972 l 42 0 l 258 0 l 1414 972 l 1197 972 "},"\\":{"ha":1456,"x_min":42,"x_max":1414,"o":"m 42 972 l 1197 0 l 1414 0 l 258 972 l 42 972 "},"(":{"ha":653,"x_min":69,"x_max":583,"o":"m 583 -190 l 583 13 q 411 72 486 13 q 295 239 336 132 q 254 486 254 346 q 295 733 254 626 q 411 900 336 840 q 583 960 486 960 l 583 1163 q 308 1078 424 1163 q 131 841 192 993 q 69 486 69 689 q 131 131 69 283 q 308 -106 192 -21 q 583 -190 424 -190 "},")":{"ha":653,"x_min":69,"x_max":583,"o":"m 69 13 l 69 -190 q 345 -106 229 -190 q 522 131 461 -21 q 583 486 583 283 q 522 841 583 689 q 345 1078 461 993 q 69 1163 229 1163 l 69 960 q 313 839 228 958 q 399 486 399 719 q 313 134 399 254 q 69 13 228 14 "},"{":{"ha":969,"x_min":42,"x_max":900,"o":"m 900 -111 l 900 -26 q 725 -9 792 -26 q 625 51 658 8 q 592 171 592 94 q 569 335 592 269 q 484 440 547 400 q 303 486 421 481 q 483 549 425 506 q 554 647 540 592 q 568 789 568 701 q 600 913 568 869 q 700 975 632 957 q 885 993 768 993 l 885 1079 q 564 1049 674 1079 q 416 957 454 1018 q 378 789 378 896 q 302 600 378 665 q 42 532 226 535 l 42 438 q 317 372 232 438 q 403 171 403 306 q 442 8 403 68 q 588 -81 481 -51 q 900 -111 696 -111 "},"}":{"ha":979,"x_min":81,"x_max":938,"o":"m 81 -26 l 81 -111 q 392 -81 285 -111 q 538 8 499 -51 q 576 171 576 68 q 662 372 576 306 q 938 438 747 438 l 938 532 q 677 600 753 535 q 601 789 601 665 q 563 957 601 896 q 416 1049 525 1018 q 94 1079 307 1079 l 94 993 q 280 975 211 993 q 381 913 349 957 q 413 789 413 869 q 426 646 413 700 q 497 549 440 592 q 676 486 554 506 q 496 440 558 481 q 411 335 433 400 q 389 171 389 269 q 316 17 389 60 q 81 -26 243 -26 "},"[":{"ha":713,"x_min":42,"x_max":671,"o":"m 281 817 l 671 817 l 671 972 l 42 972 l 42 -264 l 671 -264 l 671 -108 l 281 -108 l 281 817 "},"]":{"ha":713,"x_min":42,"x_max":671,"o":"m 671 -264 l 671 972 l 42 972 l 42 817 l 432 817 l 432 -108 l 42 -108 l 42 -264 l 671 -264 "},"-":{"ha":639,"x_min":42,"x_max":597,"o":"m 42 558 l 42 360 l 597 360 l 597 558 l 42 558 "},"–":{"ha":778,"x_min":42,"x_max":736,"o":"m 42 558 l 42 360 l 736 360 l 736 558 l 42 558 "},"—":{"ha":1472,"x_min":42,"x_max":1431,"o":"m 42 558 l 42 360 l 1431 360 l 1431 558 l 42 558 "},"_":{"ha":1472,"x_min":42,"x_max":1431,"o":"m 42 199 l 42 0 l 1431 0 l 1431 199 l 42 199 "},"‚":{"ha":407,"x_min":42,"x_max":335,"o":"m 129 140 l 42 -235 l 178 -235 l 335 140 l 129 140 "},"„":{"ha":715,"x_min":42,"x_max":643,"o":"m 129 140 l 42 -235 l 178 -235 l 335 140 l 129 140 m 438 140 l 350 -235 l 486 -235 l 643 140 l 438 140 "},"“":{"ha":715,"x_min":74,"x_max":674,"o":"m 278 597 l 365 972 l 231 972 l 74 597 l 278 597 m 586 597 l 674 972 l 539 972 l 382 597 l 586 597 "},"”":{"ha":715,"x_min":42,"x_max":643,"o":"m 129 972 l 42 597 l 178 597 l 335 972 l 129 972 m 438 972 l 350 597 l 486 597 l 643 972 l 438 972 "},"‘":{"ha":407,"x_min":74,"x_max":365,"o":"m 278 597 l 365 972 l 231 972 l 74 597 l 278 597 "},"’":{"ha":407,"x_min":42,"x_max":335,"o":"m 129 972 l 42 597 l 178 597 l 335 972 l 129 972 "},"«":{"ha":1208,"x_min":53,"x_max":1157,"o":"m 333 347 l 631 694 l 339 694 l 53 347 l 339 0 l 631 0 l 333 347 m 860 347 l 1157 694 l 865 694 l 579 347 l 865 0 l 1157 0 l 860 347 "},"»":{"ha":1229,"x_min":53,"x_max":1157,"o":"m 631 347 l 344 694 l 53 694 l 350 347 l 53 0 l 344 0 l 631 347 m 1157 347 l 871 694 l 579 694 l 876 347 l 579 0 l 871 0 l 1157 347 "},"‹":{"ha":661,"x_min":42,"x_max":619,"o":"m 322 347 l 619 694 l 328 694 l 42 347 l 328 0 l 619 0 l 322 347 "},"›":{"ha":661,"x_min":42,"x_max":619,"o":"m 619 347 l 333 694 l 42 694 l 339 347 l 42 0 l 333 0 l 619 347 "},"\"":{"ha":560,"x_min":42,"x_max":518,"o":"m 42 972 l 65 597 l 206 597 l 251 972 l 42 972 m 307 972 l 331 597 l 472 597 l 518 972 l 307 972 "},"'":{"ha":293,"x_min":42,"x_max":251,"o":"m 42 972 l 65 597 l 206 597 l 251 972 l 42 972 "},"¢":{"ha":818,"x_min":44,"x_max":813,"o":"m 503 653 q 666 631 592 653 q 813 567 740 608 l 813 769 q 692 815 747 799 q 576 838 636 832 l 576 972 l 317 972 l 317 818 q 117 690 189 782 q 44 472 44 599 q 118 256 44 347 q 317 126 192 165 l 317 -42 l 576 -42 l 576 107 q 690 129 638 113 q 813 176 743 146 l 813 375 q 676 313 747 333 q 513 292 604 292 q 338 341 401 292 q 275 472 275 390 q 335 603 275 554 q 503 653 394 653 "},"¤":{"ha":1000,"x_min":57,"x_max":944,"o":"m 57 190 l 225 22 l 372 168 q 499 153 431 153 q 629 167 575 153 l 775 22 l 944 190 l 829 304 q 867 458 867 369 q 825 621 867 554 l 944 740 l 775 910 l 618 751 q 499 764 564 764 q 383 751 436 764 l 225 910 l 57 740 l 178 619 q 131 458 131 551 q 171 306 131 371 l 57 190 m 499 311 q 369 351 415 311 q 322 458 322 390 q 369 566 322 526 q 499 606 415 606 q 628 566 582 606 q 675 458 675 526 q 628 351 675 390 q 499 311 582 311 "},"$":{"ha":1199,"x_min":56,"x_max":1163,"o":"m 1163 299 q 1086 475 1163 415 q 905 553 1010 535 q 635 582 800 572 q 467 597 528 589 q 367 625 407 604 q 328 686 328 646 q 404 765 328 738 q 619 792 481 792 q 815 755 743 792 q 885 656 886 718 l 1138 656 q 1024 877 1136 789 q 719 988 911 965 l 719 1160 l 460 1160 l 460 985 q 188 879 288 960 q 88 675 88 799 q 165 492 88 553 q 347 415 242 432 q 618 389 453 397 q 785 378 726 385 q 883 351 844 371 q 922 290 922 331 q 837 208 922 236 q 593 181 751 181 q 386 217 463 181 q 311 317 310 254 l 58 317 q 163 102 56 189 q 460 -12 271 15 l 460 -153 l 719 -153 l 719 -18 q 1043 83 924 0 q 1163 299 1163 167 "},"€":{"ha":1413,"x_min":32,"x_max":1368,"o":"m 782 181 q 601 215 678 181 q 481 317 524 250 l 907 317 l 907 460 l 436 460 q 435 486 435 468 q 436 515 435 506 l 907 515 l 907 658 l 482 658 q 602 758 525 724 q 782 792 679 792 q 1025 728 932 792 q 1126 549 1118 665 l 1368 549 q 1295 782 1368 681 q 1089 939 1222 883 q 782 994 956 994 q 426 905 574 994 q 224 658 278 815 l 32 658 l 32 515 l 197 515 q 196 486 196 506 l 196 460 l 32 460 l 32 317 l 222 317 q 424 68 276 158 q 782 -22 572 -22 q 1089 33 956 -22 q 1295 190 1222 89 q 1368 424 1368 292 l 1126 424 q 1026 244 1119 307 q 782 181 933 181 "},"£":{"ha":1253,"x_min":117,"x_max":1183,"o":"m 726 788 q 985 769 831 788 q 1183 733 1140 750 l 1183 944 q 972 978 1124 964 q 690 993 819 993 q 400 966 511 993 q 233 876 289 939 q 178 703 178 813 q 197 540 178 624 l 117 540 l 117 381 l 233 381 q 236 346 236 358 q 208 267 235 301 q 118 200 182 232 l 118 0 l 1174 0 l 1174 194 l 306 194 q 436 381 415 268 l 1103 381 l 1103 540 l 436 540 l 431 586 q 426 633 426 611 q 499 755 426 722 q 726 788 572 788 "},"¥":{"ha":1338,"x_min":35,"x_max":1358,"o":"m 972 506 l 1358 972 l 1064 972 l 696 514 l 329 972 l 35 972 l 418 506 l 203 506 l 203 363 l 536 363 l 576 314 l 576 307 l 203 307 l 203 164 l 576 164 l 576 0 l 815 0 l 815 164 l 1189 164 l 1189 307 l 815 307 l 815 315 l 854 363 l 1189 363 l 1189 506 l 972 506 "},"+":{"ha":806,"x_min":42,"x_max":764,"o":"m 304 360 l 304 99 l 503 99 l 503 360 l 764 360 l 764 558 l 501 558 l 501 821 l 303 821 l 303 558 l 42 558 l 42 360 l 304 360 "},"−":{"ha":806,"x_min":42,"x_max":764,"o":"m 42 558 l 42 360 l 764 360 l 764 558 l 42 558 "},"×":{"ha":833,"x_min":78,"x_max":728,"o":"m 78 275 l 218 135 l 403 319 l 588 135 l 728 275 l 543 460 l 728 646 l 588 786 l 403 600 l 218 785 l 78 644 l 263 460 l 78 275 "},"÷":{"ha":833,"x_min":47,"x_max":769,"o":"m 410 619 q 509 654 472 619 q 546 749 546 689 q 508 842 546 807 q 410 876 471 876 q 313 842 350 876 q 275 749 275 807 q 313 655 275 690 q 410 619 350 619 m 47 536 l 47 338 l 769 338 l 769 536 l 47 536 m 410 -18 q 509 17 472 -18 q 546 111 546 51 q 508 204 546 169 q 410 239 471 239 q 313 204 350 239 q 275 111 275 169 q 313 17 275 53 q 410 -18 350 -18 "},"=":{"ha":806,"x_min":42,"x_max":764,"o":"m 42 729 l 42 531 l 764 531 l 764 729 l 42 729 m 42 378 l 42 179 l 764 179 l 764 378 l 42 378 "},"≠":{"ha":806,"x_min":42,"x_max":764,"o":"m 153 179 l 68 28 l 264 28 l 349 179 l 764 179 l 764 378 l 458 378 l 544 531 l 764 531 l 764 729 l 654 729 l 728 861 l 532 861 l 458 729 l 42 729 l 42 531 l 349 531 l 263 378 l 42 378 l 42 179 l 153 179 "},">":{"ha":661,"x_min":42,"x_max":619,"o":"m 339 347 l 42 0 l 333 0 l 619 347 l 333 694 l 42 694 l 339 347 "},"<":{"ha":682,"x_min":42,"x_max":619,"o":"m 42 347 l 328 0 l 619 0 l 322 347 l 619 694 l 328 694 l 42 347 "},"≥":{"ha":833,"x_min":63,"x_max":796,"o":"m 447 479 l 88 283 l 450 283 l 796 479 l 450 675 l 88 675 l 447 479 m 63 143 l 63 0 l 764 0 l 764 143 l 63 143 "},"≤":{"ha":833,"x_min":63,"x_max":796,"o":"m 63 479 l 408 283 l 771 283 l 411 479 l 771 675 l 408 675 l 63 479 m 94 143 l 94 0 l 796 0 l 796 143 l 94 143 "},"±":{"ha":833,"x_min":42,"x_max":764,"o":"m 324 464 l 324 272 l 483 272 l 483 464 l 674 464 l 674 624 l 483 624 l 483 814 l 324 814 l 324 624 l 132 624 l 132 464 l 324 464 m 42 143 l 42 0 l 764 0 l 764 143 l 42 143 "},"≈":{"ha":613,"x_min":42,"x_max":571,"o":"m 400 431 q 522 480 475 431 q 571 611 569 529 l 488 611 q 463 537 486 561 q 400 513 440 513 q 363 523 379 513 q 319 557 346 533 q 267 599 290 585 q 213 613 244 613 q 90 563 138 613 q 42 432 43 513 l 126 432 q 151 506 128 481 q 213 531 174 531 q 244 521 229 531 q 279 492 258 511 q 335 447 308 463 q 400 431 363 431 m 400 194 q 522 244 475 194 q 571 375 569 293 l 488 375 q 463 301 486 325 q 400 276 440 276 q 363 287 379 276 q 319 321 346 297 q 267 363 290 349 q 213 376 244 376 q 90 326 138 376 q 42 196 43 276 l 126 196 q 151 269 128 244 q 213 294 174 294 q 244 285 229 294 q 279 256 258 275 q 335 210 308 226 q 400 194 363 194 "},"~":{"ha":613,"x_min":42,"x_max":571,"o":"m 400 431 q 522 480 475 431 q 571 611 569 529 l 488 611 q 463 537 486 561 q 400 513 440 513 q 363 523 379 513 q 319 557 346 533 q 267 599 290 585 q 213 613 244 613 q 90 563 138 613 q 42 432 43 513 l 126 432 q 151 506 128 481 q 213 531 174 531 q 244 521 229 531 q 279 492 258 511 q 335 447 308 463 q 400 431 363 431 "},"¬":{"ha":931,"x_min":42,"x_max":889,"o":"m 689 381 l 690 106 l 889 106 l 889 579 l 42 579 l 42 381 l 689 381 "},"^":{"ha":778,"x_min":42,"x_max":736,"o":"m 42 604 l 42 440 l 389 776 l 736 440 l 736 604 l 389 985 l 42 604 "},"∅":{"ha":975,"x_min":-37,"x_max":1025,"o":"m 869 561 l 1025 692 l 913 797 l 750 661 q 499 717 646 717 q 267 671 367 717 q 113 541 168 625 q 58 347 58 457 q 126 135 58 224 l -37 -3 l 68 -114 l 244 35 q 499 -22 354 -22 q 730 24 631 -22 q 884 153 829 69 q 939 347 939 238 q 869 561 939 469 m 283 347 q 342 478 283 429 q 499 528 401 528 q 579 517 542 528 l 297 279 q 283 347 283 307 m 714 347 q 655 217 714 267 q 499 167 596 167 q 415 178 456 167 l 700 418 q 714 347 714 383 "},"∞":{"ha":1372,"x_min":42,"x_max":1331,"o":"m 386 107 q 597 164 521 107 q 686 325 674 221 q 775 164 699 221 q 986 107 851 107 q 1166 151 1088 107 q 1288 268 1244 196 q 1331 424 1331 340 q 1286 584 1331 508 q 1162 706 1242 660 q 983 751 1082 751 q 776 690 854 751 q 686 519 699 629 q 597 690 674 628 q 389 751 521 751 q 210 706 290 751 q 86 584 131 660 q 42 424 42 508 q 85 268 42 340 q 206 151 128 196 q 386 107 285 107 m 401 288 q 290 324 335 283 q 246 424 246 364 q 285 519 246 481 q 389 557 325 557 q 497 520 458 557 q 536 424 536 483 q 501 333 536 369 q 401 288 467 296 m 971 288 q 871 333 906 296 q 836 424 836 369 q 875 520 836 483 q 983 557 914 557 q 1087 519 1047 557 q 1126 424 1126 481 q 1082 324 1126 364 q 971 288 1038 283 "},"∫":{"ha":968,"x_min":14,"x_max":954,"o":"m 32 -114 l 14 -194 q 408 -142 288 -194 q 551 3 529 -89 l 743 818 q 810 901 754 867 q 936 935 865 935 l 954 1015 q 560 963 681 1015 q 418 818 440 911 l 226 3 q 159 -80 215 -46 q 32 -114 103 -114 "},"∏":{"ha":1097,"x_min":42,"x_max":1056,"o":"m 151 774 l 151 -236 l 390 -236 l 390 774 l 707 774 l 707 -236 l 946 -236 l 946 774 l 1056 774 l 1056 972 l 42 972 l 42 774 l 151 774 "},"∑":{"ha":1097,"x_min":42,"x_max":1056,"o":"m 42 199 l 42 0 l 1056 0 l 1056 199 l 378 199 l 793 472 l 378 774 l 1056 774 l 1056 972 l 42 972 l 42 774 l 457 472 l 42 199 "},"√":{"ha":1540,"x_min":7,"x_max":1499,"o":"m 7 696 l 374 0 l 710 0 l 1118 774 l 1499 774 l 1499 972 l 960 972 l 542 178 l 269 696 l 7 696 "},"∂":{"ha":1161,"x_min":42,"x_max":1110,"o":"m 550 -17 q 961 114 813 -17 q 1110 503 1110 244 q 1027 785 1110 661 q 800 979 944 910 q 476 1049 656 1049 l 475 888 q 684 828 593 883 q 824 679 775 774 q 869 463 874 585 q 710 588 806 538 q 485 639 614 639 q 153 549 264 639 q 42 308 42 458 q 101 137 42 210 q 276 24 161 64 q 550 -17 390 -17 m 563 181 q 360 220 438 181 q 282 329 282 260 q 345 439 282 399 q 519 479 408 479 q 699 444 608 479 q 847 357 790 408 q 563 181 786 181 "},"%":{"ha":1443,"x_min":69,"x_max":1374,"o":"m 360 639 q 569 687 489 639 q 650 813 650 735 q 569 938 650 890 q 360 986 489 986 q 215 964 282 986 q 109 902 149 942 q 69 813 69 863 q 109 723 69 763 q 215 661 149 683 q 360 639 282 639 m 1119 972 l 153 0 l 339 0 l 1304 972 l 1119 972 m 360 715 q 270 741 304 715 q 236 813 236 767 q 270 885 236 858 q 360 911 304 911 q 451 884 417 911 q 485 810 485 857 q 450 740 485 765 q 360 715 415 715 m 1083 -14 q 1293 34 1213 -14 q 1374 160 1374 82 q 1293 285 1374 238 q 1083 333 1213 333 q 939 311 1006 333 q 833 249 872 289 q 793 160 793 210 q 833 70 793 110 q 939 8 872 31 q 1083 -14 1006 -14 m 1083 61 q 994 88 1029 61 q 960 160 960 114 q 994 231 960 206 q 1083 257 1029 257 q 1174 231 1140 257 q 1208 157 1208 204 q 1174 87 1208 113 q 1083 61 1140 61 "},"‰":{"ha":2110,"x_min":69,"x_max":2040,"o":"m 360 639 q 569 687 489 639 q 650 813 650 735 q 569 938 650 890 q 360 986 489 986 q 215 964 282 986 q 109 902 149 942 q 69 813 69 863 q 109 723 69 763 q 215 661 149 683 q 360 639 282 639 m 1119 972 l 153 0 l 339 0 l 1304 972 l 1119 972 m 360 715 q 270 741 304 715 q 236 813 236 767 q 270 885 236 858 q 360 911 304 911 q 451 884 417 911 q 485 810 485 857 q 450 740 485 765 q 360 715 415 715 m 1083 -14 q 1293 34 1213 -14 q 1374 160 1374 82 q 1293 285 1374 238 q 1083 333 1213 333 q 939 311 1006 333 q 833 249 872 289 q 793 160 793 210 q 833 70 793 110 q 939 8 872 31 q 1083 -14 1006 -14 m 1750 -14 q 1960 34 1879 -14 q 2040 160 2040 82 q 1960 285 2040 238 q 1750 333 1879 333 q 1606 311 1672 333 q 1499 249 1539 289 q 1460 160 1460 210 q 1499 70 1460 110 q 1606 8 1539 31 q 1750 -14 1672 -14 m 1083 61 q 994 88 1029 61 q 960 160 960 114 q 994 231 960 206 q 1083 257 1029 257 q 1174 231 1140 257 q 1208 157 1208 204 q 1174 87 1208 113 q 1083 61 1140 61 m 1750 61 q 1660 88 1694 61 q 1626 160 1626 114 q 1660 231 1626 206 q 1750 257 1694 257 q 1841 231 1807 257 q 1875 157 1875 204 q 1840 87 1875 113 q 1750 61 1806 61 "},"↑":{"ha":779,"x_min":42,"x_max":738,"o":"m 285 664 l 285 -81 l 494 -81 l 494 665 l 738 457 l 738 703 l 390 989 l 43 703 l 42 457 l 285 664 "},"→":{"ha":1153,"x_min":42,"x_max":1111,"o":"m 786 564 l 42 564 l 42 354 l 788 354 l 579 111 l 825 111 l 1111 458 l 825 806 l 579 807 l 786 564 "},"↓":{"ha":779,"x_min":42,"x_max":738,"o":"m 494 226 l 494 971 l 285 971 l 285 225 l 42 435 l 42 188 l 389 -99 l 736 188 l 738 435 l 494 226 "},"←":{"ha":1153,"x_min":42,"x_max":1111,"o":"m 367 354 l 1111 354 l 1111 563 l 365 563 l 575 806 l 328 806 l 42 458 l 328 111 l 575 110 l 367 354 "},"◊":{"ha":1008,"x_min":42,"x_max":967,"o":"m 42 347 l 328 0 l 681 0 l 967 347 l 681 694 l 328 694 l 42 347 m 686 347 l 504 135 l 322 347 l 504 560 l 686 347 "},"@":{"ha":1490,"x_min":69,"x_max":1421,"o":"m 744 1007 q 386 938 539 1007 q 151 741 233 868 q 69 447 69 614 q 151 153 69 281 q 386 -43 233 26 q 744 -112 539 -112 q 982 -85 871 -112 l 982 78 q 744 43 882 43 q 478 91 590 43 q 306 229 365 139 q 246 447 246 319 q 306 666 246 575 q 478 805 365 757 q 744 853 590 853 q 1011 807 897 853 q 1185 678 1125 761 q 1246 489 1246 596 q 1213 324 1246 389 q 1092 203 1179 260 l 1092 492 q 806 760 1092 760 q 644 742 732 760 q 482 697 556 725 l 482 533 q 619 577 542 560 q 760 594 696 594 q 861 573 828 594 q 896 506 894 551 q 540 447 671 490 q 410 301 410 403 q 473 183 410 214 q 622 151 536 151 q 821 202 751 151 q 918 363 890 253 l 929 363 l 903 169 l 1193 169 q 1365 297 1308 213 q 1421 489 1421 382 q 1338 750 1421 632 q 1101 938 1256 868 q 744 1007 947 1007 m 710 286 q 640 299 667 286 q 614 338 614 313 q 686 395 614 379 q 894 421 758 411 q 839 322 894 357 q 710 286 783 286 "},"&":{"ha":1314,"x_min":56,"x_max":1292,"o":"m 507 -17 q 693 6 597 -17 q 879 75 789 29 l 956 0 l 1292 0 l 1072 213 q 1224 411 1161 296 l 1064 585 q 900 379 1003 474 l 525 746 l 1011 746 l 1011 972 l 143 972 l 143 796 l 390 553 q 221 516 297 553 q 100 415 144 479 q 56 269 56 350 q 128 94 56 158 q 303 7 201 31 q 507 -17 404 -17 m 517 203 q 315 242 386 203 q 243 364 243 282 q 297 451 243 417 q 432 485 351 485 q 461 483 451 485 l 703 246 q 517 203 607 203 "},"¶":{"ha":1304,"x_min":42,"x_max":1263,"o":"m 547 379 l 547 -250 l 792 -250 l 792 972 l 368 972 q 197 933 271 972 q 82 825 122 893 q 42 675 42 757 q 132 456 42 532 q 368 379 222 379 l 547 379 m 1024 972 l 1024 -250 l 1263 -250 l 1263 972 l 1024 972 "},"§":{"ha":894,"x_min":42,"x_max":853,"o":"m 444 0 q 743 53 633 0 q 853 211 853 107 q 803 336 853 279 q 853 442 853 379 q 788 590 853 539 q 637 658 722 642 q 429 682 551 674 q 315 694 350 688 q 281 718 281 700 q 320 753 281 743 q 450 763 360 763 q 625 752 528 763 q 797 726 722 742 l 797 919 q 611 948 708 938 q 450 958 514 958 q 151 900 261 958 q 42 731 42 842 q 99 607 42 658 q 42 501 42 571 q 97 374 42 418 q 228 314 153 329 q 422 288 304 299 q 569 267 525 278 q 614 225 614 256 q 574 197 614 206 q 444 188 533 188 q 245 201 333 188 q 72 247 157 215 l 72 54 q 260 15 157 29 q 444 0 363 0 m 493 417 q 442 419 478 417 q 322 443 361 426 q 283 489 283 460 q 308 533 283 518 q 390 549 332 549 q 447 546 403 549 q 570 521 529 538 q 611 474 611 504 q 493 417 611 417 "},"©":{"ha":1340,"x_min":69,"x_max":1271,"o":"m 669 -22 q 992 41 857 -22 q 1199 219 1128 104 q 1271 486 1271 333 q 1199 755 1271 640 q 992 932 1128 869 q 669 994 857 994 q 351 931 486 994 q 142 753 215 868 q 69 486 69 639 q 141 219 69 333 q 348 41 213 104 q 669 -22 483 -22 m 669 15 q 366 75 493 15 q 172 240 239 135 q 106 483 106 346 q 172 728 106 621 q 365 897 238 836 q 669 957 492 957 q 979 898 853 957 q 1169 733 1106 839 q 1232 489 1232 628 q 1169 243 1232 350 q 981 76 1107 136 q 669 15 854 15 m 676 118 q 896 160 801 118 q 1042 280 990 203 q 1094 458 1094 357 l 854 458 q 799 347 847 389 q 676 306 750 306 q 547 356 596 306 q 497 488 497 406 q 547 619 497 569 q 676 669 596 669 q 795 631 747 669 q 851 528 843 592 l 1093 528 q 1041 700 1093 625 q 894 816 989 775 q 676 857 800 857 q 457 811 551 857 q 310 681 363 765 q 258 488 258 597 q 310 294 258 378 q 457 164 363 210 q 676 118 551 118 "},"®":{"ha":1340,"x_min":69,"x_max":1271,"o":"m 669 -22 q 992 41 857 -22 q 1199 219 1128 104 q 1271 486 1271 333 q 1199 755 1271 640 q 992 932 1128 869 q 669 994 857 994 q 351 931 486 994 q 142 753 215 868 q 69 486 69 639 q 141 219 69 333 q 348 41 213 104 q 669 -22 483 -22 m 669 15 q 366 75 493 15 q 172 240 239 135 q 106 483 106 346 q 172 728 106 621 q 365 897 238 836 q 669 957 492 957 q 979 898 853 957 q 1169 733 1106 839 q 1232 489 1232 628 q 1169 243 1232 350 q 981 76 1107 136 q 669 15 854 15 m 354 789 l 354 185 l 503 185 l 501 435 l 658 435 q 742 415 710 435 q 806 347 774 394 q 901 185 838 300 l 1078 185 q 983 352 1024 293 q 893 442 943 411 q 772 476 843 472 l 835 476 q 976 517 924 476 q 1029 629 1029 557 q 978 744 1029 700 q 835 789 926 789 l 354 789 m 804 550 l 501 550 l 501 668 l 804 668 q 863 653 844 668 q 881 607 881 639 q 804 550 881 550 "},"™":{"ha":1817,"x_min":93,"x_max":1771,"o":"m 401 835 l 401 308 l 564 308 l 564 835 l 874 835 l 874 972 l 93 972 l 93 835 l 401 835 m 933 972 l 933 308 l 1097 308 l 1097 690 l 1336 308 l 1368 308 l 1607 692 l 1607 308 l 1771 308 l 1771 972 l 1625 972 l 1351 542 l 1079 972 l 933 972 "},"°":{"ha":719,"x_min":69,"x_max":650,"o":"m 360 639 q 569 687 489 639 q 650 813 650 735 q 569 938 650 890 q 360 986 489 986 q 215 964 282 986 q 109 902 149 942 q 69 813 69 863 q 109 723 69 763 q 215 661 149 683 q 360 639 282 639 m 360 715 q 270 741 304 715 q 236 813 236 767 q 270 885 236 858 q 360 911 304 911 q 451 884 417 911 q 485 810 485 857 q 450 740 485 765 q 360 715 415 715 "},"|":{"ha":406,"x_min":83,"x_max":322,"o":"m 83 1000 l 83 -236 l 322 -236 l 322 1000 l 83 1000 "},"¦":{"ha":406,"x_min":83,"x_max":322,"o":"m 83 1000 l 83 435 l 322 435 l 322 1000 l 83 1000 m 83 344 l 83 -236 l 322 -236 l 322 344 l 83 344 "},"†":{"ha":806,"x_min":42,"x_max":764,"o":"m 283 494 l 283 -236 l 522 -236 l 522 494 l 764 494 l 764 693 l 522 693 l 522 1000 l 283 1000 l 283 693 l 42 693 l 42 494 l 283 494 "},"‡":{"ha":833,"x_min":42,"x_max":764,"o":"m 283 0 l 283 -236 l 522 -236 l 522 0 l 764 0 l 764 199 l 522 199 l 522 494 l 764 494 l 764 693 l 522 693 l 522 1000 l 283 1000 l 283 693 l 42 693 l 42 494 l 283 494 l 283 199 l 42 199 l 42 0 l 283 0 "},"̈":{"ha":0,"x_min":-747,"x_max":-69,"o":"m -610 747 q -508 779 -544 747 q -472 865 -472 811 q -508 951 -472 919 q -610 983 -544 983 q -709 951 -671 983 q -747 865 -747 918 q -709 780 -747 813 q -610 747 -671 747 m -207 747 q -106 779 -142 747 q -69 865 -69 811 q -106 951 -69 919 q -207 983 -142 983 q -306 951 -268 983 q -344 865 -344 918 q -306 780 -344 813 q -207 747 -268 747 "},"̇":{"ha":0,"x_min":-304,"x_max":-29,"o":"m -167 747 q -65 779 -101 747 q -29 865 -29 811 q -65 951 -29 919 q -167 983 -101 983 q -266 951 -228 983 q -304 865 -304 918 q -266 780 -304 813 q -167 747 -228 747 "},"̀":{"ha":0,"x_min":-468,"x_max":-69,"o":"m -468 949 l -69 756 l -69 901 l -468 1125 l -468 949 "},"́":{"ha":0,"x_min":-468,"x_max":-69,"o":"m -468 901 l -468 756 l -69 949 l -69 1125 l -468 901 "},"̋":{"ha":0,"x_min":-815,"x_max":-69,"o":"m -815 867 l -815 756 l -417 983 l -417 1125 l -815 867 m -468 867 l -468 756 l -69 983 l -69 1125 l -468 867 "},"̂":{"ha":0,"x_min":-867,"x_max":-69,"o":"m -69 882 l -468 1140 l -867 882 l -867 771 l -468 999 l -69 771 l -69 882 "},"̌":{"ha":0,"x_min":-867,"x_max":-69,"o":"m -69 1140 l -468 913 l -867 1140 l -867 1029 l -468 771 l -69 1029 l -69 1140 "},"̆":{"ha":0,"x_min":-661,"x_max":-69,"o":"m -365 765 q -148 821 -225 765 q -69 972 -71 876 l -212 972 q -257 888 -217 917 q -365 860 -297 860 q -473 888 -432 860 q -515 972 -514 917 l -661 972 q -622 864 -661 911 q -517 791 -583 817 q -365 765 -450 765 "},"̊":{"ha":0,"x_min":-772,"x_max":-69,"o":"m -421 747 q -238 765 -318 747 q -114 815 -158 783 q -69 890 -69 847 q -114 965 -69 933 q -238 1015 -158 997 q -421 1033 -318 1033 q -596 1015 -515 1033 q -724 965 -676 997 q -772 890 -772 932 q -724 816 -772 849 q -596 765 -676 783 q -421 747 -515 747 m -421 818 q -510 837 -476 818 q -544 890 -544 856 q -510 944 -544 925 q -421 963 -476 963 q -328 944 -362 963 q -294 889 -294 925 q -330 837 -294 856 q -421 818 -365 818 "},"̃":{"ha":0,"x_min":-599,"x_max":-69,"o":"m -240 794 q -118 844 -165 794 q -69 975 -71 893 l -153 975 q -177 901 -154 925 q -240 876 -200 876 q -278 887 -261 876 q -321 921 -294 897 q -373 963 -350 949 q -428 976 -396 976 q -550 926 -503 976 q -599 796 -597 876 l -514 796 q -490 869 -512 844 q -428 894 -467 894 q -397 885 -411 894 q -361 856 -382 875 q -305 810 -332 826 q -240 794 -278 794 "},"̄":{"ha":0,"x_min":-808,"x_max":-69,"o":"m -808 972 l -808 897 l -69 897 l -69 972 l -808 972 "},"̒":{"ha":0,"x_min":-361,"x_max":-69,"o":"m -157 733 l -69 1108 l -204 1108 l -361 733 l -157 733 "},"̦":{"ha":0,"x_min":-372,"x_max":-79,"o":"m -285 -99 l -372 -474 l -236 -474 l -79 -99 l -285 -99 "},"̧":{"ha":0,"x_min":-661,"x_max":-69,"o":"m -492 -97 l -417 49 l -581 49 l -661 -92 l -661 -165 q -392 -189 -476 -168 q -307 -246 -307 -210 q -661 -322 -307 -321 l -661 -399 q -352 -378 -486 -399 q -144 -324 -218 -358 q -69 -246 -69 -289 q -181 -147 -69 -186 q -492 -97 -293 -108 "},"̨":{"ha":0,"x_min":-546,"x_max":-79,"o":"m -239 -319 q -83 -297 -156 -319 l -79 -162 q -196 -175 -139 -175 q -333 -149 -279 -175 q -387 -78 -387 -122 q -331 17 -387 -36 q -321 40 -321 26 q -337 71 -321 57 q -375 85 -353 85 q -454 43 -412 85 q -546 -129 -546 -49 q -503 -229 -546 -186 q -391 -296 -461 -272 q -239 -319 -321 -319 "},"̵":{"ha":0,"x_min":-764,"x_max":-69,"o":"m -764 558 l -764 360 l -69 360 l -69 558 l -764 558 "},"̶":{"ha":0,"x_min":-1458,"x_max":-69,"o":"m -1458 558 l -1458 360 l -69 360 l -69 558 l -1458 558 "},"̷":{"ha":0,"x_min":-1111,"x_max":-69,"o":"m -286 694 l -1111 0 l -894 0 l -69 694 l -286 694 "},"̸":{"ha":0,"x_min":-1442,"x_max":-69,"o":"m -286 972 l -1442 0 l -1225 0 l -69 972 l -286 972 "},"´":{"ha":538,"x_min":69,"x_max":468,"o":"m 69 901 l 69 756 l 468 949 l 468 1125 l 69 901 "},"˘":{"ha":731,"x_min":69,"x_max":661,"o":"m 365 765 q 583 821 506 765 q 661 972 660 876 l 518 972 q 474 888 514 917 q 365 860 433 860 q 258 888 299 860 q 215 972 217 917 l 69 972 q 108 864 69 911 q 214 791 147 817 q 365 765 281 765 "},"ˇ":{"ha":936,"x_min":69,"x_max":867,"o":"m 867 1140 l 468 913 l 69 1140 l 69 1029 l 468 771 l 867 1029 l 867 1140 "},"¸":{"ha":731,"x_min":69,"x_max":661,"o":"m 239 -97 l 314 49 l 150 49 l 69 -92 l 69 -165 q 339 -189 254 -168 q 424 -246 424 -210 q 69 -322 424 -321 l 69 -399 q 378 -378 244 -399 q 587 -324 513 -358 q 661 -246 661 -289 q 549 -147 661 -186 q 239 -97 438 -108 "},"ˆ":{"ha":936,"x_min":69,"x_max":867,"o":"m 867 882 l 468 1140 l 69 882 l 69 771 l 468 999 l 867 771 l 867 882 "},"¨":{"ha":817,"x_min":69,"x_max":747,"o":"m 207 747 q 308 779 272 747 q 344 865 344 811 q 308 951 344 919 q 207 983 272 983 q 108 951 146 983 q 69 865 69 918 q 108 780 69 813 q 207 747 146 747 m 610 747 q 711 779 675 747 q 747 865 747 811 q 711 951 747 919 q 610 983 675 983 q 510 951 549 983 q 472 865 472 918 q 510 780 472 813 q 610 747 549 747 "},"˙":{"ha":414,"x_min":69,"x_max":344,"o":"m 207 747 q 308 779 272 747 q 344 865 344 811 q 308 951 344 919 q 207 983 272 983 q 108 951 146 983 q 69 865 69 918 q 108 780 69 813 q 207 747 146 747 "},"`":{"ha":538,"x_min":69,"x_max":468,"o":"m 69 949 l 468 756 l 468 901 l 69 1125 l 69 949 "},"˝":{"ha":885,"x_min":69,"x_max":815,"o":"m 69 867 l 69 756 l 468 983 l 468 1125 l 69 867 m 417 867 l 417 756 l 815 983 l 815 1125 l 417 867 "},"¯":{"ha":878,"x_min":69,"x_max":808,"o":"m 69 972 l 69 897 l 808 897 l 808 972 l 69 972 "},"˛":{"ha":618,"x_min":72,"x_max":539,"o":"m 379 -319 q 535 -297 463 -319 l 539 -162 q 422 -175 479 -175 q 285 -149 339 -175 q 231 -78 231 -122 q 288 17 231 -36 q 297 40 297 26 q 281 71 297 57 q 243 85 265 85 q 164 43 206 85 q 72 -129 72 -49 q 115 -229 72 -186 q 227 -296 157 -272 q 379 -319 297 -319 "},"˚":{"ha":842,"x_min":69,"x_max":772,"o":"m 421 747 q 603 765 524 747 q 728 815 683 783 q 772 890 772 847 q 728 965 772 933 q 603 1015 683 997 q 421 1033 524 1033 q 246 1015 326 1033 q 117 965 165 997 q 69 890 69 932 q 117 816 69 849 q 246 765 165 783 q 421 747 326 747 m 421 818 q 331 837 365 818 q 297 890 297 856 q 331 944 297 925 q 421 963 365 963 q 513 944 479 963 q 547 889 547 925 q 512 837 547 856 q 421 818 476 818 "},"˜":{"ha":668,"x_min":69,"x_max":599,"o":"m 428 794 q 550 844 503 794 q 599 975 597 893 l 515 975 q 491 901 514 925 q 428 876 468 876 q 390 887 407 876 q 347 921 374 897 q 295 963 318 949 q 240 976 272 976 q 118 926 165 976 q 69 796 71 876 l 154 796 q 178 869 156 844 q 240 894 201 894 q 272 885 257 894 q 307 856 286 875 q 363 810 336 826 q 428 794 390 794 "}}}
